<svg width="441" height="128" viewBox="0 0 441 128" fill="none" xmlns="http://www.w3.org/2000/svg">
<path d="M33.3281 49.668H45.6328C45.4688 53.2305 44.5078 56.3711 42.75 59.0898C40.9922 61.8086 38.5547 63.9297 35.4375 65.4531C32.3438 66.9531 28.6875 67.7031 24.4688 67.7031C21.0469 67.7031 17.9883 67.1289 15.293 65.9805C12.6211 64.832 10.3477 63.1797 8.47266 61.0234C6.62109 58.8672 5.20312 56.2539 4.21875 53.1836C3.25781 50.1133 2.77734 46.6562 2.77734 42.8125V40.0352C2.77734 36.1914 3.28125 32.7344 4.28906 29.6641C5.32031 26.5703 6.77344 23.9453 8.64844 21.7891C10.5469 19.6094 12.8203 17.9453 15.4688 16.7969C18.1172 15.6484 21.0586 15.0742 24.293 15.0742C28.7461 15.0742 32.5078 15.8711 35.5781 17.4648C38.6484 19.0586 41.0273 21.25 42.7148 24.0391C44.4023 26.8047 45.3984 29.957 45.7031 33.4961H33.3984C33.3516 31.5742 33.0234 29.9688 32.4141 28.6797C31.8047 27.3672 30.8438 26.3828 29.5312 25.7266C28.2188 25.0703 26.4727 24.7422 24.293 24.7422C22.7695 24.7422 21.4453 25.0234 20.3203 25.5859C19.1953 26.1484 18.2578 27.0391 17.5078 28.2578C16.7578 29.4766 16.1953 31.0586 15.8203 33.0039C15.4688 34.9258 15.293 37.2461 15.293 39.9648V42.8125C15.293 45.5312 15.457 47.8516 15.7852 49.7734C16.1133 51.6953 16.6406 53.2656 17.3672 54.4844C18.0938 55.7031 19.0312 56.6055 20.1797 57.1914C21.3516 57.7539 22.7812 58.0352 24.4688 58.0352C26.3438 58.0352 27.9258 57.7422 29.2148 57.1562C30.5039 56.5469 31.5 55.6328 32.2031 54.4141C32.9062 53.1719 33.2812 51.5898 33.3281 49.668ZM51.4688 15.8125H71.6133C75.5508 15.8125 78.9727 16.3984 81.8789 17.5703C84.7852 18.7422 87.0234 20.4766 88.5938 22.7734C90.1875 25.0703 90.9844 27.9062 90.9844 31.2812C90.9844 34.2109 90.5273 36.6602 89.6133 38.6289C88.6992 40.5977 87.4219 42.2266 85.7812 43.5156C84.1641 44.7812 82.2773 45.8242 80.1211 46.6445L76.0781 48.9297H59.168L59.0977 39.4023H71.6133C73.1836 39.4023 74.4844 39.1211 75.5156 38.5586C76.5469 37.9961 77.3203 37.1992 77.8359 36.168C78.375 35.1133 78.6445 33.8594 78.6445 32.4062C78.6445 30.9297 78.375 29.6641 77.8359 28.6094C77.2969 27.5547 76.5 26.7461 75.4453 26.1836C74.4141 25.6211 73.1367 25.3398 71.6133 25.3398H63.8086V67H51.4688V15.8125ZM79.4883 67L68.168 44.3594L81.2461 44.2891L92.707 66.4727V67H79.4883ZM133.664 57.5078V67H106.383V57.5078H133.664ZM110.777 15.8125V67H98.4375V15.8125H110.777ZM130.148 36.1328V45.3086H106.383V36.1328H130.148ZM133.77 15.8125V25.3398H106.383V15.8125H133.77ZM155.355 67H144L144.07 57.5078H155.355C157.699 57.5078 159.68 56.9453 161.297 55.8203C162.938 54.6953 164.18 53.0195 165.023 50.793C165.891 48.543 166.324 45.7773 166.324 42.4961V40.2812C166.324 37.8203 166.078 35.6641 165.586 33.8125C165.117 31.9375 164.414 30.3789 163.477 29.1367C162.539 27.8711 161.367 26.9219 159.961 26.2891C158.578 25.6562 156.984 25.3398 155.18 25.3398H143.789V15.8125H155.18C158.648 15.8125 161.824 16.4102 164.707 17.6055C167.613 18.7773 170.121 20.4648 172.23 22.668C174.363 24.8477 176.004 27.4375 177.152 30.4375C178.324 33.4141 178.91 36.7188 178.91 40.3516V42.4961C178.91 46.1055 178.324 49.4102 177.152 52.4102C176.004 55.4102 174.375 58 172.266 60.1797C170.156 62.3594 167.66 64.0469 164.777 65.2422C161.918 66.4141 158.777 67 155.355 67ZM151.066 15.8125V67H138.727V15.8125H151.066ZM198.457 15.8125V67H186.152V15.8125H198.457ZM230.871 15.8125V67H218.531V15.8125H230.871ZM246.27 15.8125V25.3398H203.484V15.8125H246.27ZM288.211 45.2383H275.027L274.957 37.1523H285.645C287.566 37.1523 289.102 36.9414 290.25 36.5195C291.398 36.0742 292.23 35.4297 292.746 34.5859C293.285 33.7422 293.555 32.6875 293.555 31.4219C293.555 29.9688 293.285 28.7969 292.746 27.9062C292.207 27.0156 291.352 26.3711 290.18 25.9727C289.031 25.5508 287.543 25.3398 285.715 25.3398H279.668V67H267.328V15.8125H285.715C288.879 15.8125 291.703 16.1055 294.188 16.6914C296.672 17.2539 298.781 18.1211 300.516 19.293C302.273 20.4648 303.609 21.9414 304.523 23.7227C305.438 25.4805 305.895 27.5547 305.895 29.9453C305.895 32.0312 305.449 33.9883 304.559 35.8164C303.668 37.6445 302.18 39.1328 300.094 40.2812C298.031 41.4062 295.207 41.9922 291.621 42.0391L288.211 45.2383ZM287.719 67H272.039L276.258 57.5078H287.719C289.406 57.5078 290.754 57.25 291.762 56.7344C292.793 56.1953 293.531 55.4922 293.977 54.625C294.445 53.7344 294.68 52.75 294.68 51.6719C294.68 50.3594 294.457 49.2227 294.012 48.2617C293.59 47.3008 292.91 46.5625 291.973 46.0469C291.035 45.5078 289.781 45.2383 288.211 45.2383H277.84L277.91 37.1523H290.32L293.203 40.3867C296.625 40.2461 299.332 40.7266 301.324 41.8281C303.34 42.9297 304.781 44.3828 305.648 46.1875C306.516 47.9922 306.949 49.8789 306.949 51.8477C306.949 55.1992 306.223 58 304.77 60.25C303.34 62.5 301.195 64.1875 298.336 65.3125C295.477 66.4375 291.938 67 287.719 67ZM349.031 57.5078V67H321.75V57.5078H349.031ZM326.145 15.8125V67H313.805V15.8125H326.145ZM345.516 36.1328V45.3086H321.75V36.1328H345.516ZM349.137 15.8125V25.3398H321.75V15.8125H349.137ZM380.461 53.3945C380.461 52.5977 380.344 51.8828 380.109 51.25C379.875 50.5938 379.441 49.9844 378.809 49.4219C378.176 48.8594 377.262 48.2969 376.066 47.7344C374.895 47.1484 373.348 46.5391 371.426 45.9062C369.176 45.1562 367.008 44.3125 364.922 43.375C362.836 42.4141 360.973 41.3008 359.332 40.0352C357.691 38.7461 356.391 37.2461 355.43 35.5352C354.469 33.8008 353.988 31.7852 353.988 29.4883C353.988 27.2852 354.48 25.3047 355.465 23.5469C356.449 21.7656 357.82 20.2539 359.578 19.0117C361.359 17.7461 363.445 16.7852 365.836 16.1289C368.227 15.4492 370.84 15.1094 373.676 15.1094C377.426 15.1094 380.73 15.7656 383.59 17.0781C386.473 18.3672 388.723 20.207 390.34 22.5977C391.98 24.9648 392.801 27.7656 392.801 31H380.531C380.531 29.7109 380.262 28.5742 379.723 27.5898C379.207 26.6055 378.422 25.832 377.367 25.2695C376.312 24.707 374.988 24.4258 373.395 24.4258C371.848 24.4258 370.547 24.6602 369.492 25.1289C368.438 25.5977 367.641 26.2305 367.102 27.0273C366.562 27.8008 366.293 28.6562 366.293 29.5938C366.293 30.3672 366.504 31.0703 366.926 31.7031C367.371 32.3125 367.992 32.8867 368.789 33.4258C369.609 33.9648 370.594 34.4805 371.742 34.9727C372.914 35.4648 374.227 35.9453 375.68 36.4141C378.398 37.2812 380.812 38.2539 382.922 39.332C385.055 40.3867 386.848 41.5938 388.301 42.9531C389.777 44.2891 390.891 45.8125 391.641 47.5234C392.414 49.2344 392.801 51.168 392.801 53.3242C392.801 55.6211 392.355 57.6602 391.465 59.4414C390.574 61.2227 389.297 62.7344 387.633 63.9766C385.969 65.1953 383.977 66.1211 381.656 66.7539C379.336 67.3867 376.746 67.7031 373.887 67.7031C371.262 67.7031 368.672 67.375 366.117 66.7188C363.586 66.0391 361.289 65.0078 359.227 63.625C357.164 62.2188 355.512 60.4258 354.27 58.2461C353.051 56.043 352.441 53.4297 352.441 50.4062H364.816C364.816 51.9062 365.016 53.1719 365.414 54.2031C365.812 55.2344 366.398 56.0664 367.172 56.6992C367.945 57.3086 368.895 57.7539 370.02 58.0352C371.145 58.293 372.434 58.4219 373.887 58.4219C375.457 58.4219 376.723 58.1992 377.684 57.7539C378.645 57.2852 379.348 56.6758 379.793 55.9258C380.238 55.1523 380.461 54.3086 380.461 53.3945ZM423.949 15.8125V67H411.609V15.8125H423.949ZM439.348 15.8125V25.3398H396.562V15.8125H439.348Z" fill="white"/>
<path d="M32.3262 96.3203V96.8916C32.3262 97.8643 32.1914 98.7373 31.9219 99.5107C31.6582 100.284 31.2803 100.943 30.7881 101.488C30.3018 102.033 29.7217 102.452 29.0479 102.745C28.3799 103.032 27.6387 103.176 26.8242 103.176C26.0098 103.176 25.2656 103.032 24.5918 102.745C23.918 102.452 23.332 102.033 22.834 101.488C22.3418 100.943 21.9609 100.284 21.6914 99.5107C21.4219 98.7373 21.2871 97.8643 21.2871 96.8916V96.3203C21.2871 95.3477 21.4219 94.4746 21.6914 93.7012C21.9609 92.9219 22.3389 92.2598 22.8252 91.7148C23.3174 91.1699 23.9004 90.7539 24.5742 90.4668C25.248 90.1738 25.9922 90.0273 26.8066 90.0273C27.6211 90.0273 28.3652 90.1738 29.0391 90.4668C29.7129 90.7539 30.293 91.1699 30.7793 91.7148C31.2715 92.2598 31.6523 92.9219 31.9219 93.7012C32.1914 94.4746 32.3262 95.3477 32.3262 96.3203ZM29.4346 96.8916V96.3027C29.4346 95.6523 29.376 95.0781 29.2588 94.5801C29.1416 94.0762 28.9717 93.6543 28.749 93.3145C28.5264 92.9746 28.251 92.7197 27.9229 92.5498C27.5947 92.374 27.2227 92.2861 26.8066 92.2861C26.373 92.2861 25.9951 92.374 25.6729 92.5498C25.3506 92.7197 25.0781 92.9746 24.8555 93.3145C24.6387 93.6543 24.4717 94.0762 24.3545 94.5801C24.2432 95.0781 24.1875 95.6523 24.1875 96.3027V96.8916C24.1875 97.5361 24.2432 98.1104 24.3545 98.6143C24.4717 99.1123 24.6416 99.5342 24.8643 99.8799C25.0869 100.226 25.3594 100.486 25.6816 100.662C26.0098 100.838 26.3906 100.926 26.8242 100.926C27.2402 100.926 27.6094 100.838 27.9316 100.662C28.2598 100.486 28.5352 100.226 28.7578 99.8799C28.9805 99.5342 29.1475 99.1123 29.2588 98.6143C29.376 98.1104 29.4346 97.5361 29.4346 96.8916ZM38.9971 91.3193H42.0205C42.7881 91.3193 43.4941 91.4453 44.1387 91.6973C44.7891 91.9492 45.3545 92.3096 45.835 92.7783C46.3154 93.2471 46.6875 93.8096 46.9512 94.4658C47.2148 95.1221 47.3467 95.8574 47.3467 96.6719C47.3467 97.4629 47.2148 98.1807 46.9512 98.8252C46.6875 99.4639 46.3154 100.015 45.835 100.478C45.3545 100.935 44.7891 101.286 44.1387 101.532C43.4941 101.772 42.7881 101.893 42.0205 101.893H38.9971C38.2236 101.893 37.5117 101.772 36.8613 101.532C36.2109 101.286 35.6426 100.935 35.1562 100.478C34.6758 100.021 34.3037 99.4727 34.04 98.834C33.7764 98.1953 33.6445 97.4805 33.6445 96.6895C33.6445 95.875 33.7764 95.1396 34.04 94.4834C34.3037 93.8271 34.6758 93.2617 35.1562 92.7871C35.6426 92.3125 36.2109 91.9492 36.8613 91.6973C37.5117 91.4453 38.2236 91.3193 38.9971 91.3193ZM38.9971 93.6133C38.4814 93.6133 38.0215 93.7275 37.6172 93.9561C37.2188 94.1846 36.9053 94.5273 36.6768 94.9844C36.4541 95.4355 36.3428 96.0039 36.3428 96.6895C36.3428 97.1699 36.4072 97.5947 36.5361 97.9639C36.6709 98.3271 36.8584 98.6289 37.0986 98.8691C37.3447 99.1094 37.6289 99.291 37.9512 99.4141C38.2734 99.5371 38.6221 99.5986 38.9971 99.5986H42.0381C42.5479 99.5986 42.9961 99.4902 43.3828 99.2734C43.7754 99.0508 44.083 98.7197 44.3057 98.2803C44.5283 97.8408 44.6396 97.3047 44.6396 96.6719C44.6396 96.1621 44.5752 95.7168 44.4463 95.3359C44.3174 94.9551 44.1357 94.6387 43.9014 94.3867C43.6729 94.1289 43.4004 93.9355 43.084 93.8066C42.7676 93.6777 42.4189 93.6133 42.0381 93.6133H38.9971ZM41.8799 89.6758V103.527H39.1377V89.6758H41.8799ZM59.6426 96.3203V96.8916C59.6426 97.8643 59.5078 98.7373 59.2383 99.5107C58.9746 100.284 58.5967 100.943 58.1045 101.488C57.6182 102.033 57.0381 102.452 56.3643 102.745C55.6963 103.032 54.9551 103.176 54.1406 103.176C53.3262 103.176 52.582 103.032 51.9082 102.745C51.2344 102.452 50.6484 102.033 50.1504 101.488C49.6582 100.943 49.2773 100.284 49.0078 99.5107C48.7383 98.7373 48.6035 97.8643 48.6035 96.8916V96.3203C48.6035 95.3477 48.7383 94.4746 49.0078 93.7012C49.2773 92.9219 49.6553 92.2598 50.1416 91.7148C50.6338 91.1699 51.2168 90.7539 51.8906 90.4668C52.5645 90.1738 53.3086 90.0273 54.123 90.0273C54.9375 90.0273 55.6816 90.1738 56.3555 90.4668C57.0293 90.7539 57.6094 91.1699 58.0957 91.7148C58.5879 92.2598 58.9688 92.9219 59.2383 93.7012C59.5078 94.4746 59.6426 95.3477 59.6426 96.3203ZM56.751 96.8916V96.3027C56.751 95.6523 56.6924 95.0781 56.5752 94.5801C56.458 94.0762 56.2881 93.6543 56.0654 93.3145C55.8428 92.9746 55.5674 92.7197 55.2393 92.5498C54.9111 92.374 54.5391 92.2861 54.123 92.2861C53.6895 92.2861 53.3115 92.374 52.9893 92.5498C52.667 92.7197 52.3945 92.9746 52.1719 93.3145C51.9551 93.6543 51.7881 94.0762 51.6709 94.5801C51.5596 95.0781 51.5039 95.6523 51.5039 96.3027V96.8916C51.5039 97.5361 51.5596 98.1104 51.6709 98.6143C51.7881 99.1123 51.958 99.5342 52.1807 99.8799C52.4033 100.226 52.6758 100.486 52.998 100.662C53.3262 100.838 53.707 100.926 54.1406 100.926C54.5566 100.926 54.9258 100.838 55.248 100.662C55.5762 100.486 55.8516 100.226 56.0742 99.8799C56.2969 99.5342 56.4639 99.1123 56.5752 98.6143C56.6924 98.1104 56.751 97.5361 56.751 96.8916ZM66.4453 98.5527H63.2285V96.3291H66.4453C66.9199 96.3291 67.3008 96.25 67.5879 96.0918C67.8809 95.9336 68.0947 95.7168 68.2295 95.4414C68.3701 95.1602 68.4404 94.8438 68.4404 94.4922C68.4404 94.1289 68.3701 93.792 68.2295 93.4814C68.0947 93.165 67.8809 92.9102 67.5879 92.7168C67.3008 92.5234 66.9199 92.4268 66.4453 92.4268H64.2656V103H61.4004V90.2031H66.4453C67.4648 90.2031 68.3379 90.3877 69.0645 90.7568C69.7969 91.126 70.3564 91.6328 70.7432 92.2773C71.1357 92.916 71.332 93.6484 71.332 94.4746C71.332 95.3008 71.1357 96.0186 70.7432 96.6279C70.3564 97.2373 69.7969 97.7119 69.0645 98.0518C68.3379 98.3857 67.4648 98.5527 66.4453 98.5527ZM74.4434 90.2031H76.8164L79.8926 99.3525L82.96 90.2031H85.333L80.8506 103H78.9258L74.4434 90.2031ZM73.0723 90.2031H75.4893L75.9375 99.6865V103H73.0723V90.2031ZM84.2871 90.2031H86.7129V103H83.8389V99.6865L84.2871 90.2031ZM91.5645 98.5703L96.4424 90.2031H99.2988V103H96.4424V94.6416L91.5645 103H88.708V90.2031H91.5645V98.5703ZM110.848 96.874H108.756V95.3975H110.355C110.783 95.3975 111.126 95.3301 111.384 95.1953C111.647 95.0605 111.838 94.8672 111.955 94.6152C112.078 94.3633 112.14 94.0703 112.14 93.7363C112.14 93.4668 112.069 93.2207 111.929 92.998C111.794 92.7695 111.586 92.5879 111.305 92.4531C111.023 92.3184 110.663 92.251 110.224 92.251C109.884 92.251 109.576 92.3066 109.301 92.418C109.025 92.5293 108.809 92.6934 108.65 92.9102C108.492 93.1211 108.413 93.3789 108.413 93.6836H105.557C105.557 93.1094 105.68 92.5996 105.926 92.1543C106.178 91.7031 106.518 91.3223 106.945 91.0117C107.379 90.6953 107.877 90.4551 108.439 90.291C109.002 90.1211 109.597 90.0361 110.224 90.0361C110.944 90.0361 111.598 90.1152 112.184 90.2734C112.77 90.4258 113.273 90.6543 113.695 90.959C114.117 91.2637 114.439 91.6445 114.662 92.1016C114.891 92.5527 115.005 93.0771 115.005 93.6748C115.005 94.1143 114.905 94.5273 114.706 94.9141C114.513 95.3008 114.231 95.6406 113.862 95.9336C113.499 96.2266 113.06 96.458 112.544 96.6279C112.034 96.792 111.469 96.874 110.848 96.874ZM108.756 96.0918H110.848C111.539 96.0918 112.154 96.165 112.693 96.3115C113.232 96.458 113.687 96.6719 114.056 96.9531C114.431 97.2344 114.715 97.583 114.908 97.999C115.107 98.4092 115.207 98.8809 115.207 99.4141C115.207 100.012 115.084 100.545 114.838 101.014C114.592 101.477 114.243 101.869 113.792 102.191C113.347 102.514 112.819 102.757 112.21 102.921C111.606 103.085 110.944 103.167 110.224 103.167C109.638 103.167 109.055 103.097 108.475 102.956C107.9 102.81 107.379 102.587 106.91 102.288C106.447 101.989 106.075 101.605 105.794 101.137C105.513 100.668 105.372 100.105 105.372 99.4492H108.237C108.237 99.7363 108.322 99.9941 108.492 100.223C108.662 100.451 108.896 100.633 109.195 100.768C109.494 100.896 109.837 100.961 110.224 100.961C110.669 100.961 111.05 100.891 111.366 100.75C111.683 100.609 111.923 100.419 112.087 100.179C112.251 99.9326 112.333 99.6602 112.333 99.3613C112.333 99.0332 112.292 98.7549 112.21 98.5264C112.128 98.292 112.002 98.1045 111.832 97.9639C111.668 97.8174 111.46 97.7119 111.208 97.6475C110.962 97.5771 110.678 97.542 110.355 97.542H108.756V96.0918ZM122.405 92.6377L119.101 103H116.042L120.779 90.2031H122.713L122.405 92.6377ZM125.147 103L121.834 92.6377L121.491 90.2031H123.451L128.206 103H125.147ZM125.007 98.2363V100.451H118.336V98.2363H125.007ZM136.002 98.4297H132.557L131.66 98.0605C130.635 97.7383 129.853 97.2578 129.313 96.6191C128.774 95.9746 128.505 95.1572 128.505 94.167C128.505 93.2939 128.698 92.5645 129.085 91.9785C129.478 91.3926 130.031 90.9502 130.746 90.6514C131.461 90.3525 132.308 90.2031 133.286 90.2031H137.839V103H134.965V92.4268H133.286C132.618 92.4268 132.129 92.5967 131.818 92.9365C131.514 93.2764 131.361 93.7627 131.361 94.3955C131.361 94.8643 131.432 95.2451 131.572 95.5381C131.719 95.8252 131.933 96.0361 132.214 96.1709C132.501 96.2998 132.855 96.3643 133.277 96.3643H135.993L136.002 98.4297ZM133.55 97.3223L130.772 103H127.661L130.43 97.3223H133.55ZM144.879 97.4717H141.592L141.574 95.5557H144.29C144.771 95.5557 145.16 95.4971 145.459 95.3799C145.764 95.2627 145.986 95.0928 146.127 94.8701C146.268 94.6416 146.338 94.3604 146.338 94.0264C146.338 93.6455 146.268 93.3379 146.127 93.1035C145.986 92.8691 145.764 92.6992 145.459 92.5938C145.16 92.4824 144.773 92.4268 144.299 92.4268H142.629V103H139.764V90.2031H144.299C145.066 90.2031 145.752 90.2734 146.355 90.4141C146.959 90.5547 147.472 90.7715 147.894 91.0645C148.321 91.3574 148.646 91.7236 148.869 92.1631C149.092 92.6025 149.203 93.1211 149.203 93.7188C149.203 94.2402 149.086 94.7266 148.852 95.1777C148.623 95.6289 148.254 95.9951 147.744 96.2764C147.234 96.5576 146.552 96.71 145.696 96.7334L144.879 97.4717ZM144.765 103H140.862L141.899 100.785H144.765C145.204 100.785 145.562 100.715 145.837 100.574C146.112 100.434 146.314 100.243 146.443 100.003C146.572 99.7627 146.637 99.4932 146.637 99.1943C146.637 98.8428 146.575 98.5381 146.452 98.2803C146.335 98.0225 146.147 97.8232 145.89 97.6826C145.638 97.542 145.301 97.4717 144.879 97.4717H142.312L142.33 95.5557H145.468L146.136 96.3115C146.95 96.2939 147.601 96.4258 148.087 96.707C148.579 96.9824 148.934 97.3457 149.15 97.7969C149.367 98.248 149.476 98.7256 149.476 99.2295C149.476 100.062 149.297 100.759 148.939 101.321C148.582 101.878 148.052 102.297 147.349 102.578C146.651 102.859 145.79 103 144.765 103ZM154.187 90.2031V103H151.33V90.2031H154.187ZM161.648 90.2031L156.894 97.8232H153.624L153.272 95.2656H155.399L158.186 90.2031H161.648ZM158.687 103L155.399 97.3398L157.43 95.3711L162.079 103H158.687ZM167.01 98.2715L170.086 90.2031H173.136L168.785 100.434C168.627 100.797 168.445 101.146 168.24 101.479C168.035 101.808 167.792 102.101 167.511 102.358C167.235 102.61 166.904 102.812 166.518 102.965C166.137 103.111 165.686 103.185 165.164 103.185C165.029 103.185 164.868 103.182 164.681 103.176C164.499 103.17 164.347 103.164 164.224 103.158L164.188 100.935C164.265 100.952 164.373 100.964 164.514 100.97C164.66 100.97 164.763 100.97 164.821 100.97C165.173 100.97 165.448 100.923 165.647 100.829C165.853 100.735 166.014 100.601 166.131 100.425C166.254 100.249 166.362 100.029 166.456 99.7656L167.01 98.2715ZM165.103 90.2031L167.88 96.1445L168.785 99.3789L166.702 99.3965L162.053 90.2031H165.103ZM187.427 95.3535V97.5684H180.8V95.3535H187.427ZM181.705 90.2031V103H178.84V90.2031H181.705ZM189.404 90.2031V103H186.548V90.2031H189.404ZM197.007 92.6377L193.702 103H190.644L195.381 90.2031H197.314L197.007 92.6377ZM199.749 103L196.436 92.6377L196.093 90.2031H198.053L202.808 103H199.749ZM199.608 98.2363V100.451H192.938V98.2363H199.608ZM211.21 90.2031V103H208.354V90.2031H211.21ZM218.672 90.2031L213.917 97.8232H210.647L210.296 95.2656H212.423L215.209 90.2031H218.672ZM215.71 103L212.423 97.3398L214.453 95.3711L219.103 103H215.71ZM225.035 98.5527H221.818V96.3291H225.035C225.51 96.3291 225.891 96.25 226.178 96.0918C226.471 95.9336 226.685 95.7168 226.819 95.4414C226.96 95.1602 227.03 94.8438 227.03 94.4922C227.03 94.1289 226.96 93.792 226.819 93.4814C226.685 93.165 226.471 92.9102 226.178 92.7168C225.891 92.5234 225.51 92.4268 225.035 92.4268H222.855V103H219.99V90.2031H225.035C226.055 90.2031 226.928 90.3877 227.654 90.7568C228.387 91.126 228.946 91.6328 229.333 92.2773C229.726 92.916 229.922 93.6484 229.922 94.4746C229.922 95.3008 229.726 96.0186 229.333 96.6279C228.946 97.2373 228.387 97.7119 227.654 98.0518C226.928 98.3857 226.055 98.5527 225.035 98.5527ZM240.363 100.785V103H233.552V100.785H240.363ZM234.527 90.2031V103H231.662V90.2031H234.527ZM239.484 95.3535V97.498H233.552V95.3535H239.484ZM240.372 90.2031V92.4268H233.552V90.2031H240.372ZM251.947 100.785V103H242.842V100.785H251.947ZM243.738 100.785V106.138H241.075L240.899 100.785H243.738ZM253.942 100.785L253.67 106.146H251.077V100.785H253.942ZM250.55 90.2031V92.4268H244.257V90.2031H250.55ZM252.527 90.2031V103H249.68V90.2031H252.527ZM243.993 90.2031H246.85L246.489 95.4326C246.431 96.3115 246.331 97.082 246.19 97.7441C246.056 98.4004 245.895 98.9746 245.707 99.4668C245.52 99.959 245.312 100.384 245.083 100.741C244.86 101.099 244.623 101.412 244.371 101.682C244.125 101.945 243.879 102.183 243.633 102.394C243.387 102.599 243.146 102.801 242.912 103H241.216V100.785H241.822C241.998 100.65 242.177 100.466 242.358 100.231C242.546 99.9971 242.725 99.6807 242.895 99.2822C243.064 98.8838 243.214 98.3711 243.343 97.7441C243.472 97.1172 243.565 96.3467 243.624 95.4326L243.993 90.2031ZM257.889 98.5703L262.767 90.2031H265.623V103H262.767V94.6416L257.889 103H255.032V90.2031H257.889V98.5703ZM273.393 90.2031V103H270.536V90.2031H273.393ZM277.286 90.2031V92.4268H266.722V90.2031H277.286ZM287.807 97.4717H284.52L284.502 95.5557H287.218C287.698 95.5557 288.088 95.4971 288.387 95.3799C288.691 95.2627 288.914 95.0928 289.055 94.8701C289.195 94.6416 289.266 94.3604 289.266 94.0264C289.266 93.6455 289.195 93.3379 289.055 93.1035C288.914 92.8691 288.691 92.6992 288.387 92.5938C288.088 92.4824 287.701 92.4268 287.227 92.4268H285.557V103H282.691V90.2031H287.227C287.994 90.2031 288.68 90.2734 289.283 90.4141C289.887 90.5547 290.399 90.7715 290.821 91.0645C291.249 91.3574 291.574 91.7236 291.797 92.1631C292.02 92.6025 292.131 93.1211 292.131 93.7188C292.131 94.2402 292.014 94.7266 291.779 95.1777C291.551 95.6289 291.182 95.9951 290.672 96.2764C290.162 96.5576 289.479 96.71 288.624 96.7334L287.807 97.4717ZM287.692 103H283.79L284.827 100.785H287.692C288.132 100.785 288.489 100.715 288.765 100.574C289.04 100.434 289.242 100.243 289.371 100.003C289.5 99.7627 289.564 99.4932 289.564 99.1943C289.564 98.8428 289.503 98.5381 289.38 98.2803C289.263 98.0225 289.075 97.8232 288.817 97.6826C288.565 97.542 288.229 97.4717 287.807 97.4717H285.24L285.258 95.5557H288.396L289.063 96.3115C289.878 96.2939 290.528 96.4258 291.015 96.707C291.507 96.9824 291.861 97.3457 292.078 97.7969C292.295 98.248 292.403 98.7256 292.403 99.2295C292.403 100.062 292.225 100.759 291.867 101.321C291.51 101.878 290.979 102.297 290.276 102.578C289.579 102.859 288.718 103 287.692 103ZM309.331 90.2031V103H306.466V92.4268H301.597V103H298.74V90.2031H309.331ZM318.182 98.4297H314.736L313.84 98.0605C312.814 97.7383 312.032 97.2578 311.493 96.6191C310.954 95.9746 310.685 95.1572 310.685 94.167C310.685 93.2939 310.878 92.5645 311.265 91.9785C311.657 91.3926 312.211 90.9502 312.926 90.6514C313.641 90.3525 314.487 90.2031 315.466 90.2031H320.019V103H317.145V92.4268H315.466C314.798 92.4268 314.309 92.5967 313.998 92.9365C313.693 93.2764 313.541 93.7627 313.541 94.3955C313.541 94.8643 313.611 95.2451 313.752 95.5381C313.898 95.8252 314.112 96.0361 314.394 96.1709C314.681 96.2998 315.035 96.3643 315.457 96.3643H318.173L318.182 98.4297ZM315.729 97.3223L312.952 103H309.841L312.609 97.3223H315.729ZM327.709 90.2031V103H324.853V90.2031H327.709ZM331.603 90.2031V92.4268H321.038V90.2031H331.603ZM335.742 98.5703L340.62 90.2031H343.477V103H340.62V94.6416L335.742 103H332.886V90.2031H335.742V98.5703ZM358.541 90.2031V92.4268H352.881V103H350.024V90.2031H358.541ZM351.861 94.7383H354.727C355.746 94.7383 356.631 94.9082 357.381 95.248C358.131 95.5879 358.708 96.0654 359.112 96.6807C359.517 97.29 359.719 98.0049 359.719 98.8252C359.719 99.4404 359.602 100.003 359.367 100.513C359.139 101.022 358.805 101.465 358.365 101.84C357.932 102.209 357.407 102.496 356.792 102.701C356.183 102.9 355.494 103 354.727 103H350.033V90.2031H352.907V100.785H354.727C355.195 100.785 355.588 100.697 355.904 100.521C356.221 100.34 356.458 100.1 356.616 99.8008C356.78 99.502 356.862 99.1709 356.862 98.8076C356.862 98.4502 356.78 98.1338 356.616 97.8584C356.458 97.5771 356.221 97.3574 355.904 97.1992C355.588 97.0352 355.195 96.9531 354.727 96.9531H351.861V94.7383ZM366.618 92.6377L363.313 103H360.255L364.992 90.2031H366.926L366.618 92.6377ZM369.36 103L366.047 92.6377L365.704 90.2031H367.664L372.419 103H369.36ZM369.22 98.2363V100.451H362.549V98.2363H369.22ZM382.069 95.3535V97.5684H375.442V95.3535H382.069ZM376.348 90.2031V103H373.482V90.2031H376.348ZM384.047 90.2031V103H381.19V90.2031H384.047ZM389.03 90.2031V103H386.174V90.2031H389.03ZM396.492 90.2031L391.737 97.8232H388.468L388.116 95.2656H390.243L393.029 90.2031H396.492ZM393.53 103L390.243 97.3398L392.273 95.3711L396.923 103H393.53ZM403.128 92.6377L399.823 103H396.765L401.502 90.2031H403.436L403.128 92.6377ZM405.87 103L402.557 92.6377L402.214 90.2031H404.174L408.929 103H405.87ZM405.729 98.2363V100.451H399.059V98.2363H405.729ZM412.418 90.2031L414.668 94.5625L416.918 90.2031H420.188L416.549 96.5488L420.284 103H416.988L414.668 98.5615L412.356 103H409.052L412.796 96.5488L409.148 90.2031H412.418ZM21.3398 116.354V118.568H14.7129V116.354H21.3398ZM15.6182 111.203V124H12.7529V111.203H15.6182ZM23.3174 111.203V124H20.4609V111.203H23.3174ZM30.9199 113.638L27.6152 124H24.5566L29.2939 111.203H31.2275L30.9199 113.638ZM33.6621 124L30.3486 113.638L30.0059 111.203H31.9658L36.7207 124H33.6621ZM33.5215 119.236V121.451H26.8506V119.236H33.5215ZM52.9365 117.32V117.892C52.9365 118.864 52.8018 119.737 52.5322 120.511C52.2686 121.284 51.8906 121.943 51.3984 122.488C50.9121 123.033 50.332 123.452 49.6582 123.745C48.9902 124.032 48.249 124.176 47.4346 124.176C46.6201 124.176 45.876 124.032 45.2021 123.745C44.5283 123.452 43.9424 123.033 43.4443 122.488C42.9521 121.943 42.5713 121.284 42.3018 120.511C42.0322 119.737 41.8975 118.864 41.8975 117.892V117.32C41.8975 116.348 42.0322 115.475 42.3018 114.701C42.5713 113.922 42.9492 113.26 43.4355 112.715C43.9277 112.17 44.5107 111.754 45.1846 111.467C45.8584 111.174 46.6025 111.027 47.417 111.027C48.2314 111.027 48.9756 111.174 49.6494 111.467C50.3232 111.754 50.9033 112.17 51.3896 112.715C51.8818 113.26 52.2627 113.922 52.5322 114.701C52.8018 115.475 52.9365 116.348 52.9365 117.32ZM50.0449 117.892V117.303C50.0449 116.652 49.9863 116.078 49.8691 115.58C49.752 115.076 49.582 114.654 49.3594 114.314C49.1367 113.975 48.8613 113.72 48.5332 113.55C48.2051 113.374 47.833 113.286 47.417 113.286C46.9834 113.286 46.6055 113.374 46.2832 113.55C45.9609 113.72 45.6885 113.975 45.4658 114.314C45.249 114.654 45.082 115.076 44.9648 115.58C44.8535 116.078 44.7979 116.652 44.7979 117.303V117.892C44.7979 118.536 44.8535 119.11 44.9648 119.614C45.082 120.112 45.252 120.534 45.4746 120.88C45.6973 121.226 45.9697 121.486 46.292 121.662C46.6201 121.838 47.001 121.926 47.4346 121.926C47.8506 121.926 48.2197 121.838 48.542 121.662C48.8701 121.486 49.1455 121.226 49.3682 120.88C49.5908 120.534 49.7578 120.112 49.8691 119.614C49.9863 119.11 50.0449 118.536 50.0449 117.892ZM64.5732 121.785V124H55.4678V121.785H64.5732ZM56.3643 121.785V127.138H53.7012L53.5254 121.785H56.3643ZM66.5684 121.785L66.2959 127.146H63.7031V121.785H66.5684ZM63.1758 111.203V113.427H56.8828V111.203H63.1758ZM65.1533 111.203V124H62.3057V111.203H65.1533ZM56.6191 111.203H59.4756L59.1152 116.433C59.0566 117.312 58.957 118.082 58.8164 118.744C58.6816 119.4 58.5205 119.975 58.333 120.467C58.1455 120.959 57.9375 121.384 57.709 121.741C57.4863 122.099 57.249 122.412 56.9971 122.682C56.751 122.945 56.5049 123.183 56.2588 123.394C56.0127 123.599 55.7725 123.801 55.5381 124H53.8418V121.785H54.4482C54.624 121.65 54.8027 121.466 54.9844 121.231C55.1719 120.997 55.3506 120.681 55.5205 120.282C55.6904 119.884 55.8398 119.371 55.9688 118.744C56.0977 118.117 56.1914 117.347 56.25 116.433L56.6191 111.203ZM76.377 116.354V118.568H69.75V116.354H76.377ZM70.6553 111.203V124H67.79V111.203H70.6553ZM78.3545 111.203V124H75.498V111.203H78.3545ZM91.1514 117.32V117.892C91.1514 118.864 91.0166 119.737 90.7471 120.511C90.4834 121.284 90.1055 121.943 89.6133 122.488C89.127 123.033 88.5469 123.452 87.873 123.745C87.2051 124.032 86.4639 124.176 85.6494 124.176C84.835 124.176 84.0908 124.032 83.417 123.745C82.7432 123.452 82.1572 123.033 81.6592 122.488C81.167 121.943 80.7861 121.284 80.5166 120.511C80.2471 119.737 80.1123 118.864 80.1123 117.892V117.32C80.1123 116.348 80.2471 115.475 80.5166 114.701C80.7861 113.922 81.1641 113.26 81.6504 112.715C82.1426 112.17 82.7256 111.754 83.3994 111.467C84.0732 111.174 84.8174 111.027 85.6318 111.027C86.4463 111.027 87.1904 111.174 87.8643 111.467C88.5381 111.754 89.1182 112.17 89.6045 112.715C90.0967 113.26 90.4775 113.922 90.7471 114.701C91.0166 115.475 91.1514 116.348 91.1514 117.32ZM88.2598 117.892V117.303C88.2598 116.652 88.2012 116.078 88.084 115.58C87.9668 115.076 87.7969 114.654 87.5742 114.314C87.3516 113.975 87.0762 113.72 86.748 113.55C86.4199 113.374 86.0479 113.286 85.6318 113.286C85.1982 113.286 84.8203 113.374 84.498 113.55C84.1758 113.72 83.9033 113.975 83.6807 114.314C83.4639 114.654 83.2969 115.076 83.1797 115.58C83.0684 116.078 83.0127 116.652 83.0127 117.303V117.892C83.0127 118.536 83.0684 119.11 83.1797 119.614C83.2969 120.112 83.4668 120.534 83.6895 120.88C83.9121 121.226 84.1846 121.486 84.5068 121.662C84.835 121.838 85.2158 121.926 85.6494 121.926C86.0654 121.926 86.4346 121.838 86.7568 121.662C87.085 121.486 87.3604 121.226 87.583 120.88C87.8057 120.534 87.9727 120.112 88.084 119.614C88.2012 119.11 88.2598 118.536 88.2598 117.892ZM94.2803 111.203H96.6533L99.7295 120.353L102.797 111.203H105.17L100.688 124H98.7627L94.2803 111.203ZM92.9092 111.203H95.3262L95.7744 120.687V124H92.9092V111.203ZM104.124 111.203H106.55V124H103.676V120.687L104.124 111.203ZM120.516 119.711H123.363C123.316 120.59 123.076 121.366 122.643 122.04C122.215 122.708 121.62 123.232 120.858 123.613C120.097 123.988 119.191 124.176 118.143 124.176C117.305 124.176 116.555 124.032 115.893 123.745C115.23 123.458 114.668 123.048 114.205 122.515C113.748 121.976 113.396 121.328 113.15 120.572C112.91 119.811 112.79 118.952 112.79 117.997V117.215C112.79 116.26 112.916 115.401 113.168 114.64C113.42 113.878 113.78 113.228 114.249 112.688C114.718 112.149 115.28 111.736 115.937 111.449C116.593 111.162 117.325 111.019 118.134 111.019C119.224 111.019 120.144 111.215 120.894 111.607C121.644 112 122.224 112.539 122.634 113.225C123.05 113.91 123.299 114.692 123.381 115.571H120.524C120.501 115.073 120.407 114.654 120.243 114.314C120.079 113.969 119.827 113.708 119.487 113.532C119.147 113.356 118.696 113.269 118.134 113.269C117.724 113.269 117.363 113.345 117.053 113.497C116.748 113.649 116.493 113.887 116.288 114.209C116.089 114.531 115.939 114.941 115.84 115.439C115.74 115.932 115.69 116.518 115.69 117.197V117.997C115.69 118.671 115.734 119.254 115.822 119.746C115.91 120.238 116.051 120.646 116.244 120.968C116.443 121.29 116.698 121.53 117.009 121.688C117.319 121.847 117.697 121.926 118.143 121.926C118.652 121.926 119.077 121.847 119.417 121.688C119.757 121.524 120.018 121.278 120.199 120.95C120.381 120.622 120.486 120.209 120.516 119.711ZM130.271 113.638L126.967 124H123.908L128.646 111.203H130.579L130.271 113.638ZM133.014 124L129.7 113.638L129.357 111.203H131.317L136.072 124H133.014ZM132.873 119.236V121.451H126.202V119.236H132.873ZM139.86 119.57L144.738 111.203H147.595V124H144.738V115.642L139.86 124H137.004V111.203H139.86V119.57ZM143.561 107.802H145.477C145.477 108.317 145.348 108.774 145.09 109.173C144.832 109.571 144.466 109.882 143.991 110.104C143.522 110.327 142.966 110.438 142.321 110.438C141.354 110.438 140.587 110.195 140.019 109.709C139.45 109.217 139.166 108.581 139.166 107.802H141.073C141.073 108.101 141.167 108.367 141.354 108.602C141.548 108.83 141.87 108.944 142.321 108.944C142.778 108.944 143.098 108.83 143.279 108.602C143.467 108.367 143.561 108.101 143.561 107.802ZM155.628 111.203V124H152.771V111.203H155.628ZM159.521 111.203V113.427H148.957V111.203H159.521ZM169.638 121.785V124H162.826V121.785H169.638ZM163.802 111.203V124H160.937V111.203H163.802ZM168.759 116.354V118.498H162.826V116.354H168.759ZM169.646 111.203V113.427H162.826V111.203H169.646ZM178.251 119.57L183.129 111.203H185.985V124H183.129V115.642L178.251 124H175.395V111.203H178.251V119.57ZM203.133 111.203V124H200.268V113.427H195.398V124H192.542V111.203H203.133ZM215.921 117.32V117.892C215.921 118.864 215.786 119.737 215.517 120.511C215.253 121.284 214.875 121.943 214.383 122.488C213.896 123.033 213.316 123.452 212.643 123.745C211.975 124.032 211.233 124.176 210.419 124.176C209.604 124.176 208.86 124.032 208.187 123.745C207.513 123.452 206.927 123.033 206.429 122.488C205.937 121.943 205.556 121.284 205.286 120.511C205.017 119.737 204.882 118.864 204.882 117.892V117.32C204.882 116.348 205.017 115.475 205.286 114.701C205.556 113.922 205.934 113.26 206.42 112.715C206.912 112.17 207.495 111.754 208.169 111.467C208.843 111.174 209.587 111.027 210.401 111.027C211.216 111.027 211.96 111.174 212.634 111.467C213.308 111.754 213.888 112.17 214.374 112.715C214.866 113.26 215.247 113.922 215.517 114.701C215.786 115.475 215.921 116.348 215.921 117.32ZM213.029 117.892V117.303C213.029 116.652 212.971 116.078 212.854 115.58C212.736 115.076 212.566 114.654 212.344 114.314C212.121 113.975 211.846 113.72 211.518 113.55C211.189 113.374 210.817 113.286 210.401 113.286C209.968 113.286 209.59 113.374 209.268 113.55C208.945 113.72 208.673 113.975 208.45 114.314C208.233 114.654 208.066 115.076 207.949 115.58C207.838 116.078 207.782 116.652 207.782 117.303V117.892C207.782 118.536 207.838 119.11 207.949 119.614C208.066 120.112 208.236 120.534 208.459 120.88C208.682 121.226 208.954 121.486 209.276 121.662C209.604 121.838 209.985 121.926 210.419 121.926C210.835 121.926 211.204 121.838 211.526 121.662C211.854 121.486 212.13 121.226 212.353 120.88C212.575 120.534 212.742 120.112 212.854 119.614C212.971 119.11 213.029 118.536 213.029 117.892ZM226.011 111.203V113.427H219.524V111.203H226.011ZM227.997 111.203V124H225.132V111.203H227.997ZM219.252 111.203H222.1L221.774 117.672C221.722 118.639 221.625 119.479 221.484 120.194C221.35 120.903 221.162 121.504 220.922 121.996C220.688 122.482 220.403 122.875 220.069 123.174C219.735 123.467 219.346 123.678 218.9 123.807C218.455 123.936 217.948 124 217.38 124H216.686V121.785L217.02 121.75C217.301 121.727 217.544 121.653 217.749 121.53C217.96 121.407 218.142 121.226 218.294 120.985C218.446 120.739 218.572 120.426 218.672 120.045C218.777 119.664 218.859 119.201 218.918 118.656C218.982 118.111 219.026 117.473 219.05 116.74L219.252 111.203ZM234.149 119.271L237.226 111.203H240.275L235.925 121.434C235.767 121.797 235.585 122.146 235.38 122.479C235.175 122.808 234.932 123.101 234.65 123.358C234.375 123.61 234.044 123.812 233.657 123.965C233.276 124.111 232.825 124.185 232.304 124.185C232.169 124.185 232.008 124.182 231.82 124.176C231.639 124.17 231.486 124.164 231.363 124.158L231.328 121.935C231.404 121.952 231.513 121.964 231.653 121.97C231.8 121.97 231.902 121.97 231.961 121.97C232.312 121.97 232.588 121.923 232.787 121.829C232.992 121.735 233.153 121.601 233.271 121.425C233.394 121.249 233.502 121.029 233.596 120.766L234.149 119.271ZM232.242 111.203L235.02 117.145L235.925 120.379L233.842 120.396L229.192 111.203H232.242ZM241.646 111.203H244.503V115.114C244.503 115.653 244.588 116.075 244.758 116.38C244.934 116.679 245.191 116.89 245.531 117.013C245.877 117.136 246.305 117.197 246.814 117.197C246.979 117.197 247.189 117.188 247.447 117.171C247.705 117.153 247.975 117.13 248.256 117.101C248.543 117.065 248.81 117.027 249.056 116.986C249.308 116.939 249.507 116.887 249.653 116.828V119.043C249.507 119.096 249.305 119.146 249.047 119.192C248.789 119.239 248.517 119.28 248.229 119.315C247.948 119.345 247.679 119.368 247.421 119.386C247.169 119.403 246.967 119.412 246.814 119.412C245.771 119.412 244.86 119.26 244.081 118.955C243.308 118.65 242.707 118.182 242.279 117.549C241.857 116.916 241.646 116.104 241.646 115.114V111.203ZM249.082 111.203H251.938V124H249.082V111.203ZM256.755 119.57L261.633 111.203H264.489V124H261.633V115.642L256.755 124H253.898V111.203H256.755V119.57ZM279.659 111.203V113.427H273.173V111.203H279.659ZM281.646 111.203V124H278.78V111.203H281.646ZM272.9 111.203H275.748L275.423 117.672C275.37 118.639 275.273 119.479 275.133 120.194C274.998 120.903 274.811 121.504 274.57 121.996C274.336 122.482 274.052 122.875 273.718 123.174C273.384 123.467 272.994 123.678 272.549 123.807C272.104 123.936 271.597 124 271.028 124H270.334V121.785L270.668 121.75C270.949 121.727 271.192 121.653 271.397 121.53C271.608 121.407 271.79 121.226 271.942 120.985C272.095 120.739 272.221 120.426 272.32 120.045C272.426 119.664 272.508 119.201 272.566 118.656C272.631 118.111 272.675 117.473 272.698 116.74L272.9 111.203ZM287.798 119.271L290.874 111.203H293.924L289.573 121.434C289.415 121.797 289.233 122.146 289.028 122.479C288.823 122.808 288.58 123.101 288.299 123.358C288.023 123.61 287.692 123.812 287.306 123.965C286.925 124.111 286.474 124.185 285.952 124.185C285.817 124.185 285.656 124.182 285.469 124.176C285.287 124.17 285.135 124.164 285.012 124.158L284.977 121.935C285.053 121.952 285.161 121.964 285.302 121.97C285.448 121.97 285.551 121.97 285.609 121.97C285.961 121.97 286.236 121.923 286.436 121.829C286.641 121.735 286.802 121.601 286.919 121.425C287.042 121.249 287.15 121.029 287.244 120.766L287.798 119.271ZM285.891 111.203L288.668 117.145L289.573 120.379L287.49 120.396L282.841 111.203H285.891ZM295.295 111.203H298.151V115.114C298.151 115.653 298.236 116.075 298.406 116.38C298.582 116.679 298.84 116.89 299.18 117.013C299.525 117.136 299.953 117.197 300.463 117.197C300.627 117.197 300.838 117.188 301.096 117.171C301.354 117.153 301.623 117.13 301.904 117.101C302.191 117.065 302.458 117.027 302.704 116.986C302.956 116.939 303.155 116.887 303.302 116.828V119.043C303.155 119.096 302.953 119.146 302.695 119.192C302.438 119.239 302.165 119.28 301.878 119.315C301.597 119.345 301.327 119.368 301.069 119.386C300.817 119.403 300.615 119.412 300.463 119.412C299.42 119.412 298.509 119.26 297.729 118.955C296.956 118.65 296.355 118.182 295.928 117.549C295.506 116.916 295.295 116.104 295.295 115.114V111.203ZM302.73 111.203H305.587V124H302.73V111.203ZM307.635 111.203H310.5V121.785H313.884V111.203H316.74V121.785H320.071V111.203H322.928V124H307.635V111.203ZM327.735 119.57L332.613 111.203H335.47V124H332.613V115.642L327.735 124H324.879V111.203H327.735V119.57ZM346.245 121.785V124H339.434V121.785H346.245ZM340.409 111.203V124H337.544V111.203H340.409ZM345.366 116.354V118.498H339.434V116.354H345.366ZM346.254 111.203V113.427H339.434V111.203H346.254ZM356.177 119.271L359.253 111.203H362.303L357.952 121.434C357.794 121.797 357.612 122.146 357.407 122.479C357.202 122.808 356.959 123.101 356.678 123.358C356.402 123.61 356.071 123.812 355.685 123.965C355.304 124.111 354.853 124.185 354.331 124.185C354.196 124.185 354.035 124.182 353.848 124.176C353.666 124.17 353.514 124.164 353.391 124.158L353.355 121.935C353.432 121.952 353.54 121.964 353.681 121.97C353.827 121.97 353.93 121.97 353.988 121.97C354.34 121.97 354.615 121.923 354.814 121.829C355.02 121.735 355.181 121.601 355.298 121.425C355.421 121.249 355.529 121.029 355.623 120.766L356.177 119.271ZM354.27 111.203L357.047 117.145L357.952 120.379L355.869 120.396L351.22 111.203H354.27ZM370.67 119.711H373.518C373.471 120.59 373.23 121.366 372.797 122.04C372.369 122.708 371.774 123.232 371.013 123.613C370.251 123.988 369.346 124.176 368.297 124.176C367.459 124.176 366.709 124.032 366.047 123.745C365.385 123.458 364.822 123.048 364.359 122.515C363.902 121.976 363.551 121.328 363.305 120.572C363.064 119.811 362.944 118.952 362.944 117.997V117.215C362.944 116.26 363.07 115.401 363.322 114.64C363.574 113.878 363.935 113.228 364.403 112.688C364.872 112.149 365.435 111.736 366.091 111.449C366.747 111.162 367.479 111.019 368.288 111.019C369.378 111.019 370.298 111.215 371.048 111.607C371.798 112 372.378 112.539 372.788 113.225C373.204 113.91 373.453 114.692 373.535 115.571H370.679C370.655 115.073 370.562 114.654 370.397 114.314C370.233 113.969 369.981 113.708 369.642 113.532C369.302 113.356 368.851 113.269 368.288 113.269C367.878 113.269 367.518 113.345 367.207 113.497C366.902 113.649 366.647 113.887 366.442 114.209C366.243 114.531 366.094 114.941 365.994 115.439C365.895 115.932 365.845 116.518 365.845 117.197V117.997C365.845 118.671 365.889 119.254 365.977 119.746C366.064 120.238 366.205 120.646 366.398 120.968C366.598 121.29 366.853 121.53 367.163 121.688C367.474 121.847 367.852 121.926 368.297 121.926C368.807 121.926 369.231 121.847 369.571 121.688C369.911 121.524 370.172 121.278 370.354 120.95C370.535 120.622 370.641 120.209 370.67 119.711ZM383.722 111.203V113.427H377.235V111.203H383.722ZM385.708 111.203V124H382.843V111.203H385.708ZM376.963 111.203H379.811L379.485 117.672C379.433 118.639 379.336 119.479 379.195 120.194C379.061 120.903 378.873 121.504 378.633 121.996C378.398 122.482 378.114 122.875 377.78 123.174C377.446 123.467 377.057 123.678 376.611 123.807C376.166 123.936 375.659 124 375.091 124H374.396V121.785L374.73 121.75C375.012 121.727 375.255 121.653 375.46 121.53C375.671 121.407 375.853 121.226 376.005 120.985C376.157 120.739 376.283 120.426 376.383 120.045C376.488 119.664 376.57 119.201 376.629 118.656C376.693 118.111 376.737 117.473 376.761 116.74L376.963 111.203ZM398.487 117.32V117.892C398.487 118.864 398.353 119.737 398.083 120.511C397.819 121.284 397.441 121.943 396.949 122.488C396.463 123.033 395.883 123.452 395.209 123.745C394.541 124.032 393.8 124.176 392.985 124.176C392.171 124.176 391.427 124.032 390.753 123.745C390.079 123.452 389.493 123.033 388.995 122.488C388.503 121.943 388.122 121.284 387.853 120.511C387.583 119.737 387.448 118.864 387.448 117.892V117.32C387.448 116.348 387.583 115.475 387.853 114.701C388.122 113.922 388.5 113.26 388.986 112.715C389.479 112.17 390.062 111.754 390.735 111.467C391.409 111.174 392.153 111.027 392.968 111.027C393.782 111.027 394.526 111.174 395.2 111.467C395.874 111.754 396.454 112.17 396.94 112.715C397.433 113.26 397.813 113.922 398.083 114.701C398.353 115.475 398.487 116.348 398.487 117.32ZM395.596 117.892V117.303C395.596 116.652 395.537 116.078 395.42 115.58C395.303 115.076 395.133 114.654 394.91 114.314C394.688 113.975 394.412 113.72 394.084 113.55C393.756 113.374 393.384 113.286 392.968 113.286C392.534 113.286 392.156 113.374 391.834 113.55C391.512 113.72 391.239 113.975 391.017 114.314C390.8 114.654 390.633 115.076 390.516 115.58C390.404 116.078 390.349 116.652 390.349 117.303V117.892C390.349 118.536 390.404 119.11 390.516 119.614C390.633 120.112 390.803 120.534 391.025 120.88C391.248 121.226 391.521 121.486 391.843 121.662C392.171 121.838 392.552 121.926 392.985 121.926C393.401 121.926 393.771 121.838 394.093 121.662C394.421 121.486 394.696 121.226 394.919 120.88C395.142 120.534 395.309 120.112 395.42 119.614C395.537 119.11 395.596 118.536 395.596 117.892ZM405.36 118.472H402.073L402.056 116.556H404.771C405.252 116.556 405.642 116.497 405.94 116.38C406.245 116.263 406.468 116.093 406.608 115.87C406.749 115.642 406.819 115.36 406.819 115.026C406.819 114.646 406.749 114.338 406.608 114.104C406.468 113.869 406.245 113.699 405.94 113.594C405.642 113.482 405.255 113.427 404.78 113.427H403.11V124H400.245V111.203H404.78C405.548 111.203 406.233 111.273 406.837 111.414C407.44 111.555 407.953 111.771 408.375 112.064C408.803 112.357 409.128 112.724 409.351 113.163C409.573 113.603 409.685 114.121 409.685 114.719C409.685 115.24 409.567 115.727 409.333 116.178C409.104 116.629 408.735 116.995 408.226 117.276C407.716 117.558 407.033 117.71 406.178 117.733L405.36 118.472ZM405.246 124H401.344L402.381 121.785H405.246C405.686 121.785 406.043 121.715 406.318 121.574C406.594 121.434 406.796 121.243 406.925 121.003C407.054 120.763 407.118 120.493 407.118 120.194C407.118 119.843 407.057 119.538 406.934 119.28C406.816 119.022 406.629 118.823 406.371 118.683C406.119 118.542 405.782 118.472 405.36 118.472H402.794L402.812 116.556H405.949L406.617 117.312C407.432 117.294 408.082 117.426 408.568 117.707C409.061 117.982 409.415 118.346 409.632 118.797C409.849 119.248 409.957 119.726 409.957 120.229C409.957 121.062 409.778 121.759 409.421 122.321C409.063 122.878 408.533 123.297 407.83 123.578C407.133 123.859 406.271 124 405.246 124ZM414.536 119.57L419.414 111.203H422.271V124H419.414V115.642L414.536 124H411.68V111.203H414.536V119.57ZM431.077 119.43H427.632L426.735 119.061C425.71 118.738 424.928 118.258 424.389 117.619C423.85 116.975 423.58 116.157 423.58 115.167C423.58 114.294 423.773 113.564 424.16 112.979C424.553 112.393 425.106 111.95 425.821 111.651C426.536 111.353 427.383 111.203 428.361 111.203H432.914V124H430.04V113.427H428.361C427.693 113.427 427.204 113.597 426.894 113.937C426.589 114.276 426.437 114.763 426.437 115.396C426.437 115.864 426.507 116.245 426.647 116.538C426.794 116.825 427.008 117.036 427.289 117.171C427.576 117.3 427.931 117.364 428.353 117.364H431.068L431.077 119.43ZM428.625 118.322L425.848 124H422.736L425.505 118.322H428.625Z" fill="white"/>
</svg>
