<svg width="42" height="42" viewBox="0 0 42 42" fill="none" xmlns="http://www.w3.org/2000/svg">
<g clip-path="url(#clip0_224_17)">
<rect width="42" height="42" rx="21" fill="#EFEFEF"/>
<g clip-path="url(#clip1_224_17)">
<path d="M29.8893 15.0277C29.8844 15.0818 29.8698 15.1329 29.8478 15.1841C29.8234 15.3035 29.8112 15.4399 29.8112 15.5906C29.8112 15.6048 29.8136 15.619 29.8136 15.6332V25.5081C29.921 25.818 30.0529 26.0511 30.2116 26.196C30.358 26.3325 30.5387 26.3978 30.7584 26.3865C30.7731 26.3836 30.7902 26.3836 30.8048 26.3836H33.2365C33.2413 26.3836 33.2487 26.3836 33.256 26.3836C33.6344 26.4064 33.9078 26.287 34.091 26.0425C34.2985 25.764 34.4181 25.3177 34.4596 24.7179V24.7094L35.1994 15.8009C35.1994 15.7867 35.1994 15.7725 35.2018 15.7583C35.2531 15.2523 35.1579 14.9226 34.943 14.7293C34.6964 14.5076 34.2887 14.4166 33.7589 14.4166C33.7467 14.4166 33.7345 14.4194 33.7223 14.4194H30.983V14.4166C30.5656 14.4166 30.2579 14.5132 30.07 14.7122C29.9918 14.7947 29.9332 14.8998 29.8893 15.0277ZM27.2086 25.9516C27.15 25.8862 27.1085 25.8009 27.0914 25.7071L23.1852 17.5206C22.7506 16.6764 22.36 16.6565 21.9816 16.918C21.713 17.1028 21.4298 17.4041 21.1466 17.7054C20.9757 17.8873 20.8048 18.0692 20.6608 18.2085L19.9894 18.8538L19.9845 18.8566C19.4962 19.3143 18.9445 19.5616 18.422 19.6099C18.0778 19.644 17.7457 19.5928 17.443 19.4592C17.1329 19.3228 16.8595 19.1039 16.6544 18.8055C16.4323 18.4843 16.2858 18.0749 16.2516 17.5917H16.254C16.2467 17.4752 16.276 17.3586 16.3444 17.262L18.4782 14.3057C18.0289 14.2972 17.631 14.3683 17.2575 14.5047C16.6886 14.7122 16.1564 15.0704 15.5753 15.5337C15.5094 15.5934 15.424 15.6304 15.3336 15.6304H12.8751V21.0397L12.8849 24.499H14.3156C14.4523 24.499 14.5841 24.5815 14.6549 24.7293L16.4323 28.3364C16.6911 28.8623 16.9205 29.3171 17.2062 29.6156C17.4747 29.897 17.8263 30.0704 18.3683 30.0874C18.5709 30.0931 18.7662 30.0533 18.9494 29.9652C19.0617 29.9112 19.174 29.8373 19.2838 29.7435L18.1315 27.2364C18.0289 27.0147 18.1022 26.7389 18.2926 26.6224C18.483 26.503 18.7199 26.5883 18.82 26.81L20.0724 29.536C20.5387 29.8117 20.9611 29.897 21.3395 29.8032C21.6862 29.7151 22.0133 29.4735 22.3209 29.0812L20.5167 25.7839C20.402 25.5735 20.4533 25.2921 20.6364 25.1557C20.817 25.0221 21.0587 25.0818 21.1759 25.2949L23.0753 28.7685C23.4098 28.9277 23.7296 28.9618 24.0348 28.8652C24.3253 28.7713 24.6183 28.5553 24.9088 28.2028L23.1876 24.428C23.0851 24.2063 23.1583 23.9277 23.3512 23.8111C23.5416 23.6918 23.7809 23.777 23.881 24.0016L25.6632 27.9072C25.8952 28.0636 26.1637 28.1034 26.4201 28.055C26.6447 28.0124 26.862 27.8987 27.0402 27.7367C27.2111 27.5775 27.3454 27.3728 27.4088 27.1397C27.4796 26.8868 27.4723 26.5911 27.3576 26.2699L27.2086 25.9516ZM27.7262 25.1613H29.0299V15.6332C29.0299 15.6218 29.0299 15.6076 29.0324 15.5962C29.0324 15.4484 29.0397 15.3063 29.0568 15.1727L27.7287 14.1466C27.7213 14.1409 27.714 14.1352 27.7067 14.1295C27.5333 13.9959 27.3258 13.8254 27.1183 13.6548C26.3639 13.0408 25.59 12.4069 24.7526 12.1511C24.3009 12.0118 23.7785 11.9209 23.2462 11.9095C22.7799 11.8981 22.3063 11.9493 21.8595 12.0857C21.5934 12.1653 21.3346 12.2762 21.0954 12.424C20.8829 12.5547 20.6852 12.7139 20.5094 12.9072L19.6207 14.138C19.5939 14.2006 19.5548 14.2517 19.5084 14.2944L17.0573 17.694C17.0939 17.9101 17.1671 18.092 17.2672 18.2398C17.3844 18.4075 17.5407 18.5326 17.7189 18.6122C17.9093 18.6946 18.129 18.7259 18.3585 18.7031C18.7321 18.6662 19.1325 18.4871 19.4913 18.1517L20.1627 17.5064C20.3336 17.3416 20.4777 17.1881 20.6217 17.0374C20.9367 16.702 21.2492 16.3694 21.5812 16.1392C22.3454 15.6076 23.1071 15.5906 23.859 17.0601L23.8663 17.0744L27.7262 25.1613ZM29.1764 26.0738H28.1339C28.2755 26.5542 28.2682 27.009 28.1559 27.4126C28.0412 27.8276 27.8165 28.1801 27.5285 28.4473C27.2477 28.706 26.9059 28.885 26.547 28.9533C26.1979 29.0215 25.8317 28.9845 25.4899 28.8197C25.0944 29.3001 24.6769 29.6042 24.2423 29.7435C23.8053 29.8828 23.3634 29.8544 22.9166 29.6724C22.4918 30.221 22.0231 30.565 21.5055 30.6929C20.9782 30.8265 20.4191 30.7327 19.8258 30.4086C19.6403 30.5764 19.4474 30.71 19.2448 30.8066C18.9591 30.9459 18.6588 31.0084 18.3439 30.997C17.5919 30.9715 17.0866 30.7128 16.6837 30.2921C16.298 29.8913 16.0416 29.3796 15.7487 28.7884L14.0861 25.4115H12.797C12.7213 25.8464 12.5919 26.2159 12.3966 26.5115C12.067 27.0061 11.5861 27.2677 10.9171 27.2506C10.9098 27.2506 10.9025 27.2506 10.8952 27.2506H8.68568C8.12904 27.3558 7.65297 27.1966 7.27943 26.6935C6.9474 26.2472 6.72279 25.5223 6.62514 24.4592C6.6227 24.4479 6.6227 24.4337 6.62025 24.4194L6.0392 16.034C5.92445 15.1301 6.05141 14.4905 6.36391 14.0528C6.67885 13.6122 7.15492 13.4132 7.73842 13.3819C7.75551 13.3791 7.77016 13.3791 7.78725 13.3791H10.7633V13.3819C11.3248 13.3734 11.8082 13.4843 12.1745 13.76C12.4699 13.9817 12.6823 14.2944 12.7897 14.7208H15.214C15.8244 14.2432 16.3932 13.868 17.0231 13.6377C17.6432 13.4132 18.3048 13.3336 19.0983 13.4445L19.9162 12.3188C19.9308 12.2961 19.9454 12.2762 19.965 12.2563C20.1969 12.0005 20.4557 11.7901 20.734 11.6196C21.027 11.4405 21.3395 11.304 21.6666 11.2045C22.1842 11.0482 22.7287 10.9885 23.2609 10.9999C23.8639 11.0141 24.4498 11.1164 24.9552 11.2699C25.922 11.5684 26.757 12.2478 27.5675 12.9101C27.7482 13.0579 27.9288 13.2057 28.1437 13.3706C28.151 13.3762 28.1583 13.3819 28.1657 13.3876L29.3424 14.3029C29.401 14.2063 29.4694 14.1181 29.5475 14.0385C29.8844 13.6861 30.3654 13.5127 30.9855 13.5127V13.5098H33.7247C33.7345 13.5098 33.7467 13.5098 33.7565 13.5127C34.4572 13.5098 35.0285 13.6576 35.424 14.013C35.8634 14.4081 36.0709 15.0078 35.983 15.8691C35.983 15.8777 35.9806 15.8833 35.9806 15.8919L35.2409 24.7918C35.1871 25.5877 35.004 26.2102 34.6818 26.6423C34.3375 27.1028 33.8615 27.3302 33.2365 27.2989H30.8048H30.8024C30.3825 27.3245 30.0236 27.1909 29.7233 26.9123C29.5036 26.7048 29.3204 26.4263 29.1764 26.0738ZM9.41811 22.6144C9.71107 22.6144 9.94789 22.8902 9.94789 23.2313C9.94789 23.5724 9.71107 23.8481 9.41811 23.8481C9.12514 23.8481 8.88832 23.5724 8.88832 23.2313C8.88832 22.8902 9.12514 22.6144 9.41811 22.6144ZM32.4772 22.6144C32.7702 22.6144 33.007 22.8902 33.007 23.2313C33.007 23.5724 32.7702 23.8481 32.4772 23.8481C32.1842 23.8481 31.9474 23.5724 31.9474 23.2313C31.9474 22.8902 32.1842 22.6144 32.4772 22.6144ZM12.0914 19.9879L12.0768 15.1756C12.0768 15.167 12.0768 15.1585 12.0768 15.1471C12.0353 14.8458 11.923 14.644 11.757 14.5189C11.5299 14.3484 11.1906 14.283 10.7731 14.2887H10.7682V14.2915H7.78969C7.7848 14.2915 7.77992 14.2915 7.77504 14.2915C7.40639 14.3114 7.12562 14.4138 6.96693 14.6355C6.79604 14.8714 6.73744 15.2807 6.81801 15.9146C6.82045 15.9288 6.82045 15.9402 6.82045 15.9544L7.4015 24.3484V24.3626C7.47963 25.2324 7.64076 25.7895 7.86781 26.0965C8.04848 26.341 8.29506 26.4092 8.59047 26.3467C8.61244 26.341 8.63686 26.3381 8.65883 26.3381V26.3353H10.8927C10.9074 26.3353 10.922 26.3353 10.9342 26.3381C11.3297 26.3467 11.6032 26.2102 11.7741 25.9516C11.9743 25.6503 12.0719 25.1784 12.0866 24.5701H12.0841V19.9879H12.0914Z" fill="#0083CA"/>
<path d="M29.8893 15.0277C29.8844 15.0818 29.8698 15.1329 29.8478 15.1841C29.8234 15.3035 29.8112 15.4399 29.8112 15.5906C29.8112 15.6048 29.8136 15.619 29.8136 15.6332V25.5081C29.921 25.818 30.0529 26.0511 30.2116 26.196C30.358 26.3325 30.5387 26.3978 30.7584 26.3865C30.7731 26.3836 30.7902 26.3836 30.8048 26.3836H33.2365C33.2413 26.3836 33.2487 26.3836 33.256 26.3836C33.6344 26.4064 33.9078 26.287 34.091 26.0425C34.2985 25.764 34.4181 25.3177 34.4596 24.7179V24.7094L35.1994 15.8009C35.1994 15.7867 35.1994 15.7725 35.2018 15.7583C35.2531 15.2523 35.1579 14.9226 34.943 14.7293C34.6964 14.5076 34.2887 14.4166 33.7589 14.4166C33.7467 14.4166 33.7345 14.4194 33.7223 14.4194H30.983V14.4166C30.5656 14.4166 30.2579 14.5132 30.07 14.7122C29.9918 14.7947 29.9332 14.8998 29.8893 15.0277ZM27.2086 25.9516C27.15 25.8862 27.1085 25.8009 27.0914 25.7071L23.1852 17.5206C22.7506 16.6764 22.36 16.6565 21.9816 16.918C21.713 17.1028 21.4298 17.4041 21.1466 17.7054C20.9757 17.8873 20.8048 18.0692 20.6608 18.2085L19.9894 18.8538L19.9845 18.8566C19.4962 19.3143 18.9445 19.5616 18.422 19.6099C18.0778 19.644 17.7457 19.5928 17.443 19.4592C17.1329 19.3228 16.8595 19.1039 16.6544 18.8055C16.4323 18.4843 16.2858 18.0749 16.2516 17.5917H16.254C16.2467 17.4752 16.276 17.3586 16.3444 17.262L18.4782 14.3057C18.0289 14.2972 17.631 14.3683 17.2575 14.5047C16.6886 14.7122 16.1564 15.0704 15.5753 15.5337C15.5094 15.5934 15.424 15.6304 15.3336 15.6304H12.8751V21.0397L12.8849 24.499H14.3156C14.4523 24.499 14.5841 24.5815 14.6549 24.7293L16.4323 28.3364C16.6911 28.8623 16.9205 29.3171 17.2062 29.6156C17.4747 29.897 17.8263 30.0704 18.3683 30.0874C18.5709 30.0931 18.7662 30.0533 18.9494 29.9652C19.0617 29.9112 19.174 29.8373 19.2838 29.7435L18.1315 27.2364C18.0289 27.0147 18.1022 26.7389 18.2926 26.6224C18.483 26.503 18.7199 26.5883 18.82 26.81L20.0724 29.536C20.5387 29.8117 20.9611 29.897 21.3395 29.8032C21.6862 29.7151 22.0133 29.4735 22.3209 29.0812L20.5167 25.7839C20.402 25.5735 20.4533 25.2921 20.6364 25.1557C20.817 25.0221 21.0587 25.0818 21.1759 25.2949L23.0753 28.7685C23.4098 28.9277 23.7296 28.9618 24.0348 28.8652C24.3253 28.7713 24.6183 28.5553 24.9088 28.2028L23.1876 24.428C23.0851 24.2063 23.1583 23.9277 23.3512 23.8111C23.5416 23.6918 23.7809 23.777 23.881 24.0016L25.6632 27.9072C25.8952 28.0636 26.1637 28.1034 26.4201 28.055C26.6447 28.0124 26.862 27.8987 27.0402 27.7367C27.2111 27.5775 27.3454 27.3728 27.4088 27.1397C27.4796 26.8868 27.4723 26.5911 27.3576 26.2699L27.2086 25.9516ZM27.7262 25.1613H29.0299V15.6332C29.0299 15.6218 29.0299 15.6076 29.0324 15.5962C29.0324 15.4484 29.0397 15.3063 29.0568 15.1727L27.7287 14.1466C27.7213 14.1409 27.714 14.1352 27.7067 14.1295C27.5333 13.9959 27.3258 13.8254 27.1183 13.6548C26.3639 13.0408 25.59 12.4069 24.7526 12.1511C24.3009 12.0118 23.7785 11.9209 23.2462 11.9095C22.7799 11.8981 22.3063 11.9493 21.8595 12.0857C21.5934 12.1653 21.3346 12.2762 21.0954 12.424C20.8829 12.5547 20.6852 12.7139 20.5094 12.9072L19.6207 14.138C19.5939 14.2006 19.5548 14.2517 19.5084 14.2944L17.0573 17.694C17.0939 17.9101 17.1671 18.092 17.2672 18.2398C17.3844 18.4075 17.5407 18.5326 17.7189 18.6122C17.9093 18.6946 18.129 18.7259 18.3585 18.7031C18.7321 18.6662 19.1325 18.4871 19.4913 18.1517L20.1627 17.5064C20.3336 17.3416 20.4777 17.1881 20.6217 17.0374C20.9367 16.702 21.2492 16.3694 21.5812 16.1392C22.3454 15.6076 23.1071 15.5906 23.859 17.0601L23.8663 17.0744L27.7262 25.1613ZM29.1764 26.0738H28.1339C28.2755 26.5542 28.2682 27.009 28.1559 27.4126C28.0412 27.8276 27.8165 28.1801 27.5285 28.4473C27.2477 28.706 26.9059 28.885 26.547 28.9533C26.1979 29.0215 25.8317 28.9845 25.4899 28.8197C25.0944 29.3001 24.6769 29.6042 24.2423 29.7435C23.8053 29.8828 23.3634 29.8544 22.9166 29.6724C22.4918 30.221 22.0231 30.565 21.5055 30.6929C20.9782 30.8265 20.4191 30.7327 19.8258 30.4086C19.6403 30.5764 19.4474 30.71 19.2448 30.8066C18.9591 30.9459 18.6588 31.0084 18.3439 30.997C17.5919 30.9715 17.0866 30.7128 16.6837 30.2921C16.298 29.8913 16.0416 29.3796 15.7487 28.7884L14.0861 25.4115H12.797C12.7213 25.8464 12.5919 26.2159 12.3966 26.5115C12.067 27.0061 11.5861 27.2677 10.9171 27.2506C10.9098 27.2506 10.9025 27.2506 10.8952 27.2506H8.68568C8.12904 27.3558 7.65297 27.1966 7.27943 26.6935C6.9474 26.2472 6.72279 25.5223 6.62514 24.4592C6.6227 24.4479 6.6227 24.4337 6.62025 24.4194L6.0392 16.034C5.92445 15.1301 6.05141 14.4905 6.36391 14.0528C6.67885 13.6122 7.15492 13.4132 7.73842 13.3819C7.75551 13.3791 7.77016 13.3791 7.78725 13.3791H10.7633V13.3819C11.3248 13.3734 11.8082 13.4843 12.1745 13.76C12.4699 13.9817 12.6823 14.2944 12.7897 14.7208H15.214C15.8244 14.2432 16.3932 13.868 17.0231 13.6377C17.6432 13.4132 18.3048 13.3336 19.0983 13.4445L19.9162 12.3188C19.9308 12.2961 19.9454 12.2762 19.965 12.2563C20.1969 12.0005 20.4557 11.7901 20.734 11.6196C21.027 11.4405 21.3395 11.304 21.6666 11.2045C22.1842 11.0482 22.7287 10.9885 23.2609 10.9999C23.8639 11.0141 24.4498 11.1164 24.9552 11.2699C25.922 11.5684 26.757 12.2478 27.5675 12.9101C27.7482 13.0579 27.9288 13.2057 28.1437 13.3706C28.151 13.3762 28.1583 13.3819 28.1657 13.3876L29.3424 14.3029C29.401 14.2063 29.4694 14.1181 29.5475 14.0385C29.8844 13.6861 30.3654 13.5127 30.9855 13.5127V13.5098H33.7247C33.7345 13.5098 33.7467 13.5098 33.7565 13.5127C34.4572 13.5098 35.0285 13.6576 35.424 14.013C35.8634 14.4081 36.0709 15.0078 35.983 15.8691C35.983 15.8777 35.9806 15.8833 35.9806 15.8919L35.2409 24.7918C35.1871 25.5877 35.004 26.2102 34.6818 26.6423C34.3375 27.1028 33.8615 27.3302 33.2365 27.2989H30.8048H30.8024C30.3825 27.3245 30.0236 27.1909 29.7233 26.9123C29.5036 26.7048 29.3204 26.4263 29.1764 26.0738ZM9.41811 22.6144C9.71107 22.6144 9.94789 22.8902 9.94789 23.2313C9.94789 23.5724 9.71107 23.8481 9.41811 23.8481C9.12514 23.8481 8.88832 23.5724 8.88832 23.2313C8.88832 22.8902 9.12514 22.6144 9.41811 22.6144ZM32.4772 22.6144C32.7702 22.6144 33.007 22.8902 33.007 23.2313C33.007 23.5724 32.7702 23.8481 32.4772 23.8481C32.1842 23.8481 31.9474 23.5724 31.9474 23.2313C31.9474 22.8902 32.1842 22.6144 32.4772 22.6144ZM12.0914 19.9879L12.0768 15.1756C12.0768 15.167 12.0768 15.1585 12.0768 15.1471C12.0353 14.8458 11.923 14.644 11.757 14.5189C11.5299 14.3484 11.1906 14.283 10.7731 14.2887H10.7682V14.2915H7.78969C7.7848 14.2915 7.77992 14.2915 7.77504 14.2915C7.40639 14.3114 7.12562 14.4138 6.96693 14.6355C6.79604 14.8714 6.73744 15.2807 6.81801 15.9146C6.82045 15.9288 6.82045 15.9402 6.82045 15.9544L7.4015 24.3484V24.3626C7.47963 25.2324 7.64076 25.7895 7.86781 26.0965C8.04848 26.341 8.29506 26.4092 8.59047 26.3467C8.61244 26.341 8.63686 26.3381 8.65883 26.3381V26.3353H10.8927C10.9074 26.3353 10.922 26.3353 10.9342 26.3381C11.3297 26.3467 11.6032 26.2102 11.7741 25.9516C11.9743 25.6503 12.0719 25.1784 12.0866 24.5701H12.0841V19.9879H12.0914Z" fill="#0083CA"/>
</g>
</g>
<defs>
<clipPath id="clip0_224_17">
<rect width="42" height="42" rx="21" fill="white"/>
</clipPath>
<clipPath id="clip1_224_17">
<rect width="30" height="20" fill="white" transform="translate(6 11)"/>
</clipPath>
</defs>
</svg>
