<svg width="42" height="42" viewBox="0 0 42 42" fill="none" xmlns="http://www.w3.org/2000/svg">
<rect width="42" height="42" rx="21" fill="#EFEFEF"/>
<path d="M18.9374 29.163C18.7431 29.15 18.5497 29.1266 18.358 29.0931L17.3421 28.9499L16.7147 28.8474C16.5122 28.8116 16.308 28.7725 16.1071 28.7286C15.9063 28.6847 15.6971 28.6342 15.5212 28.5887L15.2821 28.5252V24.6772L16.3926 24.7667L17.2077 24.8139L18.0626 24.8513L18.9291 24.8773L19.7707 24.8936H20.5542C20.7915 24.8936 20.999 24.8936 21.1783 24.8708C21.3458 24.8573 21.5121 24.8328 21.6763 24.7976C21.7961 24.7725 21.9126 24.7337 22.0232 24.6821C22.1003 24.647 22.171 24.5998 22.2324 24.5421C22.2791 24.4961 22.3148 24.4406 22.337 24.3794C22.3653 24.2983 22.3788 24.2129 22.3768 24.1272V23.8783C22.3842 23.7941 22.3699 23.7093 22.3351 23.632C22.3003 23.5546 22.2461 23.4871 22.1776 23.4357C22.0954 23.3779 22.004 23.334 21.907 23.3056C21.7991 23.2753 21.6873 23.2605 21.575 23.2616H20.4297C19.6551 23.2725 18.8829 23.1766 18.1356 22.9769C17.5042 22.8105 16.9166 22.5131 16.4126 22.1048C15.9182 21.6812 15.5495 21.1349 15.3452 20.5233C15.1009 19.7872 14.9848 19.016 15.0016 18.2421V17.5441C14.988 16.81 15.117 16.08 15.3817 15.3931C15.6267 14.7806 16.0266 14.2392 16.5437 13.8197C16.8924 13.5245 17.2785 13.2745 17.6924 13.0761C18.0875 12.8983 18.506 12.7751 18.9357 12.7101V11H22.5577V12.6385C23.1111 12.6864 23.6614 12.764 24.2061 12.8711L24.5115 12.9232C24.7655 12.9671 25.0178 13.0143 25.2684 13.0664C25.5191 13.1185 25.7299 13.1624 25.9457 13.2128L26.1914 13.2714V17.1243L25.8428 17.095C25.4975 17.0657 25.1473 17.0397 24.7954 17.0185C24.4119 16.9941 24.0202 16.9746 23.6201 16.9567C23.2201 16.9388 22.8067 16.9258 22.4432 16.9177C22.1112 16.9177 21.751 16.9063 21.3742 16.9063C21.1766 16.9063 20.9941 16.9063 20.8281 16.9258C20.6677 16.9369 20.5082 16.9564 20.35 16.9844C20.2353 17.0045 20.1237 17.039 20.018 17.0869C19.9357 17.1241 19.8605 17.1747 19.7956 17.2366C19.7416 17.2908 19.7013 17.3565 19.6777 17.4286C19.6436 17.5337 19.6273 17.6437 19.6296 17.754V17.9655C19.6261 18.0832 19.6464 18.2005 19.6893 18.3104C19.7259 18.3947 19.7829 18.469 19.8553 18.5268C19.9489 18.5976 20.0571 18.6475 20.1724 18.6733C20.3491 18.7143 20.5303 18.7335 20.7119 18.7302H22.1394C22.6289 18.7268 23.1172 18.777 23.5952 18.8799C24.0224 18.9717 24.4335 19.1247 24.8153 19.3339C25.5168 19.7152 26.0874 20.2916 26.4553 20.9902C26.6385 21.3401 26.7757 21.7113 26.8637 22.095C26.9552 22.4994 27.0009 22.9125 26.9998 23.3267V24.0264C27.0043 24.6455 26.9386 25.2633 26.8039 25.8682C26.6981 26.366 26.5019 26.841 26.2246 27.2707C25.973 27.6504 25.6523 27.9813 25.2784 28.247C24.8948 28.514 24.4668 28.7139 24.0135 28.8376L23.8923 28.8702C23.4599 29.0057 23.0152 29.1005 22.5644 29.1533V31H18.9374V29.163Z" fill="#0083CA"/>
</svg>
