<svg width="42" height="42" viewBox="0 0 42 42" fill="none" xmlns="http://www.w3.org/2000/svg">
<rect width="42" height="42" rx="21" fill="#EFEFEF"/>
<path d="M18 26.5H12.5M15.5 21H11M18 15.5H13M26 12L19.4036 21.235C19.1116 21.6438 18.9656 21.8481 18.9719 22.0185C18.9774 22.1669 19.0486 22.3051 19.1661 22.3958C19.3011 22.5 19.5522 22.5 20.0546 22.5H25L24 30L30.5964 20.765C30.8884 20.3562 31.0344 20.1519 31.0281 19.9815C31.0226 19.8331 30.9514 19.6949 30.8339 19.6042C30.6989 19.5 30.4478 19.5 29.9454 19.5H25L26 12Z" stroke="#0083CA" stroke-width="2" stroke-linecap="round" stroke-linejoin="round"/>
</svg>
