<svg width="427" height="126" viewBox="0 0 427 126" fill="none" xmlns="http://www.w3.org/2000/svg">
<path d="M43.4727 37.8203V43.3398H15.7695V37.8203H43.4727ZM16.8242 15.8125V67H10.0391V15.8125H16.8242ZM49.3789 15.8125V67H42.6289V15.8125H49.3789ZM76.2383 67.7031C73.5898 67.7031 71.1875 67.2578 69.0312 66.3672C66.8984 65.4531 65.0586 64.1758 63.5117 62.5352C61.9883 60.8945 60.8164 58.9492 59.9961 56.6992C59.1758 54.4492 58.7656 51.9883 58.7656 49.3164V47.8398C58.7656 44.7461 59.2227 41.9922 60.1367 39.5781C61.0508 37.1406 62.293 35.0781 63.8633 33.3906C65.4336 31.7031 67.2148 30.4258 69.207 29.5586C71.1992 28.6914 73.2617 28.2578 75.3945 28.2578C78.1133 28.2578 80.457 28.7266 82.4258 29.6641C84.418 30.6016 86.0469 31.9141 87.3125 33.6016C88.5781 35.2656 89.5156 37.2344 90.125 39.5078C90.7344 41.7578 91.0391 44.2188 91.0391 46.8906V49.8086H62.6328V44.5H84.5352V44.0078C84.4414 42.3203 84.0898 40.6797 83.4805 39.0859C82.8945 37.4922 81.957 36.1797 80.668 35.1484C79.3789 34.1172 77.6211 33.6016 75.3945 33.6016C73.918 33.6016 72.5586 33.918 71.3164 34.5508C70.0742 35.1602 69.0078 36.0742 68.1172 37.293C67.2266 38.5117 66.5352 40 66.043 41.7578C65.5508 43.5156 65.3047 45.543 65.3047 47.8398V49.3164C65.3047 51.1211 65.5508 52.8203 66.043 54.4141C66.5586 55.9844 67.2969 57.3672 68.2578 58.5625C69.2422 59.7578 70.4258 60.6953 71.8086 61.375C73.2148 62.0547 74.8086 62.3945 76.5898 62.3945C78.8867 62.3945 80.832 61.9258 82.4258 60.9883C84.0195 60.0508 85.4141 58.7969 86.6094 57.2266L90.5469 60.3555C89.7266 61.5977 88.6836 62.7812 87.418 63.9062C86.1523 65.0312 84.5938 65.9453 82.7422 66.6484C80.9141 67.3516 78.7461 67.7031 76.2383 67.7031ZM105.699 13V67H99.1602V13H105.699ZM122.645 36.2734V81.625H116.105V28.9609H122.082L122.645 36.2734ZM148.273 47.6641V48.4023C148.273 51.168 147.945 53.7344 147.289 56.1016C146.633 58.4453 145.672 60.4844 144.406 62.2188C143.164 63.9531 141.629 65.3008 139.801 66.2617C137.973 67.2227 135.875 67.7031 133.508 67.7031C131.094 67.7031 128.961 67.3047 127.109 66.5078C125.258 65.7109 123.688 64.5508 122.398 63.0273C121.109 61.5039 120.078 59.6758 119.305 57.543C118.555 55.4102 118.039 53.0078 117.758 50.3359V46.3984C118.039 43.5859 118.566 41.0664 119.34 38.8398C120.113 36.6133 121.133 34.7148 122.398 33.1445C123.688 31.5508 125.246 30.3437 127.074 29.5234C128.902 28.6797 131.012 28.2578 133.402 28.2578C135.793 28.2578 137.914 28.7266 139.766 29.6641C141.617 30.5781 143.176 31.8906 144.441 33.6016C145.707 35.3125 146.656 37.3633 147.289 39.7539C147.945 42.1211 148.273 44.7578 148.273 47.6641ZM141.734 48.4023V47.6641C141.734 45.7656 141.535 43.9844 141.137 42.3203C140.738 40.6328 140.117 39.1562 139.273 37.8906C138.453 36.6016 137.398 35.5938 136.109 34.8672C134.82 34.1172 133.285 33.7422 131.504 33.7422C129.863 33.7422 128.434 34.0234 127.215 34.5859C126.02 35.1484 125 35.9102 124.156 36.8711C123.312 37.8086 122.621 38.8867 122.082 40.1055C121.566 41.3008 121.18 42.543 120.922 43.832V52.9375C121.391 54.5781 122.047 56.125 122.891 57.5781C123.734 59.0078 124.859 60.168 126.266 61.0586C127.672 61.9258 129.441 62.3594 131.574 62.3594C133.332 62.3594 134.844 61.9961 136.109 61.2695C137.398 60.5195 138.453 59.5 139.273 58.2109C140.117 56.9219 140.738 55.4453 141.137 53.7812C141.535 52.0938 141.734 50.3008 141.734 48.4023ZM184.625 49.668H196.93C196.766 53.2305 195.805 56.3711 194.047 59.0898C192.289 61.8086 189.852 63.9297 186.734 65.4531C183.641 66.9531 179.984 67.7031 175.766 67.7031C172.344 67.7031 169.285 67.1289 166.59 65.9805C163.918 64.832 161.645 63.1797 159.77 61.0234C157.918 58.8672 156.5 56.2539 155.516 53.1836C154.555 50.1133 154.074 46.6562 154.074 42.8125V40.0352C154.074 36.1914 154.578 32.7344 155.586 29.6641C156.617 26.5703 158.07 23.9453 159.945 21.7891C161.844 19.6094 164.117 17.9453 166.766 16.7969C169.414 15.6484 172.355 15.0742 175.59 15.0742C180.043 15.0742 183.805 15.8711 186.875 17.4648C189.945 19.0586 192.324 21.25 194.012 24.0391C195.699 26.8047 196.695 29.957 197 33.4961H184.695C184.648 31.5742 184.32 29.9688 183.711 28.6797C183.102 27.3672 182.141 26.3828 180.828 25.7266C179.516 25.0703 177.77 24.7422 175.59 24.7422C174.066 24.7422 172.742 25.0234 171.617 25.5859C170.492 26.1484 169.555 27.0391 168.805 28.2578C168.055 29.4766 167.492 31.0586 167.117 33.0039C166.766 34.9258 166.59 37.2461 166.59 39.9648V42.8125C166.59 45.5312 166.754 47.8516 167.082 49.7734C167.41 51.6953 167.938 53.2656 168.664 54.4844C169.391 55.7031 170.328 56.6055 171.477 57.1914C172.648 57.7539 174.078 58.0352 175.766 58.0352C177.641 58.0352 179.223 57.7422 180.512 57.1562C181.801 56.5469 182.797 55.6328 183.5 54.4141C184.203 53.1719 184.578 51.5898 184.625 49.668ZM202.766 15.8125H222.91C226.848 15.8125 230.27 16.3984 233.176 17.5703C236.082 18.7422 238.32 20.4766 239.891 22.7734C241.484 25.0703 242.281 27.9062 242.281 31.2812C242.281 34.2109 241.824 36.6602 240.91 38.6289C239.996 40.5977 238.719 42.2266 237.078 43.5156C235.461 44.7812 233.574 45.8242 231.418 46.6445L227.375 48.9297H210.465L210.395 39.4023H222.91C224.48 39.4023 225.781 39.1211 226.812 38.5586C227.844 37.9961 228.617 37.1992 229.133 36.168C229.672 35.1133 229.941 33.8594 229.941 32.4062C229.941 30.9297 229.672 29.6641 229.133 28.6094C228.594 27.5547 227.797 26.7461 226.742 26.1836C225.711 25.6211 224.434 25.3398 222.91 25.3398H215.105V67H202.766V15.8125ZM230.785 67L219.465 44.3594L232.543 44.2891L244.004 66.4727V67H230.785ZM284.961 57.5078V67H257.68V57.5078H284.961ZM262.074 15.8125V67H249.734V15.8125H262.074ZM281.445 36.1328V45.3086H257.68V36.1328H281.445ZM285.066 15.8125V25.3398H257.68V15.8125H285.066ZM306.652 67H295.297L295.367 57.5078H306.652C308.996 57.5078 310.977 56.9453 312.594 55.8203C314.234 54.6953 315.477 53.0195 316.32 50.793C317.188 48.543 317.621 45.7773 317.621 42.4961V40.2812C317.621 37.8203 317.375 35.6641 316.883 33.8125C316.414 31.9375 315.711 30.3789 314.773 29.1367C313.836 27.8711 312.664 26.9219 311.258 26.2891C309.875 25.6562 308.281 25.3398 306.477 25.3398H295.086V15.8125H306.477C309.945 15.8125 313.121 16.4102 316.004 17.6055C318.91 18.7773 321.418 20.4648 323.527 22.668C325.66 24.8477 327.301 27.4375 328.449 30.4375C329.621 33.4141 330.207 36.7188 330.207 40.3516V42.4961C330.207 46.1055 329.621 49.4102 328.449 52.4102C327.301 55.4102 325.672 58 323.562 60.1797C321.453 62.3594 318.957 64.0469 316.074 65.2422C313.215 66.4141 310.074 67 306.652 67ZM302.363 15.8125V67H290.023V15.8125H302.363ZM349.754 15.8125V67H337.449V15.8125H349.754ZM382.168 15.8125V67H369.828V15.8125H382.168ZM397.566 15.8125V25.3398H354.781V15.8125H397.566Z" fill="white"/>
<path d="M25.3262 94.3203V94.8916C25.3262 95.8643 25.1914 96.7373 24.9219 97.5107C24.6582 98.2842 24.2803 98.9434 23.7881 99.4883C23.3018 100.033 22.7217 100.452 22.0479 100.745C21.3799 101.032 20.6387 101.176 19.8242 101.176C19.0098 101.176 18.2656 101.032 17.5918 100.745C16.918 100.452 16.332 100.033 15.834 99.4883C15.3418 98.9434 14.9609 98.2842 14.6914 97.5107C14.4219 96.7373 14.2871 95.8643 14.2871 94.8916V94.3203C14.2871 93.3477 14.4219 92.4746 14.6914 91.7012C14.9609 90.9219 15.3389 90.2598 15.8252 89.7148C16.3174 89.1699 16.9004 88.7539 17.5742 88.4668C18.248 88.1738 18.9922 88.0273 19.8066 88.0273C20.6211 88.0273 21.3652 88.1738 22.0391 88.4668C22.7129 88.7539 23.293 89.1699 23.7793 89.7148C24.2715 90.2598 24.6523 90.9219 24.9219 91.7012C25.1914 92.4746 25.3262 93.3477 25.3262 94.3203ZM22.4346 94.8916V94.3027C22.4346 93.6523 22.376 93.0781 22.2588 92.5801C22.1416 92.0762 21.9717 91.6543 21.749 91.3145C21.5264 90.9746 21.251 90.7197 20.9229 90.5498C20.5947 90.374 20.2227 90.2861 19.8066 90.2861C19.373 90.2861 18.9951 90.374 18.6729 90.5498C18.3506 90.7197 18.0781 90.9746 17.8555 91.3145C17.6387 91.6543 17.4717 92.0762 17.3545 92.5801C17.2432 93.0781 17.1875 93.6523 17.1875 94.3027V94.8916C17.1875 95.5361 17.2432 96.1104 17.3545 96.6143C17.4717 97.1123 17.6416 97.5342 17.8643 97.8799C18.0869 98.2256 18.3594 98.4863 18.6816 98.6621C19.0098 98.8379 19.3906 98.9258 19.8242 98.9258C20.2402 98.9258 20.6094 98.8379 20.9316 98.6621C21.2598 98.4863 21.5352 98.2256 21.7578 97.8799C21.9805 97.5342 22.1475 97.1123 22.2588 96.6143C22.376 96.1104 22.4346 95.5361 22.4346 94.8916ZM31.9971 89.3193H35.0205C35.7881 89.3193 36.4941 89.4453 37.1387 89.6973C37.7891 89.9492 38.3545 90.3096 38.835 90.7783C39.3154 91.2471 39.6875 91.8096 39.9512 92.4658C40.2148 93.1221 40.3467 93.8574 40.3467 94.6719C40.3467 95.4629 40.2148 96.1807 39.9512 96.8252C39.6875 97.4639 39.3154 98.0146 38.835 98.4775C38.3545 98.9346 37.7891 99.2861 37.1387 99.5322C36.4941 99.7725 35.7881 99.8926 35.0205 99.8926H31.9971C31.2236 99.8926 30.5117 99.7725 29.8613 99.5322C29.2109 99.2861 28.6426 98.9346 28.1562 98.4775C27.6758 98.0205 27.3037 97.4727 27.04 96.834C26.7764 96.1953 26.6445 95.4805 26.6445 94.6895C26.6445 93.875 26.7764 93.1396 27.04 92.4834C27.3037 91.8271 27.6758 91.2617 28.1562 90.7871C28.6426 90.3125 29.2109 89.9492 29.8613 89.6973C30.5117 89.4453 31.2236 89.3193 31.9971 89.3193ZM31.9971 91.6133C31.4814 91.6133 31.0215 91.7275 30.6172 91.9561C30.2188 92.1846 29.9053 92.5273 29.6768 92.9844C29.4541 93.4355 29.3428 94.0039 29.3428 94.6895C29.3428 95.1699 29.4072 95.5947 29.5361 95.9639C29.6709 96.3271 29.8584 96.6289 30.0986 96.8691C30.3447 97.1094 30.6289 97.291 30.9512 97.4141C31.2734 97.5371 31.6221 97.5986 31.9971 97.5986H35.0381C35.5479 97.5986 35.9961 97.4902 36.3828 97.2734C36.7754 97.0508 37.083 96.7197 37.3057 96.2803C37.5283 95.8408 37.6396 95.3047 37.6396 94.6719C37.6396 94.1621 37.5752 93.7168 37.4463 93.3359C37.3174 92.9551 37.1357 92.6387 36.9014 92.3867C36.6729 92.1289 36.4004 91.9355 36.084 91.8066C35.7676 91.6777 35.4189 91.6133 35.0381 91.6133H31.9971ZM34.8799 87.6758V101.527H32.1377V87.6758H34.8799ZM52.6426 94.3203V94.8916C52.6426 95.8643 52.5078 96.7373 52.2383 97.5107C51.9746 98.2842 51.5967 98.9434 51.1045 99.4883C50.6182 100.033 50.0381 100.452 49.3643 100.745C48.6963 101.032 47.9551 101.176 47.1406 101.176C46.3262 101.176 45.582 101.032 44.9082 100.745C44.2344 100.452 43.6484 100.033 43.1504 99.4883C42.6582 98.9434 42.2773 98.2842 42.0078 97.5107C41.7383 96.7373 41.6035 95.8643 41.6035 94.8916V94.3203C41.6035 93.3477 41.7383 92.4746 42.0078 91.7012C42.2773 90.9219 42.6553 90.2598 43.1416 89.7148C43.6338 89.1699 44.2168 88.7539 44.8906 88.4668C45.5645 88.1738 46.3086 88.0273 47.123 88.0273C47.9375 88.0273 48.6816 88.1738 49.3555 88.4668C50.0293 88.7539 50.6094 89.1699 51.0957 89.7148C51.5879 90.2598 51.9688 90.9219 52.2383 91.7012C52.5078 92.4746 52.6426 93.3477 52.6426 94.3203ZM49.751 94.8916V94.3027C49.751 93.6523 49.6924 93.0781 49.5752 92.5801C49.458 92.0762 49.2881 91.6543 49.0654 91.3145C48.8428 90.9746 48.5674 90.7197 48.2393 90.5498C47.9111 90.374 47.5391 90.2861 47.123 90.2861C46.6895 90.2861 46.3115 90.374 45.9893 90.5498C45.667 90.7197 45.3945 90.9746 45.1719 91.3145C44.9551 91.6543 44.7881 92.0762 44.6709 92.5801C44.5596 93.0781 44.5039 93.6523 44.5039 94.3027V94.8916C44.5039 95.5361 44.5596 96.1104 44.6709 96.6143C44.7881 97.1123 44.958 97.5342 45.1807 97.8799C45.4033 98.2256 45.6758 98.4863 45.998 98.6621C46.3262 98.8379 46.707 98.9258 47.1406 98.9258C47.5566 98.9258 47.9258 98.8379 48.248 98.6621C48.5762 98.4863 48.8516 98.2256 49.0742 97.8799C49.2969 97.5342 49.4639 97.1123 49.5752 96.6143C49.6924 96.1104 49.751 95.5361 49.751 94.8916ZM59.4453 96.5527H56.2285V94.3291H59.4453C59.9199 94.3291 60.3008 94.25 60.5879 94.0918C60.8809 93.9336 61.0947 93.7168 61.2295 93.4414C61.3701 93.1602 61.4404 92.8438 61.4404 92.4922C61.4404 92.1289 61.3701 91.792 61.2295 91.4814C61.0947 91.165 60.8809 90.9102 60.5879 90.7168C60.3008 90.5234 59.9199 90.4268 59.4453 90.4268H57.2656V101H54.4004V88.2031H59.4453C60.4648 88.2031 61.3379 88.3877 62.0645 88.7568C62.7969 89.126 63.3564 89.6328 63.7432 90.2773C64.1357 90.916 64.332 91.6484 64.332 92.4746C64.332 93.3008 64.1357 94.0186 63.7432 94.6279C63.3564 95.2373 62.7969 95.7119 62.0645 96.0518C61.3379 96.3857 60.4648 96.5527 59.4453 96.5527ZM67.4434 88.2031H69.8164L72.8926 97.3525L75.96 88.2031H78.333L73.8506 101H71.9258L67.4434 88.2031ZM66.0723 88.2031H68.4893L68.9375 97.6865V101H66.0723V88.2031ZM77.2871 88.2031H79.7129V101H76.8389V97.6865L77.2871 88.2031ZM84.5645 96.5703L89.4424 88.2031H92.2988V101H89.4424V92.6416L84.5645 101H81.708V88.2031H84.5645V96.5703ZM103.848 94.874H101.756V93.3975H103.355C103.783 93.3975 104.126 93.3301 104.384 93.1953C104.647 93.0605 104.838 92.8672 104.955 92.6152C105.078 92.3633 105.14 92.0703 105.14 91.7363C105.14 91.4668 105.069 91.2207 104.929 90.998C104.794 90.7695 104.586 90.5879 104.305 90.4531C104.023 90.3184 103.663 90.251 103.224 90.251C102.884 90.251 102.576 90.3066 102.301 90.418C102.025 90.5293 101.809 90.6934 101.65 90.9102C101.492 91.1211 101.413 91.3789 101.413 91.6836H98.5566C98.5566 91.1094 98.6797 90.5996 98.9258 90.1543C99.1777 89.7031 99.5176 89.3223 99.9453 89.0117C100.379 88.6953 100.877 88.4551 101.439 88.291C102.002 88.1211 102.597 88.0361 103.224 88.0361C103.944 88.0361 104.598 88.1152 105.184 88.2734C105.77 88.4258 106.273 88.6543 106.695 88.959C107.117 89.2637 107.439 89.6445 107.662 90.1016C107.891 90.5527 108.005 91.0771 108.005 91.6748C108.005 92.1143 107.905 92.5273 107.706 92.9141C107.513 93.3008 107.231 93.6406 106.862 93.9336C106.499 94.2266 106.06 94.458 105.544 94.6279C105.034 94.792 104.469 94.874 103.848 94.874ZM101.756 94.0918H103.848C104.539 94.0918 105.154 94.165 105.693 94.3115C106.232 94.458 106.687 94.6719 107.056 94.9531C107.431 95.2344 107.715 95.583 107.908 95.999C108.107 96.4092 108.207 96.8809 108.207 97.4141C108.207 98.0117 108.084 98.5449 107.838 99.0137C107.592 99.4766 107.243 99.8691 106.792 100.191C106.347 100.514 105.819 100.757 105.21 100.921C104.606 101.085 103.944 101.167 103.224 101.167C102.638 101.167 102.055 101.097 101.475 100.956C100.9 100.81 100.379 100.587 99.9102 100.288C99.4473 99.9893 99.0752 99.6055 98.7939 99.1367C98.5127 98.668 98.3721 98.1055 98.3721 97.4492H101.237C101.237 97.7363 101.322 97.9941 101.492 98.2227C101.662 98.4512 101.896 98.6328 102.195 98.7676C102.494 98.8965 102.837 98.9609 103.224 98.9609C103.669 98.9609 104.05 98.8906 104.366 98.75C104.683 98.6094 104.923 98.4189 105.087 98.1787C105.251 97.9326 105.333 97.6602 105.333 97.3613C105.333 97.0332 105.292 96.7549 105.21 96.5264C105.128 96.292 105.002 96.1045 104.832 95.9639C104.668 95.8174 104.46 95.7119 104.208 95.6475C103.962 95.5771 103.678 95.542 103.355 95.542H101.756V94.0918ZM115.405 90.6377L112.101 101H109.042L113.779 88.2031H115.713L115.405 90.6377ZM118.147 101L114.834 90.6377L114.491 88.2031H116.451L121.206 101H118.147ZM118.007 96.2363V98.4512H111.336V96.2363H118.007ZM129.002 96.4297H125.557L124.66 96.0605C123.635 95.7383 122.853 95.2578 122.313 94.6191C121.774 93.9746 121.505 93.1572 121.505 92.167C121.505 91.2939 121.698 90.5645 122.085 89.9785C122.478 89.3926 123.031 88.9502 123.746 88.6514C124.461 88.3525 125.308 88.2031 126.286 88.2031H130.839V101H127.965V90.4268H126.286C125.618 90.4268 125.129 90.5967 124.818 90.9365C124.514 91.2764 124.361 91.7627 124.361 92.3955C124.361 92.8643 124.432 93.2451 124.572 93.5381C124.719 93.8252 124.933 94.0361 125.214 94.1709C125.501 94.2998 125.855 94.3643 126.277 94.3643H128.993L129.002 96.4297ZM126.55 95.3223L123.772 101H120.661L123.43 95.3223H126.55ZM137.879 95.4717H134.592L134.574 93.5557H137.29C137.771 93.5557 138.16 93.4971 138.459 93.3799C138.764 93.2627 138.986 93.0928 139.127 92.8701C139.268 92.6416 139.338 92.3604 139.338 92.0264C139.338 91.6455 139.268 91.3379 139.127 91.1035C138.986 90.8691 138.764 90.6992 138.459 90.5938C138.16 90.4824 137.773 90.4268 137.299 90.4268H135.629V101H132.764V88.2031H137.299C138.066 88.2031 138.752 88.2734 139.355 88.4141C139.959 88.5547 140.472 88.7715 140.894 89.0645C141.321 89.3574 141.646 89.7236 141.869 90.1631C142.092 90.6025 142.203 91.1211 142.203 91.7188C142.203 92.2402 142.086 92.7266 141.852 93.1777C141.623 93.6289 141.254 93.9951 140.744 94.2764C140.234 94.5576 139.552 94.71 138.696 94.7334L137.879 95.4717ZM137.765 101H133.862L134.899 98.7852H137.765C138.204 98.7852 138.562 98.7148 138.837 98.5742C139.112 98.4336 139.314 98.2432 139.443 98.0029C139.572 97.7627 139.637 97.4932 139.637 97.1943C139.637 96.8428 139.575 96.5381 139.452 96.2803C139.335 96.0225 139.147 95.8232 138.89 95.6826C138.638 95.542 138.301 95.4717 137.879 95.4717H135.312L135.33 93.5557H138.468L139.136 94.3115C139.95 94.2939 140.601 94.4258 141.087 94.707C141.579 94.9824 141.934 95.3457 142.15 95.7969C142.367 96.248 142.476 96.7256 142.476 97.2295C142.476 98.0615 142.297 98.7588 141.939 99.3213C141.582 99.8779 141.052 100.297 140.349 100.578C139.651 100.859 138.79 101 137.765 101ZM147.187 88.2031V101H144.33V88.2031H147.187ZM154.648 88.2031L149.894 95.8232H146.624L146.272 93.2656H148.399L151.186 88.2031H154.648ZM151.687 101L148.399 95.3398L150.43 93.3711L155.079 101H151.687ZM160.01 96.2715L163.086 88.2031H166.136L161.785 98.4336C161.627 98.7969 161.445 99.1455 161.24 99.4795C161.035 99.8076 160.792 100.101 160.511 100.358C160.235 100.61 159.904 100.812 159.518 100.965C159.137 101.111 158.686 101.185 158.164 101.185C158.029 101.185 157.868 101.182 157.681 101.176C157.499 101.17 157.347 101.164 157.224 101.158L157.188 98.9346C157.265 98.9521 157.373 98.9639 157.514 98.9697C157.66 98.9697 157.763 98.9697 157.821 98.9697C158.173 98.9697 158.448 98.9229 158.647 98.8291C158.853 98.7354 159.014 98.6006 159.131 98.4248C159.254 98.249 159.362 98.0293 159.456 97.7656L160.01 96.2715ZM158.103 88.2031L160.88 94.1445L161.785 97.3789L159.702 97.3965L155.053 88.2031H158.103ZM180.427 93.3535V95.5684H173.8V93.3535H180.427ZM174.705 88.2031V101H171.84V88.2031H174.705ZM182.404 88.2031V101H179.548V88.2031H182.404ZM190.007 90.6377L186.702 101H183.644L188.381 88.2031H190.314L190.007 90.6377ZM192.749 101L189.436 90.6377L189.093 88.2031H191.053L195.808 101H192.749ZM192.608 96.2363V98.4512H185.938V96.2363H192.608ZM204.21 88.2031V101H201.354V88.2031H204.21ZM211.672 88.2031L206.917 95.8232H203.647L203.296 93.2656H205.423L208.209 88.2031H211.672ZM208.71 101L205.423 95.3398L207.453 93.3711L212.103 101H208.71ZM218.035 96.5527H214.818V94.3291H218.035C218.51 94.3291 218.891 94.25 219.178 94.0918C219.471 93.9336 219.685 93.7168 219.819 93.4414C219.96 93.1602 220.03 92.8438 220.03 92.4922C220.03 92.1289 219.96 91.792 219.819 91.4814C219.685 91.165 219.471 90.9102 219.178 90.7168C218.891 90.5234 218.51 90.4268 218.035 90.4268H215.855V101H212.99V88.2031H218.035C219.055 88.2031 219.928 88.3877 220.654 88.7568C221.387 89.126 221.946 89.6328 222.333 90.2773C222.726 90.916 222.922 91.6484 222.922 92.4746C222.922 93.3008 222.726 94.0186 222.333 94.6279C221.946 95.2373 221.387 95.7119 220.654 96.0518C219.928 96.3857 219.055 96.5527 218.035 96.5527ZM233.363 98.7852V101H226.552V98.7852H233.363ZM227.527 88.2031V101H224.662V88.2031H227.527ZM232.484 93.3535V95.498H226.552V93.3535H232.484ZM233.372 88.2031V90.4268H226.552V88.2031H233.372ZM244.947 98.7852V101H235.842V98.7852H244.947ZM236.738 98.7852V104.138H234.075L233.899 98.7852H236.738ZM246.942 98.7852L246.67 104.146H244.077V98.7852H246.942ZM243.55 88.2031V90.4268H237.257V88.2031H243.55ZM245.527 88.2031V101H242.68V88.2031H245.527ZM236.993 88.2031H239.85L239.489 93.4326C239.431 94.3115 239.331 95.082 239.19 95.7441C239.056 96.4004 238.895 96.9746 238.707 97.4668C238.52 97.959 238.312 98.3838 238.083 98.7412C237.86 99.0986 237.623 99.4121 237.371 99.6816C237.125 99.9453 236.879 100.183 236.633 100.394C236.387 100.599 236.146 100.801 235.912 101H234.216V98.7852H234.822C234.998 98.6504 235.177 98.4658 235.358 98.2314C235.546 97.9971 235.725 97.6807 235.895 97.2822C236.064 96.8838 236.214 96.3711 236.343 95.7441C236.472 95.1172 236.565 94.3467 236.624 93.4326L236.993 88.2031ZM250.889 96.5703L255.767 88.2031H258.623V101H255.767V92.6416L250.889 101H248.032V88.2031H250.889V96.5703ZM266.393 88.2031V101H263.536V88.2031H266.393ZM270.286 88.2031V90.4268H259.722V88.2031H270.286ZM280.807 95.4717H277.52L277.502 93.5557H280.218C280.698 93.5557 281.088 93.4971 281.387 93.3799C281.691 93.2627 281.914 93.0928 282.055 92.8701C282.195 92.6416 282.266 92.3604 282.266 92.0264C282.266 91.6455 282.195 91.3379 282.055 91.1035C281.914 90.8691 281.691 90.6992 281.387 90.5938C281.088 90.4824 280.701 90.4268 280.227 90.4268H278.557V101H275.691V88.2031H280.227C280.994 88.2031 281.68 88.2734 282.283 88.4141C282.887 88.5547 283.399 88.7715 283.821 89.0645C284.249 89.3574 284.574 89.7236 284.797 90.1631C285.02 90.6025 285.131 91.1211 285.131 91.7188C285.131 92.2402 285.014 92.7266 284.779 93.1777C284.551 93.6289 284.182 93.9951 283.672 94.2764C283.162 94.5576 282.479 94.71 281.624 94.7334L280.807 95.4717ZM280.692 101H276.79L277.827 98.7852H280.692C281.132 98.7852 281.489 98.7148 281.765 98.5742C282.04 98.4336 282.242 98.2432 282.371 98.0029C282.5 97.7627 282.564 97.4932 282.564 97.1943C282.564 96.8428 282.503 96.5381 282.38 96.2803C282.263 96.0225 282.075 95.8232 281.817 95.6826C281.565 95.542 281.229 95.4717 280.807 95.4717H278.24L278.258 93.5557H281.396L282.063 94.3115C282.878 94.2939 283.528 94.4258 284.015 94.707C284.507 94.9824 284.861 95.3457 285.078 95.7969C285.295 96.248 285.403 96.7256 285.403 97.2295C285.403 98.0615 285.225 98.7588 284.867 99.3213C284.51 99.8779 283.979 100.297 283.276 100.578C282.579 100.859 281.718 101 280.692 101ZM302.331 88.2031V101H299.466V90.4268H294.597V101H291.74V88.2031H302.331ZM311.182 96.4297H307.736L306.84 96.0605C305.814 95.7383 305.032 95.2578 304.493 94.6191C303.954 93.9746 303.685 93.1572 303.685 92.167C303.685 91.2939 303.878 90.5645 304.265 89.9785C304.657 89.3926 305.211 88.9502 305.926 88.6514C306.641 88.3525 307.487 88.2031 308.466 88.2031H313.019V101H310.145V90.4268H308.466C307.798 90.4268 307.309 90.5967 306.998 90.9365C306.693 91.2764 306.541 91.7627 306.541 92.3955C306.541 92.8643 306.611 93.2451 306.752 93.5381C306.898 93.8252 307.112 94.0361 307.394 94.1709C307.681 94.2998 308.035 94.3643 308.457 94.3643H311.173L311.182 96.4297ZM308.729 95.3223L305.952 101H302.841L305.609 95.3223H308.729ZM320.709 88.2031V101H317.853V88.2031H320.709ZM324.603 88.2031V90.4268H314.038V88.2031H324.603ZM328.742 96.5703L333.62 88.2031H336.477V101H333.62V92.6416L328.742 101H325.886V88.2031H328.742V96.5703ZM351.541 88.2031V90.4268H345.881V101H343.024V88.2031H351.541ZM344.861 92.7383H347.727C348.746 92.7383 349.631 92.9082 350.381 93.248C351.131 93.5879 351.708 94.0654 352.112 94.6807C352.517 95.29 352.719 96.0049 352.719 96.8252C352.719 97.4404 352.602 98.0029 352.367 98.5127C352.139 99.0225 351.805 99.4648 351.365 99.8398C350.932 100.209 350.407 100.496 349.792 100.701C349.183 100.9 348.494 101 347.727 101H343.033V88.2031H345.907V98.7852H347.727C348.195 98.7852 348.588 98.6973 348.904 98.5215C349.221 98.3398 349.458 98.0996 349.616 97.8008C349.78 97.502 349.862 97.1709 349.862 96.8076C349.862 96.4502 349.78 96.1338 349.616 95.8584C349.458 95.5771 349.221 95.3574 348.904 95.1992C348.588 95.0352 348.195 94.9531 347.727 94.9531H344.861V92.7383ZM359.618 90.6377L356.313 101H353.255L357.992 88.2031H359.926L359.618 90.6377ZM362.36 101L359.047 90.6377L358.704 88.2031H360.664L365.419 101H362.36ZM362.22 96.2363V98.4512H355.549V96.2363H362.22ZM375.069 93.3535V95.5684H368.442V93.3535H375.069ZM369.348 88.2031V101H366.482V88.2031H369.348ZM377.047 88.2031V101H374.19V88.2031H377.047ZM382.03 88.2031V101H379.174V88.2031H382.03ZM389.492 88.2031L384.737 95.8232H381.468L381.116 93.2656H383.243L386.029 88.2031H389.492ZM386.53 101L383.243 95.3398L385.273 93.3711L389.923 101H386.53ZM396.128 90.6377L392.823 101H389.765L394.502 88.2031H396.436L396.128 90.6377ZM398.87 101L395.557 90.6377L395.214 88.2031H397.174L401.929 101H398.87ZM398.729 96.2363V98.4512H392.059V96.2363H398.729ZM405.418 88.2031L407.668 92.5625L409.918 88.2031H413.188L409.549 94.5488L413.284 101H409.988L407.668 96.5615L405.356 101H402.052L405.796 94.5488L402.148 88.2031H405.418ZM14.3398 114.354V116.568H7.71289V114.354H14.3398ZM8.61816 109.203V122H5.75293V109.203H8.61816ZM16.3174 109.203V122H13.4609V109.203H16.3174ZM23.9199 111.638L20.6152 122H17.5566L22.2939 109.203H24.2275L23.9199 111.638ZM26.6621 122L23.3486 111.638L23.0059 109.203H24.9658L29.7207 122H26.6621ZM26.5215 117.236V119.451H19.8506V117.236H26.5215ZM45.9365 115.32V115.892C45.9365 116.864 45.8018 117.737 45.5322 118.511C45.2686 119.284 44.8906 119.943 44.3984 120.488C43.9121 121.033 43.332 121.452 42.6582 121.745C41.9902 122.032 41.249 122.176 40.4346 122.176C39.6201 122.176 38.876 122.032 38.2021 121.745C37.5283 121.452 36.9424 121.033 36.4443 120.488C35.9521 119.943 35.5713 119.284 35.3018 118.511C35.0322 117.737 34.8975 116.864 34.8975 115.892V115.32C34.8975 114.348 35.0322 113.475 35.3018 112.701C35.5713 111.922 35.9492 111.26 36.4355 110.715C36.9277 110.17 37.5107 109.754 38.1846 109.467C38.8584 109.174 39.6025 109.027 40.417 109.027C41.2314 109.027 41.9756 109.174 42.6494 109.467C43.3232 109.754 43.9033 110.17 44.3896 110.715C44.8818 111.26 45.2627 111.922 45.5322 112.701C45.8018 113.475 45.9365 114.348 45.9365 115.32ZM43.0449 115.892V115.303C43.0449 114.652 42.9863 114.078 42.8691 113.58C42.752 113.076 42.582 112.654 42.3594 112.314C42.1367 111.975 41.8613 111.72 41.5332 111.55C41.2051 111.374 40.833 111.286 40.417 111.286C39.9834 111.286 39.6055 111.374 39.2832 111.55C38.9609 111.72 38.6885 111.975 38.4658 112.314C38.249 112.654 38.082 113.076 37.9648 113.58C37.8535 114.078 37.7979 114.652 37.7979 115.303V115.892C37.7979 116.536 37.8535 117.11 37.9648 117.614C38.082 118.112 38.252 118.534 38.4746 118.88C38.6973 119.226 38.9697 119.486 39.292 119.662C39.6201 119.838 40.001 119.926 40.4346 119.926C40.8506 119.926 41.2197 119.838 41.542 119.662C41.8701 119.486 42.1455 119.226 42.3682 118.88C42.5908 118.534 42.7578 118.112 42.8691 117.614C42.9863 117.11 43.0449 116.536 43.0449 115.892ZM57.5732 119.785V122H48.4678V119.785H57.5732ZM49.3643 119.785V125.138H46.7012L46.5254 119.785H49.3643ZM59.5684 119.785L59.2959 125.146H56.7031V119.785H59.5684ZM56.1758 109.203V111.427H49.8828V109.203H56.1758ZM58.1533 109.203V122H55.3057V109.203H58.1533ZM49.6191 109.203H52.4756L52.1152 114.433C52.0566 115.312 51.957 116.082 51.8164 116.744C51.6816 117.4 51.5205 117.975 51.333 118.467C51.1455 118.959 50.9375 119.384 50.709 119.741C50.4863 120.099 50.249 120.412 49.9971 120.682C49.751 120.945 49.5049 121.183 49.2588 121.394C49.0127 121.599 48.7725 121.801 48.5381 122H46.8418V119.785H47.4482C47.624 119.65 47.8027 119.466 47.9844 119.231C48.1719 118.997 48.3506 118.681 48.5205 118.282C48.6904 117.884 48.8398 117.371 48.9688 116.744C49.0977 116.117 49.1914 115.347 49.25 114.433L49.6191 109.203ZM69.377 114.354V116.568H62.75V114.354H69.377ZM63.6553 109.203V122H60.79V109.203H63.6553ZM71.3545 109.203V122H68.498V109.203H71.3545ZM84.1514 115.32V115.892C84.1514 116.864 84.0166 117.737 83.7471 118.511C83.4834 119.284 83.1055 119.943 82.6133 120.488C82.127 121.033 81.5469 121.452 80.873 121.745C80.2051 122.032 79.4639 122.176 78.6494 122.176C77.835 122.176 77.0908 122.032 76.417 121.745C75.7432 121.452 75.1572 121.033 74.6592 120.488C74.167 119.943 73.7861 119.284 73.5166 118.511C73.2471 117.737 73.1123 116.864 73.1123 115.892V115.32C73.1123 114.348 73.2471 113.475 73.5166 112.701C73.7861 111.922 74.1641 111.26 74.6504 110.715C75.1426 110.17 75.7256 109.754 76.3994 109.467C77.0732 109.174 77.8174 109.027 78.6318 109.027C79.4463 109.027 80.1904 109.174 80.8643 109.467C81.5381 109.754 82.1182 110.17 82.6045 110.715C83.0967 111.26 83.4775 111.922 83.7471 112.701C84.0166 113.475 84.1514 114.348 84.1514 115.32ZM81.2598 115.892V115.303C81.2598 114.652 81.2012 114.078 81.084 113.58C80.9668 113.076 80.7969 112.654 80.5742 112.314C80.3516 111.975 80.0762 111.72 79.748 111.55C79.4199 111.374 79.0479 111.286 78.6318 111.286C78.1982 111.286 77.8203 111.374 77.498 111.55C77.1758 111.72 76.9033 111.975 76.6807 112.314C76.4639 112.654 76.2969 113.076 76.1797 113.58C76.0684 114.078 76.0127 114.652 76.0127 115.303V115.892C76.0127 116.536 76.0684 117.11 76.1797 117.614C76.2969 118.112 76.4668 118.534 76.6895 118.88C76.9121 119.226 77.1846 119.486 77.5068 119.662C77.835 119.838 78.2158 119.926 78.6494 119.926C79.0654 119.926 79.4346 119.838 79.7568 119.662C80.085 119.486 80.3604 119.226 80.583 118.88C80.8057 118.534 80.9727 118.112 81.084 117.614C81.2012 117.11 81.2598 116.536 81.2598 115.892ZM87.2803 109.203H89.6533L92.7295 118.353L95.7969 109.203H98.1699L93.6875 122H91.7627L87.2803 109.203ZM85.9092 109.203H88.3262L88.7744 118.687V122H85.9092V109.203ZM97.124 109.203H99.5498V122H96.6758V118.687L97.124 109.203ZM113.516 117.711H116.363C116.316 118.59 116.076 119.366 115.643 120.04C115.215 120.708 114.62 121.232 113.858 121.613C113.097 121.988 112.191 122.176 111.143 122.176C110.305 122.176 109.555 122.032 108.893 121.745C108.23 121.458 107.668 121.048 107.205 120.515C106.748 119.976 106.396 119.328 106.15 118.572C105.91 117.811 105.79 116.952 105.79 115.997V115.215C105.79 114.26 105.916 113.401 106.168 112.64C106.42 111.878 106.78 111.228 107.249 110.688C107.718 110.149 108.28 109.736 108.937 109.449C109.593 109.162 110.325 109.019 111.134 109.019C112.224 109.019 113.144 109.215 113.894 109.607C114.644 110 115.224 110.539 115.634 111.225C116.05 111.91 116.299 112.692 116.381 113.571H113.524C113.501 113.073 113.407 112.654 113.243 112.314C113.079 111.969 112.827 111.708 112.487 111.532C112.147 111.356 111.696 111.269 111.134 111.269C110.724 111.269 110.363 111.345 110.053 111.497C109.748 111.649 109.493 111.887 109.288 112.209C109.089 112.531 108.939 112.941 108.84 113.439C108.74 113.932 108.69 114.518 108.69 115.197V115.997C108.69 116.671 108.734 117.254 108.822 117.746C108.91 118.238 109.051 118.646 109.244 118.968C109.443 119.29 109.698 119.53 110.009 119.688C110.319 119.847 110.697 119.926 111.143 119.926C111.652 119.926 112.077 119.847 112.417 119.688C112.757 119.524 113.018 119.278 113.199 118.95C113.381 118.622 113.486 118.209 113.516 117.711ZM123.271 111.638L119.967 122H116.908L121.646 109.203H123.579L123.271 111.638ZM126.014 122L122.7 111.638L122.357 109.203H124.317L129.072 122H126.014ZM125.873 117.236V119.451H119.202V117.236H125.873ZM132.86 117.57L137.738 109.203H140.595V122H137.738V113.642L132.86 122H130.004V109.203H132.86V117.57ZM136.561 105.802H138.477C138.477 106.317 138.348 106.774 138.09 107.173C137.832 107.571 137.466 107.882 136.991 108.104C136.522 108.327 135.966 108.438 135.321 108.438C134.354 108.438 133.587 108.195 133.019 107.709C132.45 107.217 132.166 106.581 132.166 105.802H134.073C134.073 106.101 134.167 106.367 134.354 106.602C134.548 106.83 134.87 106.944 135.321 106.944C135.778 106.944 136.098 106.83 136.279 106.602C136.467 106.367 136.561 106.101 136.561 105.802ZM148.628 109.203V122H145.771V109.203H148.628ZM152.521 109.203V111.427H141.957V109.203H152.521ZM162.638 119.785V122H155.826V119.785H162.638ZM156.802 109.203V122H153.937V109.203H156.802ZM161.759 114.354V116.498H155.826V114.354H161.759ZM162.646 109.203V111.427H155.826V109.203H162.646ZM171.251 117.57L176.129 109.203H178.985V122H176.129V113.642L171.251 122H168.395V109.203H171.251V117.57ZM196.133 109.203V122H193.268V111.427H188.398V122H185.542V109.203H196.133ZM208.921 115.32V115.892C208.921 116.864 208.786 117.737 208.517 118.511C208.253 119.284 207.875 119.943 207.383 120.488C206.896 121.033 206.316 121.452 205.643 121.745C204.975 122.032 204.233 122.176 203.419 122.176C202.604 122.176 201.86 122.032 201.187 121.745C200.513 121.452 199.927 121.033 199.429 120.488C198.937 119.943 198.556 119.284 198.286 118.511C198.017 117.737 197.882 116.864 197.882 115.892V115.32C197.882 114.348 198.017 113.475 198.286 112.701C198.556 111.922 198.934 111.26 199.42 110.715C199.912 110.17 200.495 109.754 201.169 109.467C201.843 109.174 202.587 109.027 203.401 109.027C204.216 109.027 204.96 109.174 205.634 109.467C206.308 109.754 206.888 110.17 207.374 110.715C207.866 111.26 208.247 111.922 208.517 112.701C208.786 113.475 208.921 114.348 208.921 115.32ZM206.029 115.892V115.303C206.029 114.652 205.971 114.078 205.854 113.58C205.736 113.076 205.566 112.654 205.344 112.314C205.121 111.975 204.846 111.72 204.518 111.55C204.189 111.374 203.817 111.286 203.401 111.286C202.968 111.286 202.59 111.374 202.268 111.55C201.945 111.72 201.673 111.975 201.45 112.314C201.233 112.654 201.066 113.076 200.949 113.58C200.838 114.078 200.782 114.652 200.782 115.303V115.892C200.782 116.536 200.838 117.11 200.949 117.614C201.066 118.112 201.236 118.534 201.459 118.88C201.682 119.226 201.954 119.486 202.276 119.662C202.604 119.838 202.985 119.926 203.419 119.926C203.835 119.926 204.204 119.838 204.526 119.662C204.854 119.486 205.13 119.226 205.353 118.88C205.575 118.534 205.742 118.112 205.854 117.614C205.971 117.11 206.029 116.536 206.029 115.892ZM219.011 109.203V111.427H212.524V109.203H219.011ZM220.997 109.203V122H218.132V109.203H220.997ZM212.252 109.203H215.1L214.774 115.672C214.722 116.639 214.625 117.479 214.484 118.194C214.35 118.903 214.162 119.504 213.922 119.996C213.688 120.482 213.403 120.875 213.069 121.174C212.735 121.467 212.346 121.678 211.9 121.807C211.455 121.936 210.948 122 210.38 122H209.686V119.785L210.02 119.75C210.301 119.727 210.544 119.653 210.749 119.53C210.96 119.407 211.142 119.226 211.294 118.985C211.446 118.739 211.572 118.426 211.672 118.045C211.777 117.664 211.859 117.201 211.918 116.656C211.982 116.111 212.026 115.473 212.05 114.74L212.252 109.203ZM227.149 117.271L230.226 109.203H233.275L228.925 119.434C228.767 119.797 228.585 120.146 228.38 120.479C228.175 120.808 227.932 121.101 227.65 121.358C227.375 121.61 227.044 121.812 226.657 121.965C226.276 122.111 225.825 122.185 225.304 122.185C225.169 122.185 225.008 122.182 224.82 122.176C224.639 122.17 224.486 122.164 224.363 122.158L224.328 119.935C224.404 119.952 224.513 119.964 224.653 119.97C224.8 119.97 224.902 119.97 224.961 119.97C225.312 119.97 225.588 119.923 225.787 119.829C225.992 119.735 226.153 119.601 226.271 119.425C226.394 119.249 226.502 119.029 226.596 118.766L227.149 117.271ZM225.242 109.203L228.02 115.145L228.925 118.379L226.842 118.396L222.192 109.203H225.242ZM234.646 109.203H237.503V113.114C237.503 113.653 237.588 114.075 237.758 114.38C237.934 114.679 238.191 114.89 238.531 115.013C238.877 115.136 239.305 115.197 239.814 115.197C239.979 115.197 240.189 115.188 240.447 115.171C240.705 115.153 240.975 115.13 241.256 115.101C241.543 115.065 241.81 115.027 242.056 114.986C242.308 114.939 242.507 114.887 242.653 114.828V117.043C242.507 117.096 242.305 117.146 242.047 117.192C241.789 117.239 241.517 117.28 241.229 117.315C240.948 117.345 240.679 117.368 240.421 117.386C240.169 117.403 239.967 117.412 239.814 117.412C238.771 117.412 237.86 117.26 237.081 116.955C236.308 116.65 235.707 116.182 235.279 115.549C234.857 114.916 234.646 114.104 234.646 113.114V109.203ZM242.082 109.203H244.938V122H242.082V109.203ZM249.755 117.57L254.633 109.203H257.489V122H254.633V113.642L249.755 122H246.898V109.203H249.755V117.57ZM272.659 109.203V111.427H266.173V109.203H272.659ZM274.646 109.203V122H271.78V109.203H274.646ZM265.9 109.203H268.748L268.423 115.672C268.37 116.639 268.273 117.479 268.133 118.194C267.998 118.903 267.811 119.504 267.57 119.996C267.336 120.482 267.052 120.875 266.718 121.174C266.384 121.467 265.994 121.678 265.549 121.807C265.104 121.936 264.597 122 264.028 122H263.334V119.785L263.668 119.75C263.949 119.727 264.192 119.653 264.397 119.53C264.608 119.407 264.79 119.226 264.942 118.985C265.095 118.739 265.221 118.426 265.32 118.045C265.426 117.664 265.508 117.201 265.566 116.656C265.631 116.111 265.675 115.473 265.698 114.74L265.9 109.203ZM280.798 117.271L283.874 109.203H286.924L282.573 119.434C282.415 119.797 282.233 120.146 282.028 120.479C281.823 120.808 281.58 121.101 281.299 121.358C281.023 121.61 280.692 121.812 280.306 121.965C279.925 122.111 279.474 122.185 278.952 122.185C278.817 122.185 278.656 122.182 278.469 122.176C278.287 122.17 278.135 122.164 278.012 122.158L277.977 119.935C278.053 119.952 278.161 119.964 278.302 119.97C278.448 119.97 278.551 119.97 278.609 119.97C278.961 119.97 279.236 119.923 279.436 119.829C279.641 119.735 279.802 119.601 279.919 119.425C280.042 119.249 280.15 119.029 280.244 118.766L280.798 117.271ZM278.891 109.203L281.668 115.145L282.573 118.379L280.49 118.396L275.841 109.203H278.891ZM288.295 109.203H291.151V113.114C291.151 113.653 291.236 114.075 291.406 114.38C291.582 114.679 291.84 114.89 292.18 115.013C292.525 115.136 292.953 115.197 293.463 115.197C293.627 115.197 293.838 115.188 294.096 115.171C294.354 115.153 294.623 115.13 294.904 115.101C295.191 115.065 295.458 115.027 295.704 114.986C295.956 114.939 296.155 114.887 296.302 114.828V117.043C296.155 117.096 295.953 117.146 295.695 117.192C295.438 117.239 295.165 117.28 294.878 117.315C294.597 117.345 294.327 117.368 294.069 117.386C293.817 117.403 293.615 117.412 293.463 117.412C292.42 117.412 291.509 117.26 290.729 116.955C289.956 116.65 289.355 116.182 288.928 115.549C288.506 114.916 288.295 114.104 288.295 113.114V109.203ZM295.73 109.203H298.587V122H295.73V109.203ZM300.635 109.203H303.5V119.785H306.884V109.203H309.74V119.785H313.071V109.203H315.928V122H300.635V109.203ZM320.735 117.57L325.613 109.203H328.47V122H325.613V113.642L320.735 122H317.879V109.203H320.735V117.57ZM339.245 119.785V122H332.434V119.785H339.245ZM333.409 109.203V122H330.544V109.203H333.409ZM338.366 114.354V116.498H332.434V114.354H338.366ZM339.254 109.203V111.427H332.434V109.203H339.254ZM349.177 117.271L352.253 109.203H355.303L350.952 119.434C350.794 119.797 350.612 120.146 350.407 120.479C350.202 120.808 349.959 121.101 349.678 121.358C349.402 121.61 349.071 121.812 348.685 121.965C348.304 122.111 347.853 122.185 347.331 122.185C347.196 122.185 347.035 122.182 346.848 122.176C346.666 122.17 346.514 122.164 346.391 122.158L346.355 119.935C346.432 119.952 346.54 119.964 346.681 119.97C346.827 119.97 346.93 119.97 346.988 119.97C347.34 119.97 347.615 119.923 347.814 119.829C348.02 119.735 348.181 119.601 348.298 119.425C348.421 119.249 348.529 119.029 348.623 118.766L349.177 117.271ZM347.27 109.203L350.047 115.145L350.952 118.379L348.869 118.396L344.22 109.203H347.27ZM363.67 117.711H366.518C366.471 118.59 366.23 119.366 365.797 120.04C365.369 120.708 364.774 121.232 364.013 121.613C363.251 121.988 362.346 122.176 361.297 122.176C360.459 122.176 359.709 122.032 359.047 121.745C358.385 121.458 357.822 121.048 357.359 120.515C356.902 119.976 356.551 119.328 356.305 118.572C356.064 117.811 355.944 116.952 355.944 115.997V115.215C355.944 114.26 356.07 113.401 356.322 112.64C356.574 111.878 356.935 111.228 357.403 110.688C357.872 110.149 358.435 109.736 359.091 109.449C359.747 109.162 360.479 109.019 361.288 109.019C362.378 109.019 363.298 109.215 364.048 109.607C364.798 110 365.378 110.539 365.788 111.225C366.204 111.91 366.453 112.692 366.535 113.571H363.679C363.655 113.073 363.562 112.654 363.397 112.314C363.233 111.969 362.981 111.708 362.642 111.532C362.302 111.356 361.851 111.269 361.288 111.269C360.878 111.269 360.518 111.345 360.207 111.497C359.902 111.649 359.647 111.887 359.442 112.209C359.243 112.531 359.094 112.941 358.994 113.439C358.895 113.932 358.845 114.518 358.845 115.197V115.997C358.845 116.671 358.889 117.254 358.977 117.746C359.064 118.238 359.205 118.646 359.398 118.968C359.598 119.29 359.853 119.53 360.163 119.688C360.474 119.847 360.852 119.926 361.297 119.926C361.807 119.926 362.231 119.847 362.571 119.688C362.911 119.524 363.172 119.278 363.354 118.95C363.535 118.622 363.641 118.209 363.67 117.711ZM376.722 109.203V111.427H370.235V109.203H376.722ZM378.708 109.203V122H375.843V109.203H378.708ZM369.963 109.203H372.811L372.485 115.672C372.433 116.639 372.336 117.479 372.195 118.194C372.061 118.903 371.873 119.504 371.633 119.996C371.398 120.482 371.114 120.875 370.78 121.174C370.446 121.467 370.057 121.678 369.611 121.807C369.166 121.936 368.659 122 368.091 122H367.396V119.785L367.73 119.75C368.012 119.727 368.255 119.653 368.46 119.53C368.671 119.407 368.853 119.226 369.005 118.985C369.157 118.739 369.283 118.426 369.383 118.045C369.488 117.664 369.57 117.201 369.629 116.656C369.693 116.111 369.737 115.473 369.761 114.74L369.963 109.203ZM391.487 115.32V115.892C391.487 116.864 391.353 117.737 391.083 118.511C390.819 119.284 390.441 119.943 389.949 120.488C389.463 121.033 388.883 121.452 388.209 121.745C387.541 122.032 386.8 122.176 385.985 122.176C385.171 122.176 384.427 122.032 383.753 121.745C383.079 121.452 382.493 121.033 381.995 120.488C381.503 119.943 381.122 119.284 380.853 118.511C380.583 117.737 380.448 116.864 380.448 115.892V115.32C380.448 114.348 380.583 113.475 380.853 112.701C381.122 111.922 381.5 111.26 381.986 110.715C382.479 110.17 383.062 109.754 383.735 109.467C384.409 109.174 385.153 109.027 385.968 109.027C386.782 109.027 387.526 109.174 388.2 109.467C388.874 109.754 389.454 110.17 389.94 110.715C390.433 111.26 390.813 111.922 391.083 112.701C391.353 113.475 391.487 114.348 391.487 115.32ZM388.596 115.892V115.303C388.596 114.652 388.537 114.078 388.42 113.58C388.303 113.076 388.133 112.654 387.91 112.314C387.688 111.975 387.412 111.72 387.084 111.55C386.756 111.374 386.384 111.286 385.968 111.286C385.534 111.286 385.156 111.374 384.834 111.55C384.512 111.72 384.239 111.975 384.017 112.314C383.8 112.654 383.633 113.076 383.516 113.58C383.404 114.078 383.349 114.652 383.349 115.303V115.892C383.349 116.536 383.404 117.11 383.516 117.614C383.633 118.112 383.803 118.534 384.025 118.88C384.248 119.226 384.521 119.486 384.843 119.662C385.171 119.838 385.552 119.926 385.985 119.926C386.401 119.926 386.771 119.838 387.093 119.662C387.421 119.486 387.696 119.226 387.919 118.88C388.142 118.534 388.309 118.112 388.42 117.614C388.537 117.11 388.596 116.536 388.596 115.892ZM398.36 116.472H395.073L395.056 114.556H397.771C398.252 114.556 398.642 114.497 398.94 114.38C399.245 114.263 399.468 114.093 399.608 113.87C399.749 113.642 399.819 113.36 399.819 113.026C399.819 112.646 399.749 112.338 399.608 112.104C399.468 111.869 399.245 111.699 398.94 111.594C398.642 111.482 398.255 111.427 397.78 111.427H396.11V122H393.245V109.203H397.78C398.548 109.203 399.233 109.273 399.837 109.414C400.44 109.555 400.953 109.771 401.375 110.064C401.803 110.357 402.128 110.724 402.351 111.163C402.573 111.603 402.685 112.121 402.685 112.719C402.685 113.24 402.567 113.727 402.333 114.178C402.104 114.629 401.735 114.995 401.226 115.276C400.716 115.558 400.033 115.71 399.178 115.733L398.36 116.472ZM398.246 122H394.344L395.381 119.785H398.246C398.686 119.785 399.043 119.715 399.318 119.574C399.594 119.434 399.796 119.243 399.925 119.003C400.054 118.763 400.118 118.493 400.118 118.194C400.118 117.843 400.057 117.538 399.934 117.28C399.816 117.022 399.629 116.823 399.371 116.683C399.119 116.542 398.782 116.472 398.36 116.472H395.794L395.812 114.556H398.949L399.617 115.312C400.432 115.294 401.082 115.426 401.568 115.707C402.061 115.982 402.415 116.346 402.632 116.797C402.849 117.248 402.957 117.726 402.957 118.229C402.957 119.062 402.778 119.759 402.421 120.321C402.063 120.878 401.533 121.297 400.83 121.578C400.133 121.859 399.271 122 398.246 122ZM407.536 117.57L412.414 109.203H415.271V122H412.414V113.642L407.536 122H404.68V109.203H407.536V117.57ZM424.077 117.43H420.632L419.735 117.061C418.71 116.738 417.928 116.258 417.389 115.619C416.85 114.975 416.58 114.157 416.58 113.167C416.58 112.294 416.773 111.564 417.16 110.979C417.553 110.393 418.106 109.95 418.821 109.651C419.536 109.353 420.383 109.203 421.361 109.203H425.914V122H423.04V111.427H421.361C420.693 111.427 420.204 111.597 419.894 111.937C419.589 112.276 419.437 112.763 419.437 113.396C419.437 113.864 419.507 114.245 419.647 114.538C419.794 114.825 420.008 115.036 420.289 115.171C420.576 115.3 420.931 115.364 421.353 115.364H424.068L424.077 117.43ZM421.625 116.322L418.848 122H415.736L418.505 116.322H421.625Z" fill="white"/>
</svg>
