<svg width="458" height="128" viewBox="0 0 458 128" fill="none" xmlns="http://www.w3.org/2000/svg">
<path d="M25.0938 45.2383H11.9102L11.8398 37.1523H22.5273C24.4492 37.1523 25.9844 36.9414 27.1328 36.5195C28.2812 36.0742 29.1133 35.4297 29.6289 34.5859C30.168 33.7422 30.4375 32.6875 30.4375 31.4219C30.4375 29.9688 30.168 28.7969 29.6289 27.9062C29.0898 27.0156 28.2344 26.3711 27.0625 25.9727C25.9141 25.5508 24.4258 25.3398 22.5977 25.3398H16.5508V67H4.21094V15.8125H22.5977C25.7617 15.8125 28.5859 16.1055 31.0703 16.6914C33.5547 17.2539 35.6641 18.1211 37.3984 19.293C39.1562 20.4648 40.4922 21.9414 41.4062 23.7227C42.3203 25.4805 42.7773 27.5547 42.7773 29.9453C42.7773 32.0312 42.332 33.9883 41.4414 35.8164C40.5508 37.6445 39.0625 39.1328 36.9766 40.2812C34.9141 41.4062 32.0898 41.9922 28.5039 42.0391L25.0938 45.2383ZM24.6016 67H8.92188L13.1406 57.5078H24.6016C26.2891 57.5078 27.6367 57.25 28.6445 56.7344C29.6758 56.1953 30.4141 55.4922 30.8594 54.625C31.3281 53.7344 31.5625 52.75 31.5625 51.6719C31.5625 50.3594 31.3398 49.2227 30.8945 48.2617C30.4727 47.3008 29.793 46.5625 28.8555 46.0469C27.918 45.5078 26.6641 45.2383 25.0938 45.2383H14.7227L14.793 37.1523H27.2031L30.0859 40.3867C33.5078 40.2461 36.2148 40.7266 38.207 41.8281C40.2227 42.9297 41.6641 44.3828 42.5312 46.1875C43.3984 47.9922 43.832 49.8789 43.832 51.8477C43.832 55.1992 43.1055 58 41.6523 60.25C40.2227 62.5 38.0781 64.1875 35.2188 65.3125C32.3594 66.4375 28.8203 67 24.6016 67ZM72.3789 26.5703L59.8984 67H46.6445L65.4531 15.8125H73.8555L72.3789 26.5703ZM82.7148 67L70.1992 26.5703L68.582 15.8125H77.0898L96.0039 67H82.7148ZM82.2227 47.9102V57.4375H55.9609V47.9102H82.2227ZM142.516 15.8125V67H130.211L112.105 35.1484V67H99.7656V15.8125H112.105L130.211 47.6641V15.8125H142.516ZM162.66 15.8125V67H150.32V15.8125H162.66ZM193.211 15.8125L173.383 41.7578L161.781 54.4492L159.531 43.1289L166.949 31.8789L177.988 15.8125H193.211ZM178.621 67L165.402 43.9375L175 36.8711L193.211 67H178.621ZM243.414 49.668H255.719C255.555 53.2305 254.594 56.3711 252.836 59.0898C251.078 61.8086 248.641 63.9297 245.523 65.4531C242.43 66.9531 238.773 67.7031 234.555 67.7031C231.133 67.7031 228.074 67.1289 225.379 65.9805C222.707 64.832 220.434 63.1797 218.559 61.0234C216.707 58.8672 215.289 56.2539 214.305 53.1836C213.344 50.1133 212.863 46.6562 212.863 42.8125V40.0352C212.863 36.1914 213.367 32.7344 214.375 29.6641C215.406 26.5703 216.859 23.9453 218.734 21.7891C220.633 19.6094 222.906 17.9453 225.555 16.7969C228.203 15.6484 231.145 15.0742 234.379 15.0742C238.832 15.0742 242.594 15.8711 245.664 17.4648C248.734 19.0586 251.113 21.25 252.801 24.0391C254.488 26.8047 255.484 29.957 255.789 33.4961H243.484C243.438 31.5742 243.109 29.9688 242.5 28.6797C241.891 27.3672 240.93 26.3828 239.617 25.7266C238.305 25.0703 236.559 24.7422 234.379 24.7422C232.855 24.7422 231.531 25.0234 230.406 25.5859C229.281 26.1484 228.344 27.0391 227.594 28.2578C226.844 29.4766 226.281 31.0586 225.906 33.0039C225.555 34.9258 225.379 37.2461 225.379 39.9648V42.8125C225.379 45.5312 225.543 47.8516 225.871 49.7734C226.199 51.6953 226.727 53.2656 227.453 54.4844C228.18 55.7031 229.117 56.6055 230.266 57.1914C231.438 57.7539 232.867 58.0352 234.555 58.0352C236.43 58.0352 238.012 57.7422 239.301 57.1562C240.59 56.5469 241.586 55.6328 242.289 54.4141C242.992 53.1719 243.367 51.5898 243.414 49.668ZM261.555 15.8125H281.699C285.637 15.8125 289.059 16.3984 291.965 17.5703C294.871 18.7422 297.109 20.4766 298.68 22.7734C300.273 25.0703 301.07 27.9062 301.07 31.2812C301.07 34.2109 300.613 36.6602 299.699 38.6289C298.785 40.5977 297.508 42.2266 295.867 43.5156C294.25 44.7812 292.363 45.8242 290.207 46.6445L286.164 48.9297H269.254L269.184 39.4023H281.699C283.27 39.4023 284.57 39.1211 285.602 38.5586C286.633 37.9961 287.406 37.1992 287.922 36.168C288.461 35.1133 288.73 33.8594 288.73 32.4062C288.73 30.9297 288.461 29.6641 287.922 28.6094C287.383 27.5547 286.586 26.7461 285.531 26.1836C284.5 25.6211 283.223 25.3398 281.699 25.3398H273.895V67H261.555V15.8125ZM289.574 67L278.254 44.3594L291.332 44.2891L302.793 66.4727V67H289.574ZM343.75 57.5078V67H316.469V57.5078H343.75ZM320.863 15.8125V67H308.523V15.8125H320.863ZM340.234 36.1328V45.3086H316.469V36.1328H340.234ZM343.855 15.8125V25.3398H316.469V15.8125H343.855ZM365.441 67H354.086L354.156 57.5078H365.441C367.785 57.5078 369.766 56.9453 371.383 55.8203C373.023 54.6953 374.266 53.0195 375.109 50.793C375.977 48.543 376.41 45.7773 376.41 42.4961V40.2812C376.41 37.8203 376.164 35.6641 375.672 33.8125C375.203 31.9375 374.5 30.3789 373.562 29.1367C372.625 27.8711 371.453 26.9219 370.047 26.2891C368.664 25.6562 367.07 25.3398 365.266 25.3398H353.875V15.8125H365.266C368.734 15.8125 371.91 16.4102 374.793 17.6055C377.699 18.7773 380.207 20.4648 382.316 22.668C384.449 24.8477 386.09 27.4375 387.238 30.4375C388.41 33.4141 388.996 36.7188 388.996 40.3516V42.4961C388.996 46.1055 388.41 49.4102 387.238 52.4102C386.09 55.4102 384.461 58 382.352 60.1797C380.242 62.3594 377.746 64.0469 374.863 65.2422C372.004 66.4141 368.863 67 365.441 67ZM361.152 15.8125V67H348.812V15.8125H361.152ZM408.543 15.8125V67H396.238V15.8125H408.543ZM440.957 15.8125V67H428.617V15.8125H440.957ZM456.355 15.8125V25.3398H413.57V15.8125H456.355Z" fill="white"/>
<path d="M41.3262 96.3203V96.8916C41.3262 97.8643 41.1914 98.7373 40.9219 99.5107C40.6582 100.284 40.2803 100.943 39.7881 101.488C39.3018 102.033 38.7217 102.452 38.0479 102.745C37.3799 103.032 36.6387 103.176 35.8242 103.176C35.0098 103.176 34.2656 103.032 33.5918 102.745C32.918 102.452 32.332 102.033 31.834 101.488C31.3418 100.943 30.9609 100.284 30.6914 99.5107C30.4219 98.7373 30.2871 97.8643 30.2871 96.8916V96.3203C30.2871 95.3477 30.4219 94.4746 30.6914 93.7012C30.9609 92.9219 31.3389 92.2598 31.8252 91.7148C32.3174 91.1699 32.9004 90.7539 33.5742 90.4668C34.248 90.1738 34.9922 90.0273 35.8066 90.0273C36.6211 90.0273 37.3652 90.1738 38.0391 90.4668C38.7129 90.7539 39.293 91.1699 39.7793 91.7148C40.2715 92.2598 40.6523 92.9219 40.9219 93.7012C41.1914 94.4746 41.3262 95.3477 41.3262 96.3203ZM38.4346 96.8916V96.3027C38.4346 95.6523 38.376 95.0781 38.2588 94.5801C38.1416 94.0762 37.9717 93.6543 37.749 93.3145C37.5264 92.9746 37.251 92.7197 36.9229 92.5498C36.5947 92.374 36.2227 92.2861 35.8066 92.2861C35.373 92.2861 34.9951 92.374 34.6729 92.5498C34.3506 92.7197 34.0781 92.9746 33.8555 93.3145C33.6387 93.6543 33.4717 94.0762 33.3545 94.5801C33.2432 95.0781 33.1875 95.6523 33.1875 96.3027V96.8916C33.1875 97.5361 33.2432 98.1104 33.3545 98.6143C33.4717 99.1123 33.6416 99.5342 33.8643 99.8799C34.0869 100.226 34.3594 100.486 34.6816 100.662C35.0098 100.838 35.3906 100.926 35.8242 100.926C36.2402 100.926 36.6094 100.838 36.9316 100.662C37.2598 100.486 37.5352 100.226 37.7578 99.8799C37.9805 99.5342 38.1475 99.1123 38.2588 98.6143C38.376 98.1104 38.4346 97.5361 38.4346 96.8916ZM47.9971 91.3193H51.0205C51.7881 91.3193 52.4941 91.4453 53.1387 91.6973C53.7891 91.9492 54.3545 92.3096 54.835 92.7783C55.3154 93.2471 55.6875 93.8096 55.9512 94.4658C56.2148 95.1221 56.3467 95.8574 56.3467 96.6719C56.3467 97.4629 56.2148 98.1807 55.9512 98.8252C55.6875 99.4639 55.3154 100.015 54.835 100.478C54.3545 100.935 53.7891 101.286 53.1387 101.532C52.4941 101.772 51.7881 101.893 51.0205 101.893H47.9971C47.2236 101.893 46.5117 101.772 45.8613 101.532C45.2109 101.286 44.6426 100.935 44.1562 100.478C43.6758 100.021 43.3037 99.4727 43.04 98.834C42.7764 98.1953 42.6445 97.4805 42.6445 96.6895C42.6445 95.875 42.7764 95.1396 43.04 94.4834C43.3037 93.8271 43.6758 93.2617 44.1562 92.7871C44.6426 92.3125 45.2109 91.9492 45.8613 91.6973C46.5117 91.4453 47.2236 91.3193 47.9971 91.3193ZM47.9971 93.6133C47.4814 93.6133 47.0215 93.7275 46.6172 93.9561C46.2188 94.1846 45.9053 94.5273 45.6768 94.9844C45.4541 95.4355 45.3428 96.0039 45.3428 96.6895C45.3428 97.1699 45.4072 97.5947 45.5361 97.9639C45.6709 98.3271 45.8584 98.6289 46.0986 98.8691C46.3447 99.1094 46.6289 99.291 46.9512 99.4141C47.2734 99.5371 47.6221 99.5986 47.9971 99.5986H51.0381C51.5479 99.5986 51.9961 99.4902 52.3828 99.2734C52.7754 99.0508 53.083 98.7197 53.3057 98.2803C53.5283 97.8408 53.6396 97.3047 53.6396 96.6719C53.6396 96.1621 53.5752 95.7168 53.4463 95.3359C53.3174 94.9551 53.1357 94.6387 52.9014 94.3867C52.6729 94.1289 52.4004 93.9355 52.084 93.8066C51.7676 93.6777 51.4189 93.6133 51.0381 93.6133H47.9971ZM50.8799 89.6758V103.527H48.1377V89.6758H50.8799ZM68.6426 96.3203V96.8916C68.6426 97.8643 68.5078 98.7373 68.2383 99.5107C67.9746 100.284 67.5967 100.943 67.1045 101.488C66.6182 102.033 66.0381 102.452 65.3643 102.745C64.6963 103.032 63.9551 103.176 63.1406 103.176C62.3262 103.176 61.582 103.032 60.9082 102.745C60.2344 102.452 59.6484 102.033 59.1504 101.488C58.6582 100.943 58.2773 100.284 58.0078 99.5107C57.7383 98.7373 57.6035 97.8643 57.6035 96.8916V96.3203C57.6035 95.3477 57.7383 94.4746 58.0078 93.7012C58.2773 92.9219 58.6553 92.2598 59.1416 91.7148C59.6338 91.1699 60.2168 90.7539 60.8906 90.4668C61.5645 90.1738 62.3086 90.0273 63.123 90.0273C63.9375 90.0273 64.6816 90.1738 65.3555 90.4668C66.0293 90.7539 66.6094 91.1699 67.0957 91.7148C67.5879 92.2598 67.9688 92.9219 68.2383 93.7012C68.5078 94.4746 68.6426 95.3477 68.6426 96.3203ZM65.751 96.8916V96.3027C65.751 95.6523 65.6924 95.0781 65.5752 94.5801C65.458 94.0762 65.2881 93.6543 65.0654 93.3145C64.8428 92.9746 64.5674 92.7197 64.2393 92.5498C63.9111 92.374 63.5391 92.2861 63.123 92.2861C62.6895 92.2861 62.3115 92.374 61.9893 92.5498C61.667 92.7197 61.3945 92.9746 61.1719 93.3145C60.9551 93.6543 60.7881 94.0762 60.6709 94.5801C60.5596 95.0781 60.5039 95.6523 60.5039 96.3027V96.8916C60.5039 97.5361 60.5596 98.1104 60.6709 98.6143C60.7881 99.1123 60.958 99.5342 61.1807 99.8799C61.4033 100.226 61.6758 100.486 61.998 100.662C62.3262 100.838 62.707 100.926 63.1406 100.926C63.5566 100.926 63.9258 100.838 64.248 100.662C64.5762 100.486 64.8516 100.226 65.0742 99.8799C65.2969 99.5342 65.4639 99.1123 65.5752 98.6143C65.6924 98.1104 65.751 97.5361 65.751 96.8916ZM75.4453 98.5527H72.2285V96.3291H75.4453C75.9199 96.3291 76.3008 96.25 76.5879 96.0918C76.8809 95.9336 77.0947 95.7168 77.2295 95.4414C77.3701 95.1602 77.4404 94.8438 77.4404 94.4922C77.4404 94.1289 77.3701 93.792 77.2295 93.4814C77.0947 93.165 76.8809 92.9102 76.5879 92.7168C76.3008 92.5234 75.9199 92.4268 75.4453 92.4268H73.2656V103H70.4004V90.2031H75.4453C76.4648 90.2031 77.3379 90.3877 78.0645 90.7568C78.7969 91.126 79.3564 91.6328 79.7432 92.2773C80.1357 92.916 80.332 93.6484 80.332 94.4746C80.332 95.3008 80.1357 96.0186 79.7432 96.6279C79.3564 97.2373 78.7969 97.7119 78.0645 98.0518C77.3379 98.3857 76.4648 98.5527 75.4453 98.5527ZM83.4434 90.2031H85.8164L88.8926 99.3525L91.96 90.2031H94.333L89.8506 103H87.9258L83.4434 90.2031ZM82.0723 90.2031H84.4893L84.9375 99.6865V103H82.0723V90.2031ZM93.2871 90.2031H95.7129V103H92.8389V99.6865L93.2871 90.2031ZM100.564 98.5703L105.442 90.2031H108.299V103H105.442V94.6416L100.564 103H97.708V90.2031H100.564V98.5703ZM119.848 96.874H117.756V95.3975H119.355C119.783 95.3975 120.126 95.3301 120.384 95.1953C120.647 95.0605 120.838 94.8672 120.955 94.6152C121.078 94.3633 121.14 94.0703 121.14 93.7363C121.14 93.4668 121.069 93.2207 120.929 92.998C120.794 92.7695 120.586 92.5879 120.305 92.4531C120.023 92.3184 119.663 92.251 119.224 92.251C118.884 92.251 118.576 92.3066 118.301 92.418C118.025 92.5293 117.809 92.6934 117.65 92.9102C117.492 93.1211 117.413 93.3789 117.413 93.6836H114.557C114.557 93.1094 114.68 92.5996 114.926 92.1543C115.178 91.7031 115.518 91.3223 115.945 91.0117C116.379 90.6953 116.877 90.4551 117.439 90.291C118.002 90.1211 118.597 90.0361 119.224 90.0361C119.944 90.0361 120.598 90.1152 121.184 90.2734C121.77 90.4258 122.273 90.6543 122.695 90.959C123.117 91.2637 123.439 91.6445 123.662 92.1016C123.891 92.5527 124.005 93.0771 124.005 93.6748C124.005 94.1143 123.905 94.5273 123.706 94.9141C123.513 95.3008 123.231 95.6406 122.862 95.9336C122.499 96.2266 122.06 96.458 121.544 96.6279C121.034 96.792 120.469 96.874 119.848 96.874ZM117.756 96.0918H119.848C120.539 96.0918 121.154 96.165 121.693 96.3115C122.232 96.458 122.687 96.6719 123.056 96.9531C123.431 97.2344 123.715 97.583 123.908 97.999C124.107 98.4092 124.207 98.8809 124.207 99.4141C124.207 100.012 124.084 100.545 123.838 101.014C123.592 101.477 123.243 101.869 122.792 102.191C122.347 102.514 121.819 102.757 121.21 102.921C120.606 103.085 119.944 103.167 119.224 103.167C118.638 103.167 118.055 103.097 117.475 102.956C116.9 102.81 116.379 102.587 115.91 102.288C115.447 101.989 115.075 101.605 114.794 101.137C114.513 100.668 114.372 100.105 114.372 99.4492H117.237C117.237 99.7363 117.322 99.9941 117.492 100.223C117.662 100.451 117.896 100.633 118.195 100.768C118.494 100.896 118.837 100.961 119.224 100.961C119.669 100.961 120.05 100.891 120.366 100.75C120.683 100.609 120.923 100.419 121.087 100.179C121.251 99.9326 121.333 99.6602 121.333 99.3613C121.333 99.0332 121.292 98.7549 121.21 98.5264C121.128 98.292 121.002 98.1045 120.832 97.9639C120.668 97.8174 120.46 97.7119 120.208 97.6475C119.962 97.5771 119.678 97.542 119.355 97.542H117.756V96.0918ZM131.405 92.6377L128.101 103H125.042L129.779 90.2031H131.713L131.405 92.6377ZM134.147 103L130.834 92.6377L130.491 90.2031H132.451L137.206 103H134.147ZM134.007 98.2363V100.451H127.336V98.2363H134.007ZM145.002 98.4297H141.557L140.66 98.0605C139.635 97.7383 138.853 97.2578 138.313 96.6191C137.774 95.9746 137.505 95.1572 137.505 94.167C137.505 93.2939 137.698 92.5645 138.085 91.9785C138.478 91.3926 139.031 90.9502 139.746 90.6514C140.461 90.3525 141.308 90.2031 142.286 90.2031H146.839V103H143.965V92.4268H142.286C141.618 92.4268 141.129 92.5967 140.818 92.9365C140.514 93.2764 140.361 93.7627 140.361 94.3955C140.361 94.8643 140.432 95.2451 140.572 95.5381C140.719 95.8252 140.933 96.0361 141.214 96.1709C141.501 96.2998 141.855 96.3643 142.277 96.3643H144.993L145.002 98.4297ZM142.55 97.3223L139.772 103H136.661L139.43 97.3223H142.55ZM153.879 97.4717H150.592L150.574 95.5557H153.29C153.771 95.5557 154.16 95.4971 154.459 95.3799C154.764 95.2627 154.986 95.0928 155.127 94.8701C155.268 94.6416 155.338 94.3604 155.338 94.0264C155.338 93.6455 155.268 93.3379 155.127 93.1035C154.986 92.8691 154.764 92.6992 154.459 92.5938C154.16 92.4824 153.773 92.4268 153.299 92.4268H151.629V103H148.764V90.2031H153.299C154.066 90.2031 154.752 90.2734 155.355 90.4141C155.959 90.5547 156.472 90.7715 156.894 91.0645C157.321 91.3574 157.646 91.7236 157.869 92.1631C158.092 92.6025 158.203 93.1211 158.203 93.7188C158.203 94.2402 158.086 94.7266 157.852 95.1777C157.623 95.6289 157.254 95.9951 156.744 96.2764C156.234 96.5576 155.552 96.71 154.696 96.7334L153.879 97.4717ZM153.765 103H149.862L150.899 100.785H153.765C154.204 100.785 154.562 100.715 154.837 100.574C155.112 100.434 155.314 100.243 155.443 100.003C155.572 99.7627 155.637 99.4932 155.637 99.1943C155.637 98.8428 155.575 98.5381 155.452 98.2803C155.335 98.0225 155.147 97.8232 154.89 97.6826C154.638 97.542 154.301 97.4717 153.879 97.4717H151.312L151.33 95.5557H154.468L155.136 96.3115C155.95 96.2939 156.601 96.4258 157.087 96.707C157.579 96.9824 157.934 97.3457 158.15 97.7969C158.367 98.248 158.476 98.7256 158.476 99.2295C158.476 100.062 158.297 100.759 157.939 101.321C157.582 101.878 157.052 102.297 156.349 102.578C155.651 102.859 154.79 103 153.765 103ZM163.187 90.2031V103H160.33V90.2031H163.187ZM170.648 90.2031L165.894 97.8232H162.624L162.272 95.2656H164.399L167.186 90.2031H170.648ZM167.687 103L164.399 97.3398L166.43 95.3711L171.079 103H167.687ZM176.01 98.2715L179.086 90.2031H182.136L177.785 100.434C177.627 100.797 177.445 101.146 177.24 101.479C177.035 101.808 176.792 102.101 176.511 102.358C176.235 102.61 175.904 102.812 175.518 102.965C175.137 103.111 174.686 103.185 174.164 103.185C174.029 103.185 173.868 103.182 173.681 103.176C173.499 103.17 173.347 103.164 173.224 103.158L173.188 100.935C173.265 100.952 173.373 100.964 173.514 100.97C173.66 100.97 173.763 100.97 173.821 100.97C174.173 100.97 174.448 100.923 174.647 100.829C174.853 100.735 175.014 100.601 175.131 100.425C175.254 100.249 175.362 100.029 175.456 99.7656L176.01 98.2715ZM174.103 90.2031L176.88 96.1445L177.785 99.3789L175.702 99.3965L171.053 90.2031H174.103ZM196.427 95.3535V97.5684H189.8V95.3535H196.427ZM190.705 90.2031V103H187.84V90.2031H190.705ZM198.404 90.2031V103H195.548V90.2031H198.404ZM206.007 92.6377L202.702 103H199.644L204.381 90.2031H206.314L206.007 92.6377ZM208.749 103L205.436 92.6377L205.093 90.2031H207.053L211.808 103H208.749ZM208.608 98.2363V100.451H201.938V98.2363H208.608ZM220.21 90.2031V103H217.354V90.2031H220.21ZM227.672 90.2031L222.917 97.8232H219.647L219.296 95.2656H221.423L224.209 90.2031H227.672ZM224.71 103L221.423 97.3398L223.453 95.3711L228.103 103H224.71ZM234.035 98.5527H230.818V96.3291H234.035C234.51 96.3291 234.891 96.25 235.178 96.0918C235.471 95.9336 235.685 95.7168 235.819 95.4414C235.96 95.1602 236.03 94.8438 236.03 94.4922C236.03 94.1289 235.96 93.792 235.819 93.4814C235.685 93.165 235.471 92.9102 235.178 92.7168C234.891 92.5234 234.51 92.4268 234.035 92.4268H231.855V103H228.99V90.2031H234.035C235.055 90.2031 235.928 90.3877 236.654 90.7568C237.387 91.126 237.946 91.6328 238.333 92.2773C238.726 92.916 238.922 93.6484 238.922 94.4746C238.922 95.3008 238.726 96.0186 238.333 96.6279C237.946 97.2373 237.387 97.7119 236.654 98.0518C235.928 98.3857 235.055 98.5527 234.035 98.5527ZM249.363 100.785V103H242.552V100.785H249.363ZM243.527 90.2031V103H240.662V90.2031H243.527ZM248.484 95.3535V97.498H242.552V95.3535H248.484ZM249.372 90.2031V92.4268H242.552V90.2031H249.372ZM260.947 100.785V103H251.842V100.785H260.947ZM252.738 100.785V106.138H250.075L249.899 100.785H252.738ZM262.942 100.785L262.67 106.146H260.077V100.785H262.942ZM259.55 90.2031V92.4268H253.257V90.2031H259.55ZM261.527 90.2031V103H258.68V90.2031H261.527ZM252.993 90.2031H255.85L255.489 95.4326C255.431 96.3115 255.331 97.082 255.19 97.7441C255.056 98.4004 254.895 98.9746 254.707 99.4668C254.52 99.959 254.312 100.384 254.083 100.741C253.86 101.099 253.623 101.412 253.371 101.682C253.125 101.945 252.879 102.183 252.633 102.394C252.387 102.599 252.146 102.801 251.912 103H250.216V100.785H250.822C250.998 100.65 251.177 100.466 251.358 100.231C251.546 99.9971 251.725 99.6807 251.895 99.2822C252.064 98.8838 252.214 98.3711 252.343 97.7441C252.472 97.1172 252.565 96.3467 252.624 95.4326L252.993 90.2031ZM266.889 98.5703L271.767 90.2031H274.623V103H271.767V94.6416L266.889 103H264.032V90.2031H266.889V98.5703ZM282.393 90.2031V103H279.536V90.2031H282.393ZM286.286 90.2031V92.4268H275.722V90.2031H286.286ZM296.807 97.4717H293.52L293.502 95.5557H296.218C296.698 95.5557 297.088 95.4971 297.387 95.3799C297.691 95.2627 297.914 95.0928 298.055 94.8701C298.195 94.6416 298.266 94.3604 298.266 94.0264C298.266 93.6455 298.195 93.3379 298.055 93.1035C297.914 92.8691 297.691 92.6992 297.387 92.5938C297.088 92.4824 296.701 92.4268 296.227 92.4268H294.557V103H291.691V90.2031H296.227C296.994 90.2031 297.68 90.2734 298.283 90.4141C298.887 90.5547 299.399 90.7715 299.821 91.0645C300.249 91.3574 300.574 91.7236 300.797 92.1631C301.02 92.6025 301.131 93.1211 301.131 93.7188C301.131 94.2402 301.014 94.7266 300.779 95.1777C300.551 95.6289 300.182 95.9951 299.672 96.2764C299.162 96.5576 298.479 96.71 297.624 96.7334L296.807 97.4717ZM296.692 103H292.79L293.827 100.785H296.692C297.132 100.785 297.489 100.715 297.765 100.574C298.04 100.434 298.242 100.243 298.371 100.003C298.5 99.7627 298.564 99.4932 298.564 99.1943C298.564 98.8428 298.503 98.5381 298.38 98.2803C298.263 98.0225 298.075 97.8232 297.817 97.6826C297.565 97.542 297.229 97.4717 296.807 97.4717H294.24L294.258 95.5557H297.396L298.063 96.3115C298.878 96.2939 299.528 96.4258 300.015 96.707C300.507 96.9824 300.861 97.3457 301.078 97.7969C301.295 98.248 301.403 98.7256 301.403 99.2295C301.403 100.062 301.225 100.759 300.867 101.321C300.51 101.878 299.979 102.297 299.276 102.578C298.579 102.859 297.718 103 296.692 103ZM318.331 90.2031V103H315.466V92.4268H310.597V103H307.74V90.2031H318.331ZM327.182 98.4297H323.736L322.84 98.0605C321.814 97.7383 321.032 97.2578 320.493 96.6191C319.954 95.9746 319.685 95.1572 319.685 94.167C319.685 93.2939 319.878 92.5645 320.265 91.9785C320.657 91.3926 321.211 90.9502 321.926 90.6514C322.641 90.3525 323.487 90.2031 324.466 90.2031H329.019V103H326.145V92.4268H324.466C323.798 92.4268 323.309 92.5967 322.998 92.9365C322.693 93.2764 322.541 93.7627 322.541 94.3955C322.541 94.8643 322.611 95.2451 322.752 95.5381C322.898 95.8252 323.112 96.0361 323.394 96.1709C323.681 96.2998 324.035 96.3643 324.457 96.3643H327.173L327.182 98.4297ZM324.729 97.3223L321.952 103H318.841L321.609 97.3223H324.729ZM336.709 90.2031V103H333.853V90.2031H336.709ZM340.603 90.2031V92.4268H330.038V90.2031H340.603ZM344.742 98.5703L349.62 90.2031H352.477V103H349.62V94.6416L344.742 103H341.886V90.2031H344.742V98.5703ZM367.541 90.2031V92.4268H361.881V103H359.024V90.2031H367.541ZM360.861 94.7383H363.727C364.746 94.7383 365.631 94.9082 366.381 95.248C367.131 95.5879 367.708 96.0654 368.112 96.6807C368.517 97.29 368.719 98.0049 368.719 98.8252C368.719 99.4404 368.602 100.003 368.367 100.513C368.139 101.022 367.805 101.465 367.365 101.84C366.932 102.209 366.407 102.496 365.792 102.701C365.183 102.9 364.494 103 363.727 103H359.033V90.2031H361.907V100.785H363.727C364.195 100.785 364.588 100.697 364.904 100.521C365.221 100.34 365.458 100.1 365.616 99.8008C365.78 99.502 365.862 99.1709 365.862 98.8076C365.862 98.4502 365.78 98.1338 365.616 97.8584C365.458 97.5771 365.221 97.3574 364.904 97.1992C364.588 97.0352 364.195 96.9531 363.727 96.9531H360.861V94.7383ZM375.618 92.6377L372.313 103H369.255L373.992 90.2031H375.926L375.618 92.6377ZM378.36 103L375.047 92.6377L374.704 90.2031H376.664L381.419 103H378.36ZM378.22 98.2363V100.451H371.549V98.2363H378.22ZM391.069 95.3535V97.5684H384.442V95.3535H391.069ZM385.348 90.2031V103H382.482V90.2031H385.348ZM393.047 90.2031V103H390.19V90.2031H393.047ZM398.03 90.2031V103H395.174V90.2031H398.03ZM405.492 90.2031L400.737 97.8232H397.468L397.116 95.2656H399.243L402.029 90.2031H405.492ZM402.53 103L399.243 97.3398L401.273 95.3711L405.923 103H402.53ZM412.128 92.6377L408.823 103H405.765L410.502 90.2031H412.436L412.128 92.6377ZM414.87 103L411.557 92.6377L411.214 90.2031H413.174L417.929 103H414.87ZM414.729 98.2363V100.451H408.059V98.2363H414.729ZM421.418 90.2031L423.668 94.5625L425.918 90.2031H429.188L425.549 96.5488L429.284 103H425.988L423.668 98.5615L421.356 103H418.052L421.796 96.5488L418.148 90.2031H421.418ZM30.3398 116.354V118.568H23.7129V116.354H30.3398ZM24.6182 111.203V124H21.7529V111.203H24.6182ZM32.3174 111.203V124H29.4609V111.203H32.3174ZM39.9199 113.638L36.6152 124H33.5566L38.2939 111.203H40.2275L39.9199 113.638ZM42.6621 124L39.3486 113.638L39.0059 111.203H40.9658L45.7207 124H42.6621ZM42.5215 119.236V121.451H35.8506V119.236H42.5215ZM61.9365 117.32V117.892C61.9365 118.864 61.8018 119.737 61.5322 120.511C61.2686 121.284 60.8906 121.943 60.3984 122.488C59.9121 123.033 59.332 123.452 58.6582 123.745C57.9902 124.032 57.249 124.176 56.4346 124.176C55.6201 124.176 54.876 124.032 54.2021 123.745C53.5283 123.452 52.9424 123.033 52.4443 122.488C51.9521 121.943 51.5713 121.284 51.3018 120.511C51.0322 119.737 50.8975 118.864 50.8975 117.892V117.32C50.8975 116.348 51.0322 115.475 51.3018 114.701C51.5713 113.922 51.9492 113.26 52.4355 112.715C52.9277 112.17 53.5107 111.754 54.1846 111.467C54.8584 111.174 55.6025 111.027 56.417 111.027C57.2314 111.027 57.9756 111.174 58.6494 111.467C59.3232 111.754 59.9033 112.17 60.3896 112.715C60.8818 113.26 61.2627 113.922 61.5322 114.701C61.8018 115.475 61.9365 116.348 61.9365 117.32ZM59.0449 117.892V117.303C59.0449 116.652 58.9863 116.078 58.8691 115.58C58.752 115.076 58.582 114.654 58.3594 114.314C58.1367 113.975 57.8613 113.72 57.5332 113.55C57.2051 113.374 56.833 113.286 56.417 113.286C55.9834 113.286 55.6055 113.374 55.2832 113.55C54.9609 113.72 54.6885 113.975 54.4658 114.314C54.249 114.654 54.082 115.076 53.9648 115.58C53.8535 116.078 53.7979 116.652 53.7979 117.303V117.892C53.7979 118.536 53.8535 119.11 53.9648 119.614C54.082 120.112 54.252 120.534 54.4746 120.88C54.6973 121.226 54.9697 121.486 55.292 121.662C55.6201 121.838 56.001 121.926 56.4346 121.926C56.8506 121.926 57.2197 121.838 57.542 121.662C57.8701 121.486 58.1455 121.226 58.3682 120.88C58.5908 120.534 58.7578 120.112 58.8691 119.614C58.9863 119.11 59.0449 118.536 59.0449 117.892ZM73.5732 121.785V124H64.4678V121.785H73.5732ZM65.3643 121.785V127.138H62.7012L62.5254 121.785H65.3643ZM75.5684 121.785L75.2959 127.146H72.7031V121.785H75.5684ZM72.1758 111.203V113.427H65.8828V111.203H72.1758ZM74.1533 111.203V124H71.3057V111.203H74.1533ZM65.6191 111.203H68.4756L68.1152 116.433C68.0566 117.312 67.957 118.082 67.8164 118.744C67.6816 119.4 67.5205 119.975 67.333 120.467C67.1455 120.959 66.9375 121.384 66.709 121.741C66.4863 122.099 66.249 122.412 65.9971 122.682C65.751 122.945 65.5049 123.183 65.2588 123.394C65.0127 123.599 64.7725 123.801 64.5381 124H62.8418V121.785H63.4482C63.624 121.65 63.8027 121.466 63.9844 121.231C64.1719 120.997 64.3506 120.681 64.5205 120.282C64.6904 119.884 64.8398 119.371 64.9688 118.744C65.0977 118.117 65.1914 117.347 65.25 116.433L65.6191 111.203ZM85.377 116.354V118.568H78.75V116.354H85.377ZM79.6553 111.203V124H76.79V111.203H79.6553ZM87.3545 111.203V124H84.498V111.203H87.3545ZM100.151 117.32V117.892C100.151 118.864 100.017 119.737 99.7471 120.511C99.4834 121.284 99.1055 121.943 98.6133 122.488C98.127 123.033 97.5469 123.452 96.873 123.745C96.2051 124.032 95.4639 124.176 94.6494 124.176C93.835 124.176 93.0908 124.032 92.417 123.745C91.7432 123.452 91.1572 123.033 90.6592 122.488C90.167 121.943 89.7861 121.284 89.5166 120.511C89.2471 119.737 89.1123 118.864 89.1123 117.892V117.32C89.1123 116.348 89.2471 115.475 89.5166 114.701C89.7861 113.922 90.1641 113.26 90.6504 112.715C91.1426 112.17 91.7256 111.754 92.3994 111.467C93.0732 111.174 93.8174 111.027 94.6318 111.027C95.4463 111.027 96.1904 111.174 96.8643 111.467C97.5381 111.754 98.1182 112.17 98.6045 112.715C99.0967 113.26 99.4775 113.922 99.7471 114.701C100.017 115.475 100.151 116.348 100.151 117.32ZM97.2598 117.892V117.303C97.2598 116.652 97.2012 116.078 97.084 115.58C96.9668 115.076 96.7969 114.654 96.5742 114.314C96.3516 113.975 96.0762 113.72 95.748 113.55C95.4199 113.374 95.0479 113.286 94.6318 113.286C94.1982 113.286 93.8203 113.374 93.498 113.55C93.1758 113.72 92.9033 113.975 92.6807 114.314C92.4639 114.654 92.2969 115.076 92.1797 115.58C92.0684 116.078 92.0127 116.652 92.0127 117.303V117.892C92.0127 118.536 92.0684 119.11 92.1797 119.614C92.2969 120.112 92.4668 120.534 92.6895 120.88C92.9121 121.226 93.1846 121.486 93.5068 121.662C93.835 121.838 94.2158 121.926 94.6494 121.926C95.0654 121.926 95.4346 121.838 95.7568 121.662C96.085 121.486 96.3604 121.226 96.583 120.88C96.8057 120.534 96.9727 120.112 97.084 119.614C97.2012 119.11 97.2598 118.536 97.2598 117.892ZM103.28 111.203H105.653L108.729 120.353L111.797 111.203H114.17L109.688 124H107.763L103.28 111.203ZM101.909 111.203H104.326L104.774 120.687V124H101.909V111.203ZM113.124 111.203H115.55V124H112.676V120.687L113.124 111.203ZM129.516 119.711H132.363C132.316 120.59 132.076 121.366 131.643 122.04C131.215 122.708 130.62 123.232 129.858 123.613C129.097 123.988 128.191 124.176 127.143 124.176C126.305 124.176 125.555 124.032 124.893 123.745C124.23 123.458 123.668 123.048 123.205 122.515C122.748 121.976 122.396 121.328 122.15 120.572C121.91 119.811 121.79 118.952 121.79 117.997V117.215C121.79 116.26 121.916 115.401 122.168 114.64C122.42 113.878 122.78 113.228 123.249 112.688C123.718 112.149 124.28 111.736 124.937 111.449C125.593 111.162 126.325 111.019 127.134 111.019C128.224 111.019 129.144 111.215 129.894 111.607C130.644 112 131.224 112.539 131.634 113.225C132.05 113.91 132.299 114.692 132.381 115.571H129.524C129.501 115.073 129.407 114.654 129.243 114.314C129.079 113.969 128.827 113.708 128.487 113.532C128.147 113.356 127.696 113.269 127.134 113.269C126.724 113.269 126.363 113.345 126.053 113.497C125.748 113.649 125.493 113.887 125.288 114.209C125.089 114.531 124.939 114.941 124.84 115.439C124.74 115.932 124.69 116.518 124.69 117.197V117.997C124.69 118.671 124.734 119.254 124.822 119.746C124.91 120.238 125.051 120.646 125.244 120.968C125.443 121.29 125.698 121.53 126.009 121.688C126.319 121.847 126.697 121.926 127.143 121.926C127.652 121.926 128.077 121.847 128.417 121.688C128.757 121.524 129.018 121.278 129.199 120.95C129.381 120.622 129.486 120.209 129.516 119.711ZM139.271 113.638L135.967 124H132.908L137.646 111.203H139.579L139.271 113.638ZM142.014 124L138.7 113.638L138.357 111.203H140.317L145.072 124H142.014ZM141.873 119.236V121.451H135.202V119.236H141.873ZM148.86 119.57L153.738 111.203H156.595V124H153.738V115.642L148.86 124H146.004V111.203H148.86V119.57ZM152.561 107.802H154.477C154.477 108.317 154.348 108.774 154.09 109.173C153.832 109.571 153.466 109.882 152.991 110.104C152.522 110.327 151.966 110.438 151.321 110.438C150.354 110.438 149.587 110.195 149.019 109.709C148.45 109.217 148.166 108.581 148.166 107.802H150.073C150.073 108.101 150.167 108.367 150.354 108.602C150.548 108.83 150.87 108.944 151.321 108.944C151.778 108.944 152.098 108.83 152.279 108.602C152.467 108.367 152.561 108.101 152.561 107.802ZM164.628 111.203V124H161.771V111.203H164.628ZM168.521 111.203V113.427H157.957V111.203H168.521ZM178.638 121.785V124H171.826V121.785H178.638ZM172.802 111.203V124H169.937V111.203H172.802ZM177.759 116.354V118.498H171.826V116.354H177.759ZM178.646 111.203V113.427H171.826V111.203H178.646ZM187.251 119.57L192.129 111.203H194.985V124H192.129V115.642L187.251 124H184.395V111.203H187.251V119.57ZM212.133 111.203V124H209.268V113.427H204.398V124H201.542V111.203H212.133ZM224.921 117.32V117.892C224.921 118.864 224.786 119.737 224.517 120.511C224.253 121.284 223.875 121.943 223.383 122.488C222.896 123.033 222.316 123.452 221.643 123.745C220.975 124.032 220.233 124.176 219.419 124.176C218.604 124.176 217.86 124.032 217.187 123.745C216.513 123.452 215.927 123.033 215.429 122.488C214.937 121.943 214.556 121.284 214.286 120.511C214.017 119.737 213.882 118.864 213.882 117.892V117.32C213.882 116.348 214.017 115.475 214.286 114.701C214.556 113.922 214.934 113.26 215.42 112.715C215.912 112.17 216.495 111.754 217.169 111.467C217.843 111.174 218.587 111.027 219.401 111.027C220.216 111.027 220.96 111.174 221.634 111.467C222.308 111.754 222.888 112.17 223.374 112.715C223.866 113.26 224.247 113.922 224.517 114.701C224.786 115.475 224.921 116.348 224.921 117.32ZM222.029 117.892V117.303C222.029 116.652 221.971 116.078 221.854 115.58C221.736 115.076 221.566 114.654 221.344 114.314C221.121 113.975 220.846 113.72 220.518 113.55C220.189 113.374 219.817 113.286 219.401 113.286C218.968 113.286 218.59 113.374 218.268 113.55C217.945 113.72 217.673 113.975 217.45 114.314C217.233 114.654 217.066 115.076 216.949 115.58C216.838 116.078 216.782 116.652 216.782 117.303V117.892C216.782 118.536 216.838 119.11 216.949 119.614C217.066 120.112 217.236 120.534 217.459 120.88C217.682 121.226 217.954 121.486 218.276 121.662C218.604 121.838 218.985 121.926 219.419 121.926C219.835 121.926 220.204 121.838 220.526 121.662C220.854 121.486 221.13 121.226 221.353 120.88C221.575 120.534 221.742 120.112 221.854 119.614C221.971 119.11 222.029 118.536 222.029 117.892ZM235.011 111.203V113.427H228.524V111.203H235.011ZM236.997 111.203V124H234.132V111.203H236.997ZM228.252 111.203H231.1L230.774 117.672C230.722 118.639 230.625 119.479 230.484 120.194C230.35 120.903 230.162 121.504 229.922 121.996C229.688 122.482 229.403 122.875 229.069 123.174C228.735 123.467 228.346 123.678 227.9 123.807C227.455 123.936 226.948 124 226.38 124H225.686V121.785L226.02 121.75C226.301 121.727 226.544 121.653 226.749 121.53C226.96 121.407 227.142 121.226 227.294 120.985C227.446 120.739 227.572 120.426 227.672 120.045C227.777 119.664 227.859 119.201 227.918 118.656C227.982 118.111 228.026 117.473 228.05 116.74L228.252 111.203ZM243.149 119.271L246.226 111.203H249.275L244.925 121.434C244.767 121.797 244.585 122.146 244.38 122.479C244.175 122.808 243.932 123.101 243.65 123.358C243.375 123.61 243.044 123.812 242.657 123.965C242.276 124.111 241.825 124.185 241.304 124.185C241.169 124.185 241.008 124.182 240.82 124.176C240.639 124.17 240.486 124.164 240.363 124.158L240.328 121.935C240.404 121.952 240.513 121.964 240.653 121.97C240.8 121.97 240.902 121.97 240.961 121.97C241.312 121.97 241.588 121.923 241.787 121.829C241.992 121.735 242.153 121.601 242.271 121.425C242.394 121.249 242.502 121.029 242.596 120.766L243.149 119.271ZM241.242 111.203L244.02 117.145L244.925 120.379L242.842 120.396L238.192 111.203H241.242ZM250.646 111.203H253.503V115.114C253.503 115.653 253.588 116.075 253.758 116.38C253.934 116.679 254.191 116.89 254.531 117.013C254.877 117.136 255.305 117.197 255.814 117.197C255.979 117.197 256.189 117.188 256.447 117.171C256.705 117.153 256.975 117.13 257.256 117.101C257.543 117.065 257.81 117.027 258.056 116.986C258.308 116.939 258.507 116.887 258.653 116.828V119.043C258.507 119.096 258.305 119.146 258.047 119.192C257.789 119.239 257.517 119.28 257.229 119.315C256.948 119.345 256.679 119.368 256.421 119.386C256.169 119.403 255.967 119.412 255.814 119.412C254.771 119.412 253.86 119.26 253.081 118.955C252.308 118.65 251.707 118.182 251.279 117.549C250.857 116.916 250.646 116.104 250.646 115.114V111.203ZM258.082 111.203H260.938V124H258.082V111.203ZM265.755 119.57L270.633 111.203H273.489V124H270.633V115.642L265.755 124H262.898V111.203H265.755V119.57ZM288.659 111.203V113.427H282.173V111.203H288.659ZM290.646 111.203V124H287.78V111.203H290.646ZM281.9 111.203H284.748L284.423 117.672C284.37 118.639 284.273 119.479 284.133 120.194C283.998 120.903 283.811 121.504 283.57 121.996C283.336 122.482 283.052 122.875 282.718 123.174C282.384 123.467 281.994 123.678 281.549 123.807C281.104 123.936 280.597 124 280.028 124H279.334V121.785L279.668 121.75C279.949 121.727 280.192 121.653 280.397 121.53C280.608 121.407 280.79 121.226 280.942 120.985C281.095 120.739 281.221 120.426 281.32 120.045C281.426 119.664 281.508 119.201 281.566 118.656C281.631 118.111 281.675 117.473 281.698 116.74L281.9 111.203ZM296.798 119.271L299.874 111.203H302.924L298.573 121.434C298.415 121.797 298.233 122.146 298.028 122.479C297.823 122.808 297.58 123.101 297.299 123.358C297.023 123.61 296.692 123.812 296.306 123.965C295.925 124.111 295.474 124.185 294.952 124.185C294.817 124.185 294.656 124.182 294.469 124.176C294.287 124.17 294.135 124.164 294.012 124.158L293.977 121.935C294.053 121.952 294.161 121.964 294.302 121.97C294.448 121.97 294.551 121.97 294.609 121.97C294.961 121.97 295.236 121.923 295.436 121.829C295.641 121.735 295.802 121.601 295.919 121.425C296.042 121.249 296.15 121.029 296.244 120.766L296.798 119.271ZM294.891 111.203L297.668 117.145L298.573 120.379L296.49 120.396L291.841 111.203H294.891ZM304.295 111.203H307.151V115.114C307.151 115.653 307.236 116.075 307.406 116.38C307.582 116.679 307.84 116.89 308.18 117.013C308.525 117.136 308.953 117.197 309.463 117.197C309.627 117.197 309.838 117.188 310.096 117.171C310.354 117.153 310.623 117.13 310.904 117.101C311.191 117.065 311.458 117.027 311.704 116.986C311.956 116.939 312.155 116.887 312.302 116.828V119.043C312.155 119.096 311.953 119.146 311.695 119.192C311.438 119.239 311.165 119.28 310.878 119.315C310.597 119.345 310.327 119.368 310.069 119.386C309.817 119.403 309.615 119.412 309.463 119.412C308.42 119.412 307.509 119.26 306.729 118.955C305.956 118.65 305.355 118.182 304.928 117.549C304.506 116.916 304.295 116.104 304.295 115.114V111.203ZM311.73 111.203H314.587V124H311.73V111.203ZM316.635 111.203H319.5V121.785H322.884V111.203H325.74V121.785H329.071V111.203H331.928V124H316.635V111.203ZM336.735 119.57L341.613 111.203H344.47V124H341.613V115.642L336.735 124H333.879V111.203H336.735V119.57ZM355.245 121.785V124H348.434V121.785H355.245ZM349.409 111.203V124H346.544V111.203H349.409ZM354.366 116.354V118.498H348.434V116.354H354.366ZM355.254 111.203V113.427H348.434V111.203H355.254ZM365.177 119.271L368.253 111.203H371.303L366.952 121.434C366.794 121.797 366.612 122.146 366.407 122.479C366.202 122.808 365.959 123.101 365.678 123.358C365.402 123.61 365.071 123.812 364.685 123.965C364.304 124.111 363.853 124.185 363.331 124.185C363.196 124.185 363.035 124.182 362.848 124.176C362.666 124.17 362.514 124.164 362.391 124.158L362.355 121.935C362.432 121.952 362.54 121.964 362.681 121.97C362.827 121.97 362.93 121.97 362.988 121.97C363.34 121.97 363.615 121.923 363.814 121.829C364.02 121.735 364.181 121.601 364.298 121.425C364.421 121.249 364.529 121.029 364.623 120.766L365.177 119.271ZM363.27 111.203L366.047 117.145L366.952 120.379L364.869 120.396L360.22 111.203H363.27ZM379.67 119.711H382.518C382.471 120.59 382.23 121.366 381.797 122.04C381.369 122.708 380.774 123.232 380.013 123.613C379.251 123.988 378.346 124.176 377.297 124.176C376.459 124.176 375.709 124.032 375.047 123.745C374.385 123.458 373.822 123.048 373.359 122.515C372.902 121.976 372.551 121.328 372.305 120.572C372.064 119.811 371.944 118.952 371.944 117.997V117.215C371.944 116.26 372.07 115.401 372.322 114.64C372.574 113.878 372.935 113.228 373.403 112.688C373.872 112.149 374.435 111.736 375.091 111.449C375.747 111.162 376.479 111.019 377.288 111.019C378.378 111.019 379.298 111.215 380.048 111.607C380.798 112 381.378 112.539 381.788 113.225C382.204 113.91 382.453 114.692 382.535 115.571H379.679C379.655 115.073 379.562 114.654 379.397 114.314C379.233 113.969 378.981 113.708 378.642 113.532C378.302 113.356 377.851 113.269 377.288 113.269C376.878 113.269 376.518 113.345 376.207 113.497C375.902 113.649 375.647 113.887 375.442 114.209C375.243 114.531 375.094 114.941 374.994 115.439C374.895 115.932 374.845 116.518 374.845 117.197V117.997C374.845 118.671 374.889 119.254 374.977 119.746C375.064 120.238 375.205 120.646 375.398 120.968C375.598 121.29 375.853 121.53 376.163 121.688C376.474 121.847 376.852 121.926 377.297 121.926C377.807 121.926 378.231 121.847 378.571 121.688C378.911 121.524 379.172 121.278 379.354 120.95C379.535 120.622 379.641 120.209 379.67 119.711ZM392.722 111.203V113.427H386.235V111.203H392.722ZM394.708 111.203V124H391.843V111.203H394.708ZM385.963 111.203H388.811L388.485 117.672C388.433 118.639 388.336 119.479 388.195 120.194C388.061 120.903 387.873 121.504 387.633 121.996C387.398 122.482 387.114 122.875 386.78 123.174C386.446 123.467 386.057 123.678 385.611 123.807C385.166 123.936 384.659 124 384.091 124H383.396V121.785L383.73 121.75C384.012 121.727 384.255 121.653 384.46 121.53C384.671 121.407 384.853 121.226 385.005 120.985C385.157 120.739 385.283 120.426 385.383 120.045C385.488 119.664 385.57 119.201 385.629 118.656C385.693 118.111 385.737 117.473 385.761 116.74L385.963 111.203ZM407.487 117.32V117.892C407.487 118.864 407.353 119.737 407.083 120.511C406.819 121.284 406.441 121.943 405.949 122.488C405.463 123.033 404.883 123.452 404.209 123.745C403.541 124.032 402.8 124.176 401.985 124.176C401.171 124.176 400.427 124.032 399.753 123.745C399.079 123.452 398.493 123.033 397.995 122.488C397.503 121.943 397.122 121.284 396.853 120.511C396.583 119.737 396.448 118.864 396.448 117.892V117.32C396.448 116.348 396.583 115.475 396.853 114.701C397.122 113.922 397.5 113.26 397.986 112.715C398.479 112.17 399.062 111.754 399.735 111.467C400.409 111.174 401.153 111.027 401.968 111.027C402.782 111.027 403.526 111.174 404.2 111.467C404.874 111.754 405.454 112.17 405.94 112.715C406.433 113.26 406.813 113.922 407.083 114.701C407.353 115.475 407.487 116.348 407.487 117.32ZM404.596 117.892V117.303C404.596 116.652 404.537 116.078 404.42 115.58C404.303 115.076 404.133 114.654 403.91 114.314C403.688 113.975 403.412 113.72 403.084 113.55C402.756 113.374 402.384 113.286 401.968 113.286C401.534 113.286 401.156 113.374 400.834 113.55C400.512 113.72 400.239 113.975 400.017 114.314C399.8 114.654 399.633 115.076 399.516 115.58C399.404 116.078 399.349 116.652 399.349 117.303V117.892C399.349 118.536 399.404 119.11 399.516 119.614C399.633 120.112 399.803 120.534 400.025 120.88C400.248 121.226 400.521 121.486 400.843 121.662C401.171 121.838 401.552 121.926 401.985 121.926C402.401 121.926 402.771 121.838 403.093 121.662C403.421 121.486 403.696 121.226 403.919 120.88C404.142 120.534 404.309 120.112 404.42 119.614C404.537 119.11 404.596 118.536 404.596 117.892ZM414.36 118.472H411.073L411.056 116.556H413.771C414.252 116.556 414.642 116.497 414.94 116.38C415.245 116.263 415.468 116.093 415.608 115.87C415.749 115.642 415.819 115.36 415.819 115.026C415.819 114.646 415.749 114.338 415.608 114.104C415.468 113.869 415.245 113.699 414.94 113.594C414.642 113.482 414.255 113.427 413.78 113.427H412.11V124H409.245V111.203H413.78C414.548 111.203 415.233 111.273 415.837 111.414C416.44 111.555 416.953 111.771 417.375 112.064C417.803 112.357 418.128 112.724 418.351 113.163C418.573 113.603 418.685 114.121 418.685 114.719C418.685 115.24 418.567 115.727 418.333 116.178C418.104 116.629 417.735 116.995 417.226 117.276C416.716 117.558 416.033 117.71 415.178 117.733L414.36 118.472ZM414.246 124H410.344L411.381 121.785H414.246C414.686 121.785 415.043 121.715 415.318 121.574C415.594 121.434 415.796 121.243 415.925 121.003C416.054 120.763 416.118 120.493 416.118 120.194C416.118 119.843 416.057 119.538 415.934 119.28C415.816 119.022 415.629 118.823 415.371 118.683C415.119 118.542 414.782 118.472 414.36 118.472H411.794L411.812 116.556H414.949L415.617 117.312C416.432 117.294 417.082 117.426 417.568 117.707C418.061 117.982 418.415 118.346 418.632 118.797C418.849 119.248 418.957 119.726 418.957 120.229C418.957 121.062 418.778 121.759 418.421 122.321C418.063 122.878 417.533 123.297 416.83 123.578C416.133 123.859 415.271 124 414.246 124ZM423.536 119.57L428.414 111.203H431.271V124H428.414V115.642L423.536 124H420.68V111.203H423.536V119.57ZM440.077 119.43H436.632L435.735 119.061C434.71 118.738 433.928 118.258 433.389 117.619C432.85 116.975 432.58 116.157 432.58 115.167C432.58 114.294 432.773 113.564 433.16 112.979C433.553 112.393 434.106 111.95 434.821 111.651C435.536 111.353 436.383 111.203 437.361 111.203H441.914V124H439.04V113.427H437.361C436.693 113.427 436.204 113.597 435.894 113.937C435.589 114.276 435.437 114.763 435.437 115.396C435.437 115.864 435.507 116.245 435.647 116.538C435.794 116.825 436.008 117.036 436.289 117.171C436.576 117.3 436.931 117.364 437.353 117.364H440.068L440.077 119.43ZM437.625 118.322L434.848 124H431.736L434.505 118.322H437.625Z" fill="white"/>
</svg>
