<svg width="42" height="42" viewBox="0 0 42 42" fill="none" xmlns="http://www.w3.org/2000/svg">
<rect width="42" height="42" rx="21" fill="#EFEFEF"/>
<g clip-path="url(#clip0_224_14)">
<path d="M12.0625 15.5C12.0625 14.3312 12.9562 13.4375 14.125 13.4375H16.875" stroke="#0083CA" stroke-width="2" stroke-miterlimit="10" stroke-linecap="round" stroke-linejoin="round"/>
<path d="M23.0625 23.0625C23.0625 21.55 24.3 20.3125 25.8125 20.3125H28.5625C29.3188 20.3125 29.9375 19.6938 29.9375 18.9375C29.9375 18.1812 29.3188 17.5625 28.5625 17.5625H14.125C12.9562 17.5625 12.0625 16.6 12.0625 15.5V26.5C12.0625 27.6 12.9562 28.5625 14.125 28.5625H28.5625C29.3188 28.5625 29.9375 27.9438 29.9375 27.1875C29.9375 26.4312 29.3188 25.8125 28.5625 25.8125H25.8125C24.3 25.8125 23.0625 24.575 23.0625 23.0625Z" stroke="#0083CA" stroke-width="2" stroke-miterlimit="10" stroke-linecap="round" stroke-linejoin="round"/>
<path d="M17.5625 15.5L26.5 12.0625L27.875 15.5H14.8125" stroke="#0083CA" stroke-width="2" stroke-miterlimit="10" stroke-linecap="round" stroke-linejoin="round"/>
<path d="M25.8125 23.0625H27.1875" stroke="#0083CA" stroke-width="2" stroke-miterlimit="10" stroke-linecap="round" stroke-linejoin="round"/>
<path d="M29.9375 18.9375V27.1875" stroke="#0083CA" stroke-width="2" stroke-miterlimit="10" stroke-linecap="round" stroke-linejoin="round"/>
</g>
<defs>
<clipPath id="clip0_224_14">
<rect width="22" height="22" fill="white" transform="translate(10 10)"/>
</clipPath>
</defs>
</svg>
