<svg width="376" height="82" viewBox="0 0 376 82" fill="none" xmlns="http://www.w3.org/2000/svg">
<path d="M13.9924 15.2071H21.7481L21.7099 13.359H14.298C14.0306 13.359 13.916 13.2435 13.916 13.0125V11.0489H20.6784V9.23932H13.916V7.39127C13.916 7.16026 14.0306 7.00626 14.298 7.00626H21.7481V5.15818H14.1452C12.4641 5.15818 11.7383 5.6972 11.7383 7.42978V13.051C11.7383 14.4756 12.3878 15.2071 13.9924 15.2071ZM2.83639 15.2071H8.33799C10.0954 15.2071 10.6685 14.5911 10.6685 13.051V11.1644C10.6685 9.62434 10.0954 9.00832 8.33799 9.00832H2.60716V7.39127C2.60716 7.16026 2.72178 7.04476 2.98921 7.04476H10.1719L10.2101 5.15818H2.68357C1.07893 5.15818 0.429443 5.8512 0.429443 7.31427V12.9355C0.429443 14.6681 1.19356 15.2071 2.83639 15.2071ZM2.60716 10.8564H8.07053C8.33799 10.8564 8.45263 10.9719 8.45263 11.2414V12.974C8.45263 13.2435 8.33799 13.359 8.07053 13.359H2.98921C2.72178 13.359 2.60716 13.2435 2.60716 13.0125V10.8564ZM28.8544 7.69929C28.9689 7.50677 29.16 7.39127 29.3892 7.39127H30.5354V15.2071H32.7131V5.15818H28.8161C28.2431 5.15818 27.67 5.50469 27.4025 6.00521L22.5504 15.2071H24.8428L28.8544 7.69929ZM29.16 24.7555H25.1484V22.7534H32.2164V20.8668H22.9325V30.9158H29.0836C31.7198 30.9158 32.7895 29.5682 32.7895 27.7971C32.8277 26.0646 31.7962 24.7555 29.16 24.7555ZM29.16 29.1062H25.1484V26.6421H29.1982C30.1915 26.6421 30.5736 27.2196 30.5736 27.8741C30.5736 28.5287 30.1915 29.1062 29.16 29.1062ZM39.3227 1L35.1964 5.15818H42.3409V12.358L46.4671 8.1998V1H39.3227ZM39.5519 1.53902H45.0152L36.9921 4.11863L39.5519 1.53902ZM45.894 7.96879L42.8758 11.0104V5.15818V4.61916H42.3409H37.4506L45.894 1.84704V7.96879ZM32.7513 17.0937H0.429443V19.0187H32.7513V17.0937ZM16.896 20.9054H11.9293V22.7919H16.6668C18.0804 22.7919 19.0737 23.6774 19.4176 25.025H12.9991V26.8346H19.3794C19.0737 28.2207 18.0422 29.0677 16.6286 29.0677H11.9293V30.9543H16.8578C19.7614 30.9543 21.7863 28.9137 21.7863 25.9105C21.7863 22.9459 19.7997 20.9054 16.896 20.9054ZM9.21674 25.718C10.0572 25.2945 10.4393 24.6015 10.4393 23.6774C10.4393 22.0219 9.3313 20.9054 6.73336 20.9054H0.429443V30.9543H7.07721C9.7134 30.9543 10.7832 29.7222 10.7832 28.0667C10.7832 26.9501 10.3247 26.1415 9.21674 25.718ZM2.60716 22.7534H6.73336C7.7267 22.7534 8.10872 23.3695 8.10872 23.9855C8.10872 24.6015 7.7267 25.102 6.73336 25.102H2.60716V22.7534ZM7.15361 29.1062H2.60716V26.6806H7.11541C8.14698 26.6806 8.529 27.2196 8.529 27.8741C8.529 28.5287 8.14698 29.1062 7.15361 29.1062Z" fill="white"/>
<g clip-path="url(#clip0_43_3)">
<path d="M79.1852 16.7232C79.5808 23.1891 84.9871 28.4427 91.5801 28.4427C95.404 28.4427 98.8324 26.6915 101.074 23.9973C101.074 23.9973 100.678 24.2668 100.151 23.9973C100.151 23.9973 83.4047 17.5314 79.9763 16.3191H79.7126C79.317 16.3191 79.1852 16.5885 79.1852 16.7232ZM84.5914 5.81195L101.997 14.0291C103.579 14.8373 103.711 13.7597 103.711 13.7597C102.656 7.96726 97.5137 3.65665 91.5801 3.65665C88.9429 3.65665 86.5694 4.46488 84.5914 5.81195Z" fill="white"/>
<path fill-rule="evenodd" clip-rule="evenodd" d="M101.865 19.2827C101.865 19.2827 75.0975 7.02433 74.8338 6.88962C74.0426 6.6202 72.9878 7.29374 73.647 8.23668C73.7789 8.37139 75.8887 11.4697 75.8887 11.4697C75.8887 11.4697 75.2294 10.392 75.3612 9.98787C75.3612 9.71846 75.7568 9.44905 75.8887 9.58375C76.1524 9.71846 101.338 20.7644 101.338 20.7644C102.261 21.1685 103.052 20.8991 103.316 20.2255C103.579 19.6868 103.711 19.0132 103.843 18.4744C103.579 18.6091 103.052 19.8214 101.865 19.2827ZM103.843 14.5679C103.843 14.8373 103.579 16.1844 102.129 15.5109C101.865 15.5109 71.9329 1.36664 71.5373 1.09722C71.0098 0.827808 69.6912 1.23193 70.3505 2.57899L72.724 6.48549C72.724 6.48549 72.3285 5.54255 72.1966 4.7343C72.1966 4.46489 72.4603 4.19548 72.8559 4.33018C72.8559 4.33018 101.997 17.3968 102.261 17.5314C102.92 17.8009 103.843 17.6662 103.975 16.8579V16.0497C103.843 15.5109 103.843 15.1068 103.843 14.5679ZM101.074 22.1114C100.942 22.1114 78.1303 12.2779 77.8666 12.2779C77.0754 12.0084 76.548 12.682 77.0754 13.4902C77.0754 13.625 78.9215 15.915 78.9215 15.915C78.9215 15.915 78.5259 15.2414 78.5259 14.972C78.5259 14.7027 78.6578 14.2984 79.3171 14.5679C79.8445 14.8373 100.415 23.3239 100.415 23.3239C101.074 23.5932 101.601 23.5932 101.865 23.1891C102.261 22.6503 102.656 21.9768 102.92 21.3032C102.525 21.5727 101.997 22.5157 101.074 22.1114Z" fill="white"/>
<path d="M182.037 11.8739V12.8168C182.433 12.9516 182.696 13.0862 182.827 13.4903C182.959 13.7598 183.092 14.568 183.092 15.915V19.6869H179.926V15.915C179.926 14.7027 179.926 13.8944 180.191 13.4903C180.322 13.2209 180.586 12.9516 180.981 12.8168V11.8739H175.707V12.8168C176.103 12.8168 176.498 13.0862 176.63 13.4903C176.762 13.7598 176.762 14.568 176.762 15.7803V24.8057C176.762 26.1528 176.762 26.8263 176.63 27.0957C176.366 27.4999 176.103 27.6346 175.707 27.7692V28.7122H180.85V27.7692C180.454 27.6346 180.191 27.4999 180.058 27.0957C179.926 26.8263 179.795 26.0181 179.795 24.671V20.6298H182.959V24.671C182.959 25.8833 182.959 26.6916 182.696 27.0957C182.564 27.3651 182.3 27.6346 181.905 27.7692V28.7122H187.047V27.7692C186.652 27.7692 186.256 27.4999 186.124 27.0957C185.993 26.8263 185.86 26.0181 185.86 24.8057V15.915C185.86 14.568 185.86 13.8944 186.124 13.625C186.387 13.2209 186.652 12.9516 187.047 12.9516V12.0086H182.037V11.8739ZM123.886 4.33027L119.798 20.3603L115.579 4.46497H109.513V5.40792H110.04C110.436 5.40792 110.832 5.54262 111.095 5.81203C111.359 6.08146 111.491 6.35087 111.623 6.62028C111.755 6.88969 111.755 7.69793 111.755 8.9103V25.6139C111.623 26.1528 111.491 26.6916 111.359 26.961C111.227 27.2304 110.964 27.4999 110.7 27.7692C110.436 27.904 110.172 28.0387 109.777 28.0387H109.645V28.9817H115.051V28.0387C114.392 28.0387 113.865 27.904 113.601 27.4999C113.337 27.0957 113.073 26.6916 112.941 26.0181V7.96734L118.348 28.5774H119.007L124.281 8.23677V24.1322C124.281 25.3446 124.281 26.1528 124.15 26.4222C124.018 26.8263 123.886 27.0957 123.754 27.2304C123.49 27.4999 123.095 27.6346 122.699 27.6346H122.172V28.5774H129.951V27.6346H129.424C129.028 27.6346 128.633 27.4999 128.369 27.3651C128.105 27.0957 127.974 26.8263 127.842 26.5569C127.842 26.2874 127.71 25.4792 127.71 24.2669V8.64088C127.71 7.42852 127.71 6.75499 127.842 6.35087C127.974 5.94675 128.105 5.67733 128.237 5.54262C128.501 5.27321 128.897 5.1385 129.292 5.1385H129.82V4.19556L123.886 4.33027ZM189.42 4.33027V5.27321C189.948 5.40792 190.212 5.54262 190.344 5.81203C190.475 6.08146 190.608 6.88969 190.608 8.23677V24.671C190.608 26.0181 190.608 26.6916 190.344 26.961C190.212 27.3651 189.816 27.4999 189.42 27.6346V28.5774H194.696V27.6346C194.168 27.4999 193.904 27.3651 193.772 27.0957C193.64 26.8263 193.508 26.5569 193.508 24.671V21.9769L194.168 20.8992L196.146 25.4792C196.409 26.2874 196.673 26.6916 196.673 26.961C196.673 27.0957 196.673 27.2304 196.541 27.4999C196.409 27.6346 196.277 27.7692 196.014 27.7692V28.7122H201.288V27.7692C200.892 27.7692 200.629 27.4999 200.365 27.0957C200.233 26.8263 199.574 25.7487 198.651 23.4587L196.277 17.6662C196.277 17.6662 198.519 14.0291 199.31 13.3557C199.574 13.0862 200.102 12.8168 200.496 12.8168V11.8739H195.882V12.8168C197.464 12.8168 197.332 14.1639 196.936 14.8374C196.805 15.1068 193.64 20.091 193.64 20.091V4.33027H189.42ZM132.193 4.33027V10.9309H133.116C133.248 9.17971 133.116 7.69793 133.907 6.75499C134.435 6.08146 135.094 5.67733 136.017 5.67733H137.072V24.1322C137.072 25.3446 137.072 26.1528 136.94 26.4222C136.808 26.8263 136.676 27.0957 136.544 27.2304C136.281 27.4999 135.885 27.6346 135.49 27.6346H134.962V28.5774H142.742V27.7692H142.214C141.819 27.7692 141.423 27.6346 141.16 27.4999C140.896 27.2304 140.764 26.961 140.632 26.6916C140.632 26.4222 140.5 25.6139 140.5 24.4016V5.81203H141.555C142.61 5.81203 143.269 6.08146 143.665 6.88969C144.324 7.83264 144.192 9.17971 144.456 11.0656H145.379V4.46497L132.193 4.33027ZM153.554 26.6916C153.291 26.4222 153.291 25.8833 153.291 25.3446V12.9516C154.346 12.9516 155.269 13.0862 155.796 13.4903C156.324 13.8944 156.851 14.4332 157.115 15.3762C157.906 17.6662 157.906 22.5157 157.247 24.8057C156.983 25.614 156.587 26.1528 156.06 26.6916C155.532 27.0957 155.005 27.3651 154.478 27.3651C154.082 27.2304 153.818 27.0957 153.554 26.6916ZM147.753 4.33027V5.27321C148.412 5.27321 148.939 5.40792 149.203 5.54262C149.467 5.81203 149.599 6.08146 149.731 6.35087C149.862 6.62028 149.862 7.29381 149.862 8.50618V23.9974C149.862 25.3446 149.862 26.1528 149.731 26.4222C149.599 26.6916 149.467 26.961 149.203 27.2304C148.939 27.4999 148.544 27.4999 147.753 27.4999V28.4428H155.269C157.378 28.4428 158.961 27.6346 160.016 26.2874C161.862 23.8628 161.994 16.3192 160.147 13.8944C158.565 11.7391 155.664 11.4698 153.159 11.4698V5.67733H156.06C157.115 5.67733 157.774 5.94675 158.17 6.75499C158.829 7.69793 158.697 9.045 158.961 10.9309H159.884V4.33027H147.753ZM166.872 22.6504C167.268 21.7074 168.323 20.091 169.246 19.2828V24.8057C168.85 25.3446 168.323 25.7487 167.927 25.7487C166.872 25.6139 166.081 24.4016 166.872 22.6504ZM166.477 12.0086C165.686 12.4127 165.158 13.0862 164.763 13.8944C164.367 14.7027 164.235 15.3762 164.103 16.4539C164.103 17.801 164.895 18.4744 165.817 18.4744C166.609 18.4744 167.4 17.801 167.4 16.858C167.4 16.5886 167.268 16.3192 167.136 16.0498C166.872 15.6457 165.818 14.7027 166.872 13.3557C167.136 13.0862 167.532 12.8168 168.059 12.8168C168.85 12.8168 169.114 13.4903 169.378 14.0291C169.51 14.2986 169.51 15.1068 169.51 16.4539V18.0703C167.268 19.6869 165.817 21.1687 165.158 22.1116C164.235 23.0546 163.84 23.9974 163.84 25.2098C163.84 27.0957 164.895 28.7122 166.477 28.7122C168.059 28.7122 168.982 27.6346 169.378 26.0181C169.378 26.961 169.642 27.6346 170.037 28.0387C170.301 28.4428 170.828 28.7122 171.356 28.7122C171.883 28.7122 172.542 28.5774 172.938 28.1733C173.334 27.7692 173.729 27.2304 173.993 26.2874L173.334 25.7487C173.07 26.1528 172.674 26.1528 172.674 26.0181C172.542 25.8833 172.542 25.7487 172.542 25.6139V18.0703C172.542 16.1844 172.542 15.1068 172.411 14.568C172.147 13.0862 171.224 11.335 168.982 11.335C167.927 11.335 167.268 11.6044 166.477 12.0086Z" fill="white"/>
</g>
<g clip-path="url(#clip1_43_3)">
<path fill-rule="evenodd" clip-rule="evenodd" d="M11.946 74.14C9.90021 74.14 7.90034 73.5326 6.19935 72.3946C4.49836 71.2567 3.17267 69.6394 2.38995 67.7471C1.60724 65.8549 1.40265 63.7728 1.80207 61.7641C2.20148 59.7555 3.18696 57.9105 4.63387 56.4626C6.08078 55.0147 7.92411 54.0288 9.93072 53.6298C11.9373 53.2307 14.0171 53.4363 15.907 54.2207C17.7968 55.005 19.4119 56.3327 20.5479 58.036C21.6839 59.7393 22.2899 61.7416 22.289 63.7897C22.2918 65.15 22.0261 66.4975 21.5071 67.7547C20.9882 69.012 20.2264 70.1541 19.2655 71.1159C18.3044 72.0776 17.1631 72.8397 15.907 73.3587C14.651 73.8776 13.3048 74.1431 11.946 74.14Z" fill="#3A3F32"/>
<path fill-rule="evenodd" clip-rule="evenodd" d="M11.946 74.14C9.90021 74.14 7.90034 73.5326 6.19935 72.3946C4.49836 71.2567 3.17267 69.6394 2.38995 67.7471C1.60724 65.8549 1.40265 63.7728 1.80207 61.7641C2.20148 59.7555 3.18696 57.9105 4.63387 56.4626C6.08078 55.0147 7.92411 54.0288 9.93072 53.6298C11.9373 53.2307 14.0171 53.4363 15.907 54.2207C17.7968 55.005 19.4119 56.3327 20.5479 58.036C21.6839 59.7393 22.2899 61.7416 22.289 63.7897C22.2918 65.15 22.0261 66.4975 21.5071 67.7547C20.9882 69.012 20.2264 70.1541 19.2655 71.1159C18.3044 72.0776 17.1631 72.8397 15.907 73.3587C14.651 73.8776 13.3048 74.1431 11.946 74.14Z" fill="#3A3F32"/>
<path d="M15.1761 53.5166C14.1605 53.1822 13.0968 53.0167 12.0276 53.0266H11.9501C9.08855 53.0266 6.34416 54.1646 4.32073 56.1903C2.29729 58.2159 1.16052 60.9633 1.16052 63.828C1.16052 66.6928 2.29729 69.4401 4.32073 71.4658C6.34416 73.4914 9.08855 74.6294 11.9501 74.6294H12.0276C13.101 74.61 14.1643 74.417 15.1761 74.0578C17.3571 73.3681 19.2618 72.0006 20.6138 70.1538C21.9658 68.307 22.6947 66.0769 22.6947 63.7872C22.6947 61.4975 21.9658 59.2674 20.6138 57.4205C19.2618 55.5737 17.3571 54.2062 15.1761 53.5166ZM15.1761 73.6576C14.1594 73.9873 13.0963 74.1513 12.0276 74.1435H11.9501C9.207 74.1435 6.5762 73.0526 4.63651 71.1108C2.69681 69.169 1.60712 66.5354 1.60712 63.7892C1.60712 61.0431 2.69681 58.4094 4.63651 56.4676C6.5762 54.5258 9.207 53.4349 11.9501 53.4349H12.0276C13.1014 53.4512 14.1651 53.6444 15.1761 54.0065C17.2455 54.6842 19.0479 55.9993 20.3259 57.764C21.6039 59.5286 22.292 61.6525 22.292 63.8321C22.292 66.0118 21.6039 68.1355 20.3259 69.9001C19.0479 71.6649 17.2455 72.98 15.1761 73.6576Z" fill="white"/>
<path d="M19.1364 58.6901C19.3908 59.3414 19.5288 60.0324 19.5442 60.7315C19.5442 63.7202 16.5547 64.9329 15.3434 64.8553H15.1802C15.0252 64.8553 14.9396 64.7778 14.9396 64.696C14.9396 64.4511 15.0212 64.2878 15.1802 64.2878C15.2236 64.2433 15.2814 64.2158 15.3434 64.2102C15.6696 64.2102 15.7512 64.2878 16.0693 64.2878C16.3875 64.2878 16.4771 64.0428 16.6362 63.7161C16.7221 63.6169 16.7873 63.5015 16.8279 63.3767C16.8686 63.2519 16.8838 63.1202 16.8728 62.9894C16.8728 62.3443 16.2243 61.05 15.9063 59.8374C15.9063 60.1599 15.9063 60.8826 15.5881 60.8826C15.5043 60.885 15.4217 60.8637 15.3495 60.821C15.2773 60.7784 15.2186 60.7163 15.1802 60.6417C15.0252 60.4008 14.8622 60.0783 14.7031 59.8251C14.7419 60.1465 14.7419 60.4714 14.7031 60.7928C14.7031 61.1112 14.6174 61.3562 14.4583 61.3562C14.2993 61.3562 14.0505 61.1112 14.0505 60.5396C14.0505 59.968 14.128 59.5638 14.128 58.5962C14.1386 57.9195 13.9434 57.2556 13.5682 56.6926C13.1931 56.1296 12.6557 55.6942 12.0276 55.4441C11.7138 55.348 11.3889 55.2931 11.061 55.2808C8.2346 55.2808 7.90832 57.8653 7.75334 57.9429C7.59836 58.0205 7.42706 57.4652 6.5298 57.4652C5.48163 57.4652 4.34782 58.8411 3.94814 59.6536C3.25876 60.9451 2.89738 62.3866 2.89587 63.8509C2.90775 66.243 3.86752 68.5325 5.56441 70.2168C7.26129 71.9009 9.55653 72.842 11.946 72.8334H12.0235C13.1059 72.8311 14.1769 72.6104 15.1721 72.1841C16.8636 71.5466 18.3201 70.4069 19.3464 68.9175C20.3728 67.4281 20.9199 65.6603 20.9145 63.8509C20.9102 61.9651 20.3169 60.1278 19.2179 58.5962L19.1364 58.6901ZM12.0276 63.3813C11.3427 62.5337 10.9723 61.4747 10.9794 60.3845C10.9794 59.8251 11.1466 59.7394 11.3057 59.7394C11.632 59.7394 11.791 60.2253 12.0276 60.8704C12.0863 61.1085 12.1978 61.3304 12.3539 61.5195C12.5985 62.0871 12.7617 62.4096 12.9982 62.9771C12.9439 63.3868 12.9716 63.8032 13.0799 64.202C12.7139 63.9467 12.3613 63.6728 12.0235 63.3813H12.0276ZM15.1762 68.9586C14.9271 68.9534 14.6815 68.899 14.4535 68.7986C14.2254 68.6983 14.0193 68.5539 13.8469 68.3738C13.6746 68.1938 13.5395 67.9814 13.4491 67.749C13.3588 67.5165 13.3151 67.2686 13.3205 67.0193C13.3427 66.5815 13.4838 66.158 13.7283 65.7944C14.1362 66.3578 14.699 66.7661 15.1762 66.3578L15.2577 66.2761C15.6655 65.8679 15.3393 65.3085 15.1762 65.1451C15.4258 65.1398 15.674 65.1836 15.9066 65.2743C16.1393 65.3649 16.3519 65.5005 16.5321 65.6735C16.7124 65.8464 16.8568 66.0531 16.9574 66.2819C17.0578 66.5108 17.1122 66.7571 17.1176 67.007C17.1143 67.5226 16.9092 68.0164 16.5461 68.3821C16.1831 68.7479 15.6911 68.9564 15.1762 68.9628V68.9586Z" fill="white"/>
<path d="M49.2722 70.502L51.3767 63.953L53.8768 56.0198H51.3767H33.8433L29.2346 70.502H36.7513L39.904 60.311H44.9898L41.7637 70.502H49.2722Z" fill="white"/>
<path d="M68.4167 65.6475C68.5798 65.3249 69.3057 63.0629 68.1761 61.6094C67.5317 60.7153 66.3204 60.1518 64.1343 60.1518C62.6029 60.0956 61.0963 60.5509 59.8519 61.4461C59.5213 61.6784 59.2224 61.9529 58.9628 62.2627L59.6112 60.4049H53.3916L51.3932 66.709L48.8889 74.638H55.4716L57.2498 69.2159C57.5721 69.7017 58.1348 70.4407 59.8356 70.6735C60.1824 70.738 60.5353 70.764 60.8878 70.7511C65.4109 70.7511 67.3522 68.0809 68.1597 66.3824C68.2704 66.1469 68.3565 65.9006 68.4167 65.6475ZM61.5486 65.6475C61.3854 66.1334 60.9816 67.2806 59.8519 67.5869C59.6505 67.6887 59.429 67.7445 59.2034 67.7501C57.5721 67.7501 57.9799 66.215 58.2368 65.48C58.4816 64.9125 58.7996 63.7856 59.8682 63.459C60.1129 63.459 60.2761 63.3814 60.5207 63.3814C62.2134 63.3814 61.7442 64.9125 61.5648 65.6475H61.5486Z" fill="white"/>
<path d="M172.638 60.3886H171.507H166.015L164.881 63.953H162.535L163.669 60.3886H156.965L154.301 68.6401L153.734 70.502H154.301H160.438L161.565 66.86H163.91L162.78 70.502H169.404L171.507 63.953L172.638 60.3886Z" fill="white"/>
<path d="M191.704 60.3886H184.111L178.939 64.4348L181.688 55.9382H174.979L171.509 66.9499L170.374 70.502H171.509H177.001L178.617 65.5699L180.804 70.502H188.634L185.562 64.839L191.704 60.3886Z" fill="white"/>
<path d="M154.782 64.349C154.863 64.0305 154.863 63.7896 154.946 63.5324C155.007 63.1924 154.981 62.8421 154.867 62.5158C154.753 62.1894 154.556 61.8982 154.296 61.6706C153.481 60.7805 151.629 60.1354 147.67 60.1354H146.135C144.643 60.2138 143.159 60.4021 141.694 60.6989L140.805 63.5324C142.408 63.0538 144.065 62.7794 145.736 62.7158H146.144C148.648 62.7934 148.888 63.4385 148.811 63.9407C148.816 63.9847 148.81 64.0291 148.796 64.0708C148.781 64.1125 148.757 64.1503 148.726 64.1816C147.896 64.0783 147.062 64.0238 146.225 64.0183H146.144C141.136 64.0183 139.036 65.6515 138.146 67.0927C138.004 67.4027 137.897 67.7272 137.824 68.0604C137.751 68.3241 137.742 68.6014 137.798 68.8691C137.854 69.137 137.974 69.3874 138.146 69.5996C138.791 70.3224 140.247 70.7306 142.025 70.7306C143.457 70.758 144.873 70.4254 146.144 69.763C146.552 69.4364 146.869 69.1914 147.11 69.0321L146.63 70.4856H152.849L154.305 65.7167L154.782 64.349ZM148.081 66.3905C147.887 66.9064 147.549 67.3555 147.107 67.6847C146.8 67.8557 146.476 67.9926 146.14 68.093C145.903 68.1571 145.658 68.1832 145.414 68.1706C144.525 68.1706 144.044 67.9339 144.121 67.448V67.203C144.24 66.9471 144.42 66.7247 144.646 66.5557C144.872 66.3869 145.135 66.2767 145.414 66.2354C145.655 66.2354 145.822 66.1536 146.14 66.1536C146.594 66.0771 147.054 66.0497 147.514 66.072H148.163L148.081 66.3905Z" fill="white"/>
<path d="M138.46 64.7573C138.666 63.9615 138.55 63.1166 138.138 62.4056C137.49 61.1807 135.715 60.2212 132.082 60.2212C131.378 60.2275 130.673 60.2821 129.977 60.3845C128.929 60.6254 128.125 61.1113 126.987 61.9238C127.151 60.7928 128.362 59.8211 129.41 59.4169C129.581 59.3152 129.774 59.259 129.973 59.2535C130.984 58.9964 132.012 58.8068 133.048 58.686C134.002 58.6162 134.947 58.4535 135.87 58.2001L135.951 58.0409L137.583 53.023C137.339 53.023 137.094 53.1087 136.858 53.1087C135.724 53.268 134.594 53.4313 133.383 53.5946C132.223 53.7755 131.084 54.0737 129.985 54.4847C129.826 54.4847 129.744 54.5663 129.577 54.5663C128.227 55.1798 126.996 56.0286 125.944 57.0733C124.66 58.5689 123.623 60.2601 122.872 62.083C122.22 63.3575 121.757 64.7206 121.498 66.1293C121.416 66.2884 120.123 70.7348 128.202 70.7348C128.795 70.7494 129.389 70.7235 129.977 70.6571C135.471 70.2489 137.408 67.5828 138.134 65.725C138.281 65.4166 138.39 65.0918 138.46 64.7573ZM131.331 65.3249C131.09 66.0516 130.765 67.2643 129.957 67.6685C129.709 67.8096 129.423 67.867 129.141 67.8318C127.848 67.8318 128.17 66.4558 128.574 65.2431C128.658 64.843 128.824 64.4645 129.06 64.131C129.297 63.7974 129.6 63.5159 129.948 63.3038C130.15 63.2018 130.371 63.146 130.597 63.1405C131.999 63.1364 131.674 64.349 131.331 65.3249Z" fill="white"/>
<path d="M116.571 60.1478C115.051 60.0995 113.556 60.5481 112.313 61.4257C111.999 61.6783 111.702 61.9511 111.424 62.2423L112.068 60.3846H105.82L102.672 70.4164L101.297 74.6259H108.002L109.715 69.2037C110.037 69.6896 110.686 70.4286 112.301 70.6614C112.673 70.7287 113.052 70.7547 113.431 70.7389C118.684 70.7389 120.539 67.0194 120.943 65.6434C121.331 64.194 122.301 60.1478 116.571 60.1478ZM113.981 65.6475C113.822 66.215 113.418 67.3419 112.289 67.5869C112.087 67.6869 111.865 67.7425 111.64 67.7502C110.009 67.7502 110.417 66.215 110.67 65.4801C110.829 64.9126 111.314 63.8469 112.301 63.5448C112.532 63.4509 112.778 63.3957 113.027 63.3815C114.634 63.3815 114.226 64.9166 113.981 65.6475Z" fill="white"/>
<path d="M102.672 67.2643C103.226 66.5385 103.641 65.7161 103.895 64.839C104.101 64.2051 104.092 63.5211 103.871 62.8925C103.65 62.2639 103.229 61.7255 102.672 61.3603C101.62 60.6295 99.7639 60.1354 96.7786 60.1354C96.2104 60.1184 95.6419 60.1444 95.0778 60.213C89.5066 60.6213 87.5653 62.9649 86.8393 64.4184C86.7814 64.6971 86.6996 64.9704 86.5946 65.235C86.4355 65.8841 86.0277 67.4194 86.8393 68.632C87.6549 69.767 89.425 70.7348 93.3648 70.7348C93.9314 70.7478 94.4983 70.7219 95.0614 70.6571C99.2827 70.3346 101.457 68.7994 102.672 67.2643ZM96.6112 65.2228C96.3706 65.9536 96.0485 67.1621 95.0778 67.648C94.8181 67.7516 94.5416 67.807 94.2621 67.8114C92.7326 67.8114 93.373 66.1169 93.7033 65.2228C93.7701 64.8065 93.9269 64.4099 94.1631 64.0608C94.399 63.7117 94.7085 63.4185 95.0697 63.2017C95.3016 63.1103 95.5467 63.0565 95.7956 63.0425C97.2598 63.0629 96.8519 64.4348 96.6112 65.2391V65.2228Z" fill="white"/>
<path d="M87.406 60.3886H86.839H79.3225L74.5588 66.3741L76.7408 60.3886H70.7617L68.1759 68.4769L67.5316 70.502H68.1759H75.4478L80.4604 64.349L78.1967 70.502H84.1717L86.839 62.0095L87.406 60.3886Z" fill="white"/>
<path fill-rule="evenodd" clip-rule="evenodd" d="M246.246 58.6166C246.246 58.6742 246.274 58.7319 246.287 58.7896C246.274 58.7319 246.262 58.6742 246.246 58.6166Z" fill="white"/>
<path fill-rule="evenodd" clip-rule="evenodd" d="M246.055 58.0818L246.112 58.2259L246.055 58.0818Z" fill="white"/>
<path fill-rule="evenodd" clip-rule="evenodd" d="M245.936 57.8449L246.006 57.9767L245.936 57.8449Z" fill="white"/>
<path fill-rule="evenodd" clip-rule="evenodd" d="M246.156 58.339C246.156 58.3884 246.19 58.442 246.206 58.4955C246.193 58.442 246.177 58.3925 246.156 58.339Z" fill="white"/>
<path fill-rule="evenodd" clip-rule="evenodd" d="M246.368 59.2332C246.368 59.3073 246.368 59.3856 246.393 59.4597C246.384 59.3856 246.381 59.3073 246.368 59.2332Z" fill="white"/>
<path fill-rule="evenodd" clip-rule="evenodd" d="M246.316 58.9147C246.316 58.9765 246.336 59.0424 246.348 59.1083C246.344 59.0424 246.344 58.9765 246.316 58.9147Z" fill="white"/>
<path fill-rule="evenodd" clip-rule="evenodd" d="M246.406 59.5721C246.406 59.6908 246.406 59.8095 246.406 59.9365C246.418 59.8095 246.413 59.6908 246.406 59.5721Z" fill="white"/>
<path fill-rule="evenodd" clip-rule="evenodd" d="M234.579 62.6261C234.52 62.7666 234.452 62.9034 234.378 63.0356C234.454 62.9034 234.52 62.7667 234.579 62.6261Z" fill="white"/>
<path fill-rule="evenodd" clip-rule="evenodd" d="M234.32 63.1004L234.379 63.0098L234.32 63.1004Z" fill="white"/>
<path fill-rule="evenodd" clip-rule="evenodd" d="M234.855 61.6625C234.813 61.9141 234.75 62.1615 234.663 62.4015C234.75 62.1615 234.813 61.9142 234.855 61.6625Z" fill="white"/>
<path fill-rule="evenodd" clip-rule="evenodd" d="M234.32 68.4197L235.581 70.4939L234.32 68.4197Z" fill="white"/>
<path fill-rule="evenodd" clip-rule="evenodd" d="M234.924 60.7847C234.924 60.9852 234.913 61.1856 234.892 61.3849C234.913 61.1856 234.924 60.9852 234.924 60.7847C234.968 59.7884 234.76 58.7971 234.32 57.9022C234.76 58.7972 234.968 59.7884 234.924 60.7847Z" fill="white"/>
<path fill-rule="evenodd" clip-rule="evenodd" d="M234.145 63.3535C234.206 63.2757 234.264 63.1896 234.318 63.0995C234.264 63.1896 234.206 63.2757 234.145 63.3535Z" fill="white"/>
<path fill-rule="evenodd" clip-rule="evenodd" d="M245.745 57.5348L245.806 57.6253L245.745 57.5348Z" fill="white"/>
<path fill-rule="evenodd" clip-rule="evenodd" d="M245.088 56.8528L245.133 56.8903L245.088 56.8528Z" fill="white"/>
<path fill-rule="evenodd" clip-rule="evenodd" d="M244.427 56.4568L244.514 56.498L244.427 56.4568Z" fill="white"/>
<path fill-rule="evenodd" clip-rule="evenodd" d="M245.267 56.9997L245.329 57.0617L245.267 56.9997Z" fill="white"/>
<path fill-rule="evenodd" clip-rule="evenodd" d="M245.434 57.159L245.5 57.2331L245.434 57.159Z" fill="white"/>
<path fill-rule="evenodd" clip-rule="evenodd" d="M245.593 57.3184L245.659 57.4007L245.593 57.3184Z" fill="white"/>
<path fill-rule="evenodd" clip-rule="evenodd" d="M244.851 56.6896L244.905 56.7228L244.851 56.6896Z" fill="white"/>
<path fill-rule="evenodd" clip-rule="evenodd" d="M244.714 56.6043L244.66 56.5752L244.714 56.6043Z" fill="white"/>
<path fill-rule="evenodd" clip-rule="evenodd" d="M245.936 57.8334L245.887 57.7428L245.936 57.8334Z" fill="white"/>
<path fill-rule="evenodd" clip-rule="evenodd" d="M244.219 56.367L244.309 56.404L244.219 56.367Z" fill="white"/>
<path fill-rule="evenodd" clip-rule="evenodd" d="M243.591 56.1628L243.686 56.1875L243.591 56.1628Z" fill="white"/>
<path fill-rule="evenodd" clip-rule="evenodd" d="M243.383 56.1138L243.478 56.1344L243.383 56.1138Z" fill="white"/>
<path fill-rule="evenodd" clip-rule="evenodd" d="M243.803 56.22L243.897 56.2488L243.803 56.22Z" fill="white"/>
<path fill-rule="evenodd" clip-rule="evenodd" d="M244.011 56.2893L244.106 56.3223L244.011 56.2893Z" fill="white"/>
<path fill-rule="evenodd" clip-rule="evenodd" d="M246.344 59.1026C246.344 59.1438 246.344 59.1891 246.364 59.2303C246.344 59.1891 246.344 59.1479 246.344 59.1026Z" fill="white"/>
<path fill-rule="evenodd" clip-rule="evenodd" d="M246.393 59.4578C246.393 59.4948 246.393 59.5317 246.393 59.5728C246.402 59.5359 246.397 59.4989 246.393 59.4578Z" fill="white"/>
<path fill-rule="evenodd" clip-rule="evenodd" d="M246.006 57.9755L246.055 58.0864L246.006 57.9755Z" fill="white"/>
<path fill-rule="evenodd" clip-rule="evenodd" d="M246.21 58.4942L246.246 58.6174L246.21 58.4942Z" fill="white"/>
<path fill-rule="evenodd" clip-rule="evenodd" d="M246.287 58.7881C246.287 58.8293 246.287 58.8746 246.316 58.9158C246.307 58.8705 246.296 58.8293 246.287 58.7881Z" fill="white"/>
<path fill-rule="evenodd" clip-rule="evenodd" d="M246.111 58.2247L246.157 58.3397L246.111 58.2247Z" fill="white"/>
<path fill-rule="evenodd" clip-rule="evenodd" d="M245.936 55.9504V56.6037C246.605 57.2733 247.16 58.3144 247.16 59.9313C247.189 60.4859 247.094 61.0401 246.883 61.5535C246.67 62.067 246.347 62.5268 245.936 62.8995C246.513 63.2502 246.989 63.7435 247.32 64.3321C247.651 64.9206 247.824 65.5845 247.824 66.2598C247.84 66.8514 247.734 67.4399 247.514 67.989C247.295 68.5381 246.964 69.0363 246.544 69.4526C246.356 69.6426 246.152 69.8175 245.936 69.9753V70.4898H250.887V55.9504H245.936Z" fill="white"/>
<path fill-rule="evenodd" clip-rule="evenodd" d="M247.095 66.2597C247.1 65.7897 246.999 65.3245 246.798 64.8999C246.595 64.4752 246.299 64.1024 245.932 63.81C245.433 63.4091 244.855 63.1196 244.236 62.9608C244.928 62.7987 245.534 62.38 245.932 61.789C246.278 61.2361 246.449 60.5913 246.422 59.9394C246.422 59.8128 246.422 59.6944 246.422 59.576C246.422 59.5352 246.422 59.4985 246.422 59.4617C246.422 59.425 246.422 59.3066 246.397 59.2372C246.373 59.1677 246.397 59.1514 246.377 59.1106C246.356 59.0698 246.377 58.984 246.344 58.9187C246.312 58.8533 246.344 58.8329 246.316 58.7921C246.287 58.7513 246.287 58.6778 246.275 58.6206L246.238 58.4981C246.238 58.4451 246.206 58.3961 246.19 58.343L246.145 58.2287L246.087 58.0858L246.039 57.9796L245.969 57.8489L245.92 57.7591L245.843 57.6366L245.781 57.5468L245.695 57.4325L245.63 57.3508L245.537 57.2447L245.472 57.1712L245.366 57.0691L245.304 57.0079L245.169 56.8976L245.125 56.8609L244.941 56.7302L244.889 56.6976L244.75 56.6118L244.696 56.5832H244.676L244.554 56.5179L244.468 56.4771L244.349 56.424L244.26 56.3872L244.142 56.3423L244.048 56.3097L243.93 56.2689L243.836 56.2403L243.721 56.2076L243.627 56.1831L243.514 56.1545L243.42 56.1341L243.302 56.1096H243.212H243.093H243.008H242.882H242.803H242.67H242.604L242.229 56.0851H238.803H234.32V56.771C235.137 57.5876 235.671 58.886 235.675 60.9193C235.7 61.5642 235.592 62.2074 235.36 62.8092C235.127 63.411 234.773 63.9587 234.32 64.4184V67.109L236.217 70.2366L236.454 70.6449H242.213C243.582 70.5836 244.892 70.063 245.932 69.1669C246.332 68.8007 246.643 68.3494 246.845 67.8461C247.046 67.3427 247.131 66.8006 247.095 66.2597ZM239.28 59.3188H240.259C240.413 59.3043 240.569 59.3206 240.717 59.3668C240.865 59.4131 241.003 59.4884 241.121 59.5883C241.24 59.6882 241.339 59.8108 241.41 59.9489C241.48 60.087 241.523 60.2378 241.536 60.3926C241.536 60.9928 240.977 61.4583 240.235 61.4828H239.28V59.3188ZM240.634 66.9825H239.296V64.5817H240.818C240.974 64.5795 241.13 64.6089 241.275 64.668C241.421 64.7272 241.552 64.815 241.663 64.9262C241.774 65.0374 241.862 65.1697 241.919 65.3154C241.978 65.461 242.007 65.617 242.004 65.7739C241.979 66.1147 241.822 66.4322 241.566 66.6581C241.31 66.884 240.975 67.0005 240.634 66.9825Z" fill="white"/>
<path fill-rule="evenodd" clip-rule="evenodd" d="M233.57 67.1868L232.069 64.7125C232.386 64.6371 232.691 64.5176 232.974 64.3572C233.115 64.2839 233.251 64.2021 233.382 64.1123L233.586 63.953C233.652 63.8999 233.717 63.8428 233.782 63.7816C233.873 63.6949 233.958 63.6036 234.039 63.508L234.161 63.3528C234.223 63.2753 234.28 63.1895 234.333 63.0997L234.39 63.0099C234.465 62.8781 234.531 62.7417 234.59 62.6016C234.622 62.5322 234.651 62.4587 234.675 62.3852C234.761 62.1452 234.826 61.8978 234.867 61.6462C234.883 61.5563 234.896 61.4638 234.903 61.3685C234.926 61.1692 234.937 60.9689 234.937 60.7683C234.979 59.772 234.772 58.7808 234.333 57.8858C234.26 57.7513 234.178 57.6217 234.088 57.4979C234.003 57.3813 233.911 57.2708 233.811 57.1672C233.737 57.0937 233.663 57.0243 233.586 56.959L233.444 56.8447C233.37 56.7916 233.296 56.7385 233.219 56.6895L232.983 56.5548C232.858 56.4879 232.731 56.428 232.599 56.3751C232.447 56.3154 232.292 56.2636 232.135 56.22C231.807 56.1295 231.473 56.064 231.135 56.024C230.964 56.0036 230.789 55.9872 230.613 55.975L230.083 55.9464H229.814H229.276H222.383V70.4898H227.334V64.9819L230.075 70.4898H235.576L234.32 68.4156L233.57 67.1868ZM229.659 61.6543C229.604 61.7718 229.533 61.8805 229.447 61.9769L229.353 62.0708C229.287 62.1304 229.217 62.1837 229.141 62.23C228.902 62.3777 228.626 62.4555 228.345 62.4546H227.305V59.8578H228.374H228.521C228.614 59.8659 228.705 59.8823 228.794 59.9069L228.953 59.964C229.103 60.0261 229.242 60.1146 229.36 60.2253C229.423 60.2835 229.479 60.3478 229.528 60.4172L229.598 60.5234C229.706 60.712 229.763 60.9263 229.761 61.144C229.764 61.3194 229.729 61.4935 229.659 61.6543Z" fill="white"/>
<path fill-rule="evenodd" clip-rule="evenodd" d="M209.552 76.6305H211.028C210.937 77.0656 210.701 77.4571 210.36 77.741C210.039 78.0393 209.618 78.2068 209.181 78.2105C208.943 78.2209 208.707 78.1714 208.493 78.0665C208.279 77.9616 208.095 77.8049 207.958 77.6104C207.678 77.2176 207.536 76.7446 207.549 76.263C207.549 76.099 207.562 75.9353 207.587 75.773C207.682 75.1536 207.944 74.572 208.345 74.0909C208.532 73.8418 208.773 73.6386 209.05 73.497C209.326 73.3555 209.632 73.2793 209.943 73.2743C210.275 73.2679 210.6 73.3793 210.857 73.5886C211.1 73.7971 211.274 74.0749 211.355 74.3849L212.656 73.7398C212.49 73.2374 212.159 72.8059 211.717 72.5149C211.257 72.2201 210.718 72.0694 210.171 72.0821C209.678 72.0784 209.189 72.1736 208.732 72.3623C208.275 72.5509 207.86 72.829 207.513 73.1804C206.796 73.8758 206.328 74.7886 206.183 75.7771C206.146 75.997 206.127 76.2196 206.126 76.4426C206.096 77.2094 206.357 77.9589 206.856 78.5413C207.114 78.8326 207.433 79.0628 207.79 79.2146C208.149 79.3665 208.536 79.4364 208.924 79.4191C209.407 79.4286 209.886 79.3336 210.329 79.1405C210.772 78.9474 211.168 78.6609 211.489 78.3004C212.143 77.5711 212.564 76.6624 212.696 75.6914L212.725 75.5159H209.723L209.552 76.6305Z" fill="white"/>
<path fill-rule="evenodd" clip-rule="evenodd" d="M219.65 75.1606L219.724 74.6911H218.435L217.713 79.2273H219.002L219.324 77.1858C219.366 76.8319 219.473 76.4888 219.639 76.1731C219.732 76.0165 219.867 75.8879 220.027 75.801C220.188 75.7141 220.369 75.672 220.551 75.6791C220.737 75.6744 220.918 75.7366 221.062 75.8548L221.404 74.6544C221.241 74.5839 221.065 74.5464 220.886 74.5441C220.646 74.5414 220.409 74.5959 220.194 74.703C219.98 74.8103 219.792 74.9671 219.65 75.1606Z" fill="white"/>
<path fill-rule="evenodd" clip-rule="evenodd" d="M228.806 74.5401C228.136 74.5282 227.484 74.7704 226.983 75.2179C226.678 75.4969 226.434 75.836 226.266 76.2141C226.099 76.5921 226.01 77.0009 226.009 77.4145C225.998 77.6759 226.042 77.9366 226.137 78.1804C226.231 78.4241 226.375 78.6457 226.56 78.8312C226.758 79.0149 226.992 79.1571 227.245 79.2496C227.5 79.3421 227.77 79.3831 228.039 79.3702C228.712 79.3829 229.367 79.1425 229.871 78.6965C230.384 78.2499 230.718 77.6317 230.809 76.9572C230.833 76.8087 230.845 76.6585 230.846 76.5081C230.858 76.2444 230.814 75.9811 230.719 75.7351C230.623 75.4891 230.478 75.2657 230.291 75.0791C230.092 74.8949 229.857 74.7524 229.603 74.6599C229.348 74.5674 229.077 74.5266 228.806 74.5401ZM229.153 77.7411C229.048 77.8911 228.91 78.0141 228.747 78.1C228.586 78.1859 228.407 78.2322 228.223 78.2351C228.094 78.2377 227.966 78.2095 227.85 78.1526C227.734 78.0959 227.632 78.0122 227.555 77.9085C227.399 77.6989 227.32 77.4425 227.33 77.1817C227.334 76.8129 227.461 76.456 227.694 76.1692C227.801 76.0189 227.942 75.896 228.106 75.8102C228.269 75.7244 228.45 75.6781 228.635 75.6751C228.761 75.6695 228.887 75.6944 229.001 75.7477C229.116 75.801 229.216 75.8812 229.292 75.9814C229.453 76.1951 229.537 76.4571 229.528 76.7245C229.524 77.0941 229.392 77.4507 229.153 77.733V77.7411Z" fill="white"/>
<path fill-rule="evenodd" clip-rule="evenodd" d="M239.06 77.1491C238.935 77.9057 238.624 78.2841 238.126 78.2841C237.721 78.2841 237.518 78.05 237.518 77.5819C237.522 77.4357 237.543 77.2905 237.579 77.1491L237.959 74.6994H236.67L236.262 77.3696C236.233 77.534 236.218 77.7006 236.217 77.8677C236.217 78.8775 236.802 79.3825 237.971 79.3825C239.331 79.3825 240.115 78.7115 240.325 77.3696L240.732 74.6994H239.443L239.06 77.1491Z" fill="white"/>
<path fill-rule="evenodd" clip-rule="evenodd" d="M250.422 75.1321C250.27 74.9388 250.074 74.7843 249.852 74.6814C249.628 74.5785 249.384 74.53 249.138 74.5401C248.888 74.5373 248.639 74.5858 248.408 74.6828C248.177 74.7796 247.969 74.9229 247.797 75.1036L247.861 74.6953H246.573L245.475 81.6608H246.751L247.192 78.8028C247.305 78.995 247.469 79.1511 247.668 79.2525C247.865 79.3538 248.089 79.3961 248.31 79.3744C248.664 79.3734 249.013 79.2895 249.329 79.1293C249.645 78.969 249.919 78.7369 250.129 78.4516C250.586 77.9075 250.835 77.2188 250.831 76.5081C250.861 76.0158 250.716 75.5284 250.422 75.1321ZM249.158 77.733C249.053 77.8818 248.914 78.0039 248.754 78.0896C248.593 78.1754 248.415 78.2225 248.232 78.227C248.102 78.2296 247.975 78.2014 247.859 78.1445C247.742 78.0878 247.64 78.004 247.563 77.9004C247.409 77.6869 247.331 77.4285 247.34 77.1655C247.341 76.7973 247.472 76.4414 247.71 76.1611C247.815 76.0114 247.953 75.8885 248.114 75.8026C248.275 75.7168 248.453 75.6704 248.636 75.667C248.764 75.663 248.89 75.6906 249.005 75.7476C249.12 75.8046 249.219 75.8891 249.292 75.9936C249.452 76.2014 249.535 76.4585 249.525 76.7205C249.525 77.0904 249.395 77.4484 249.158 77.733Z" fill="white"/>
<path fill-rule="evenodd" clip-rule="evenodd" d="M206.248 55.9341H220.764L220.767 70.4775L206.248 70.4694V55.9341Z" fill="#D8D9D9"/>
<path fill-rule="evenodd" clip-rule="evenodd" d="M206.248 55.9341H220.764L220.767 70.4775L206.248 70.4694V55.9341Z" fill="white"/>
<path fill-rule="evenodd" clip-rule="evenodd" d="M206.64 70.0692L206.637 56.3424H220.355L220.344 70.0732L206.64 70.0692Z" fill="#3A3F32"/>
<path fill-rule="evenodd" clip-rule="evenodd" d="M213.484 64.9534L217.852 69.318L219.56 67.6072L215.189 63.2344L216.041 62.3892V60.6867L216.648 60.0783V61.491L217.244 62.0789L219.376 59.9395L219.952 60.5111C219.93 59.5241 219.528 58.5837 218.831 57.8858C218.665 57.6985 218.461 57.5475 218.235 57.4419C218.008 57.3363 217.762 57.2784 217.512 57.2719C217.261 57.2654 217.013 57.3104 216.781 57.404C216.55 57.4977 216.338 57.638 216.164 57.8163L214.123 59.8742L214.638 60.3886L213.504 61.5196L212.37 60.3886L212.884 59.8742L210.825 57.8123C210.648 57.6339 210.439 57.4936 210.206 57.4C209.974 57.3063 209.726 57.2613 209.476 57.2679C209.226 57.2744 208.979 57.3322 208.753 57.4378C208.526 57.5434 208.324 57.6945 208.157 57.8817C207.462 58.5795 207.067 59.5216 207.056 60.507L207.611 59.9354L209.743 62.0749L210.339 61.4828V60.0783L210.947 60.6867V62.3851L211.8 63.2344L207.468 67.5664L209.176 69.2731L213.484 64.9534Z" fill="white"/>
</g>
<g clip-path="url(#clip2_43_3)">
<path d="M283.604 52.1699C285.656 52.1699 286.272 53.6123 286.805 55.0147C287.051 55.6158 292.346 69.8 292.51 70.2407C292.551 70.361 292.51 70.5613 292.346 70.6415C292.14 70.7216 289.391 71.7634 289.268 71.8034C289.103 71.8435 288.939 71.7634 288.898 71.6432C288.857 71.4829 287.708 68.3976 287.585 68.0771C287.215 68.0771 280.115 68.0771 279.746 68.0771C279.623 68.4377 278.474 71.5229 278.391 71.6432C278.35 71.8034 278.186 71.8835 278.022 71.8034C277.858 71.7233 275.108 70.6815 274.944 70.6415C274.78 70.6013 274.698 70.401 274.78 70.2407C274.903 69.6798 280.115 55.736 280.403 55.0147C280.895 53.6123 281.593 52.1699 283.604 52.1699ZM274.287 77.5332C274.123 77.5332 274 77.6534 274 77.8137V81.1394C274 81.2996 274.123 81.4199 274.287 81.4199H292.92C293.084 81.4199 293.208 81.2996 293.208 81.1394V77.8137C293.208 77.6534 293.084 77.5332 292.92 77.5332H274.287ZM283.604 56.7777L280.936 64.5911H286.271L283.604 56.7777ZM352.965 68.2373C352.965 69.1188 352.472 69.6798 351.528 69.6798C351.159 69.6798 350.871 69.6798 350.378 69.5596V66.875C350.584 66.8349 351.035 66.7949 351.528 66.7949C352.472 66.8349 352.965 67.2757 352.965 68.2373ZM354.852 68.0771C354.852 66.4343 353.868 65.3123 351.815 65.3123C351.323 65.3123 350.953 65.3524 350.42 65.4726V63.1085C350.748 63.0685 351.323 63.0284 351.979 63.0284C352.595 63.0284 353.333 63.0685 354.032 63.1487L354.072 61.7863C353.293 61.626 352.185 61.5058 351.323 61.5058C350.461 61.5058 349.148 61.7062 348.532 61.8665V70.5613C349.517 70.9219 350.461 71.0822 351.446 71.0822C353.703 71.1223 354.852 69.9603 354.852 68.0771ZM333.428 67.5962C333.428 68.7983 332.936 69.5996 332.115 69.5996C331.787 69.5996 331.582 69.5996 331.212 69.4795V65.8332C331.623 65.6329 331.869 65.6329 332.197 65.6329C333.018 65.6329 333.428 66.274 333.428 67.5962ZM327.231 67.6363C327.231 66.314 327.642 65.6329 328.462 65.6329C328.791 65.6329 329.037 65.6329 329.447 65.8332V69.4795C329.078 69.5996 328.873 69.5996 328.544 69.5996C327.601 69.5996 327.231 68.8784 327.231 67.6363ZM331.212 73.1257V70.7616C331.417 70.8818 331.869 71.0822 332.649 71.0822C334.167 71.0822 335.275 69.8801 335.275 67.6363C335.275 65.2322 334.167 64.1904 332.361 64.1904C331.91 64.1904 331.623 64.2305 331.212 64.3907V61.5459H329.447V64.3907C329.078 64.2305 328.791 64.1904 328.298 64.1904C326.492 64.1904 325.384 65.2723 325.384 67.6763C325.384 69.9202 326.369 71.0822 328.011 71.0822C328.75 71.0822 329.201 70.8818 329.447 70.7616V73.1257H331.212ZM317.792 70.962V64.5911C316.807 64.3106 316.068 64.1904 315.083 64.1904C314.098 64.1904 313.359 64.3106 312.415 64.5911V67.8366C312.415 68.7182 312.415 68.9987 312.292 69.2791C312.21 69.5195 312.046 69.8401 311.717 70.0805L312.21 71.0822C313.646 70.6815 314.18 70.0805 314.18 68.1572V65.7531C314.631 65.6729 314.754 65.6729 315.124 65.6729C315.493 65.6729 315.575 65.6729 316.068 65.7531V70.9219H317.792V70.962ZM339.667 69.5596C339.297 69.6798 339.01 69.7199 338.723 69.7199C338.107 69.7199 337.738 69.4795 337.738 68.8384C337.738 68.1572 338.189 67.9568 339.092 67.9568C339.297 67.9568 339.503 67.9969 339.626 68.037V68.5178C339.544 68.9987 339.585 69.3192 339.667 69.5596ZM341.924 70.3209C341.473 69.6398 341.35 69.199 341.35 68.3576V66.5945C341.35 65.6329 341.226 65.2723 340.98 64.9116C340.611 64.4308 340.036 64.1904 338.928 64.1904C338.148 64.1904 337.368 64.2705 336.63 64.4709L336.876 65.7531C337.368 65.6729 337.902 65.6329 338.271 65.6329C339.462 65.6329 339.585 65.7932 339.585 66.6746V66.9952C339.339 66.9151 339.01 66.875 338.682 66.875C336.917 66.875 335.973 67.7165 335.973 69.1188C335.973 70.4411 336.958 71.1623 338.189 71.1623C338.641 71.1623 339.133 71.0822 339.503 70.9219C339.708 70.8418 339.831 70.7616 340.118 70.5613C340.282 70.8017 340.652 71.0822 340.775 71.1223L341.924 70.3209ZM359.243 69.5596C358.874 69.6798 358.587 69.7199 358.3 69.7199C357.684 69.7199 357.314 69.4795 357.314 68.8384C357.314 68.1572 357.766 67.9568 358.669 67.9568C358.874 67.9568 359.079 67.9969 359.203 68.037V68.5178C359.12 68.9987 359.162 69.3192 359.243 69.5596ZM361.501 70.3209C361.049 69.6398 360.926 69.199 360.926 68.3576V66.5945C360.926 65.6329 360.803 65.2723 360.557 64.9116C360.188 64.4308 359.613 64.1904 358.505 64.1904C357.725 64.1904 356.946 64.2705 356.207 64.4709L356.453 65.7531C356.945 65.6729 357.479 65.6329 357.848 65.6329C359.039 65.6329 359.162 65.7932 359.162 66.6746V66.9952C358.916 66.9151 358.628 66.875 358.259 66.875C356.494 66.875 355.55 67.7165 355.55 69.1188C355.55 70.4411 356.535 71.1623 357.766 71.1623C358.218 71.1623 358.71 71.0822 359.079 70.9219C359.326 70.8418 359.408 70.7616 359.695 70.5613C359.859 70.8017 360.229 71.0822 360.352 71.1223L361.501 70.3209ZM322.84 68.6781C322.84 69.3192 322.593 69.7599 321.773 69.7599C321.485 69.7599 321.362 69.7599 320.993 69.6398V67.7565C321.444 67.6763 321.485 67.6363 321.773 67.6363C322.552 67.6763 322.84 68.037 322.84 68.6781ZM319.187 64.3106V70.6013C320.008 70.962 320.952 71.1223 321.773 71.1223C323.66 71.1223 324.646 70.1606 324.646 68.5979C324.646 67.1955 323.743 66.314 322.101 66.314C321.69 66.314 321.444 66.3541 320.952 66.4743V64.3106H319.187ZM367.986 70.962V64.3507H366.221V66.8349H364.21V64.3507H362.445V70.962H364.21V68.2774H366.221V70.962H367.986ZM375.25 70.962C375.25 70.962 374.265 68.9585 374.06 68.4777C373.772 67.9568 373.527 67.5962 372.993 67.476V67.436C373.362 67.3558 373.649 67.1555 373.978 66.4743C374.265 65.8332 374.388 65.6729 374.553 65.5527C374.717 65.3924 374.963 65.4726 374.963 65.4726L375.044 64.2705C374.799 64.2305 374.511 64.2305 374.224 64.2705C373.731 64.3106 373.485 64.4308 373.28 64.6712C373.116 64.8315 372.952 65.112 372.828 65.4326C372.664 65.7531 372.541 66.0335 372.377 66.3541C372.213 66.7148 372.131 66.875 371.679 66.875H371.392V64.3907H369.627V71.0021H371.392V68.3174H371.638C372.131 68.3174 372.213 68.4377 372.501 68.9585C372.828 69.5996 373.403 71.0021 373.403 71.0021H375.25V70.962ZM309.132 70.962H311.184L308.106 61.7462C307.777 61.626 307.367 61.586 306.957 61.586C306.505 61.586 306.341 61.6661 305.972 61.7462L302.688 70.962H304.658C304.658 70.962 304.904 70.1606 305.233 69.1589H308.598C308.886 70.1606 309.132 70.962 309.132 70.962ZM305.684 67.5962C305.684 67.5962 306.259 65.7531 306.341 65.4726C306.587 64.7113 306.915 63.5493 306.915 63.5493H306.957C306.957 63.5493 307.285 64.7915 307.49 65.4726C307.572 65.7531 308.106 67.6363 308.106 67.6363H305.684V67.5962ZM344.92 66.5545C344.305 66.5545 343.771 67.0352 343.771 67.6763C343.771 68.2774 344.263 68.7983 344.92 68.7983C345.536 68.7983 346.069 68.3174 346.069 67.6763C346.069 67.0352 345.536 66.5545 344.92 66.5545Z" fill="white"/>
</g>
<path fill-rule="evenodd" clip-rule="evenodd" d="M279.818 4.66243H282.587V8.49494H285.894V4.66243H288.664V15.2188H285.894V10.9872H282.587V15.2188H279.818V4.66243ZM291.141 4.68438H293.888V8.56212H295.48C296.251 7.27044 297.021 5.97786 297.789 4.68438H300.906C299.897 6.40176 298.899 8.11848 297.89 9.84649C298.944 11.641 299.987 13.4249 301.04 15.2188H297.946C297.117 13.8234 296.298 12.4165 295.468 11.0205H293.876C293.866 12.4165 293.854 13.8234 293.854 15.2188H291.141V4.68438ZM272.979 3.69865C271.096 7.53116 269.212 11.375 267.329 15.2075H270.344C270.545 14.7758 270.759 14.3435 270.961 13.9005C272.284 13.8898 273.618 13.8785 274.941 13.8785C275.154 14.3215 275.367 14.7645 275.592 15.2075H278.629C276.746 11.375 274.862 7.54247 272.979 3.69865ZM274.089 11.5965H271.914C272.262 10.7551 272.609 9.91301 272.967 9.07095C273.169 9.21529 273.954 11.1981 274.1 11.5745C274.089 11.5745 274.089 11.5858 274.089 11.5965ZM266.735 10.5888C266.006 8.52819 264.033 8.42843 261.163 8.46169V7.07688H266.084V4.66243H258.438V15.2188C261.499 15.2301 264.974 15.6179 266.263 13.8673C266.51 13.5346 266.712 13.103 266.824 12.6714C267.025 12.0175 266.925 11.0983 266.734 10.5888H266.735ZM261.173 12.7931V10.7218C262.486 10.6992 264.021 10.489 264.246 11.5745C264.537 13.0924 262.463 12.815 261.173 12.7931ZM239.323 1.36136C239.805 1.5609 240.232 2.20342 240.59 2.55794L243.415 5.34885C247.014 8.88271 250.613 12.4165 254.2 15.9611C249.267 20.8572 244.335 25.7425 239.401 30.6386L237.193 28.4564C235.141 26.4403 233.089 24.413 231.026 22.3969H235.175L239.368 26.5401H239.424C242.967 23.0175 246.51 19.5056 250.052 15.983C246.487 12.4718 242.933 8.96054 239.368 5.45993H239.312C237.922 6.84474 236.532 8.22888 235.141 9.60306H231.026C233.426 7.23251 235.825 4.87261 238.213 2.50207C238.583 2.12627 238.953 1.73783 239.323 1.36136Z" fill="white"/>
<path fill-rule="evenodd" clip-rule="evenodd" d="M225.141 14.3661H243.012V11.331H225.141V14.3661ZM318.025 21.8095L317.868 21.9652C317.857 20.2478 317.845 18.5311 317.845 16.8031H315.043V28.1237C317.207 26.0638 319.371 24.0145 321.524 21.9539V27.426H324.325C324.337 23.648 324.348 19.8714 324.348 16.1054C324.325 16.0941 324.315 16.0827 324.292 16.0827C322.207 17.999 320.111 19.9046 318.025 21.8095ZM266.196 18.0882C264.84 16.3601 261.521 16.7585 258.45 16.7804V27.4146H261.274V24.679C262.339 24.6896 263.584 24.7674 264.425 24.524C266.196 23.9919 267.62 22.0098 266.925 19.5282C266.783 19.0041 266.535 18.5142 266.196 18.0882ZM263.483 22.2306C262.732 22.2419 261.98 22.2533 261.218 22.2533V19.1956C262.451 19.1736 263.808 18.9961 264.2 19.8381C264.638 20.7354 264.257 21.9978 263.482 22.2306H263.483ZM271.578 23.1618H275.187V20.7467H271.611C271.6 20.2365 271.589 19.7157 271.589 19.2069H275.513V16.8137H268.785V27.4479H275.647V24.9004H271.588V23.1612H271.577L271.578 23.1618ZM288.798 24.9444H286.219C286.208 22.2306 286.197 19.5168 286.197 16.8137H283.394V24.9224C282.52 24.9337 281.656 24.9444 280.782 24.9444V16.8137H277.956C277.968 20.3363 277.979 23.8702 277.979 27.3927C278.125 27.5144 278.664 27.4479 278.921 27.4479H291.589C291.601 23.9034 291.612 20.3589 291.612 16.8137H288.786V24.9444H288.798ZM297.06 23.1618H300.67V20.7467H297.06V19.1956H300.962V16.8031H294.235C294.247 20.3476 294.258 23.8921 294.258 27.4373H301.097V24.8898H297.06V23.1612V23.1618ZM309.605 20.6356H306.265V16.8031H303.439V27.4373H306.265V23.1837H309.605V27.4373H312.408V16.8031H309.605V20.6356ZM329.753 24.8892V23.1612H333.363V20.7467H329.785C329.775 20.2365 329.763 19.7157 329.763 19.2069H333.687V16.8137H326.961V27.4479H333.822V24.9004H329.753V24.8892ZM225.141 20.6575H243.012V17.6006H225.163C225.163 18.6195 225.152 19.6385 225.141 20.6575Z" fill="white"/>
<defs>
<clipPath id="clip0_43_3">
<rect width="131.613" height="30" fill="white" transform="translate(70)"/>
</clipPath>
<clipPath id="clip1_43_3">
<rect width="250.976" height="30" fill="white" transform="translate(0 52)"/>
</clipPath>
<clipPath id="clip2_43_3">
<rect width="101.25" height="30" fill="white" transform="translate(274 52)"/>
</clipPath>
</defs>
</svg>
