<svg width="46" height="46" viewBox="0 0 46 46" fill="none" xmlns="http://www.w3.org/2000/svg">
<rect width="46" height="46" rx="23" fill="#EFEFEF"/>
<path d="M15.4941 21.7408C17.5844 26.2936 21.3039 29.9132 25.9283 31.8755L26.6695 32.2058C28.3655 32.9614 30.3591 32.3874 31.3935 30.8456L32.3622 29.4017C32.6772 28.9323 32.5813 28.3 32.1413 27.9451L28.8561 25.2947C28.3736 24.9055 27.664 24.9961 27.2949 25.4942L26.2786 26.8656C23.6708 25.5792 21.5536 23.462 20.2672 20.8542L21.6385 19.8379C22.1366 19.4688 22.2273 18.7592 21.838 18.2767L19.1876 14.9914C18.8327 14.5515 18.2006 14.4556 17.7312 14.7703L16.2774 15.7451C14.726 16.7854 14.1551 18.7955 14.9281 20.4959L15.4933 21.739L15.4941 21.7408Z" fill="#0083CA"/>
</svg>
