<svg width="42" height="42" viewBox="0 0 42 42" fill="none" xmlns="http://www.w3.org/2000/svg">
<rect width="42" height="42" rx="21" fill="#EFEFEF"/>
<path d="M17 23C17 23 18.5 25 21 25C23.5 25 25 23 25 23M24 18H24.01M18 18H18.01M31 21C31 26.5228 26.5228 31 21 31C15.4772 31 11 26.5228 11 21C11 15.4772 15.4772 11 21 11C26.5228 11 31 15.4772 31 21ZM24.5 18C24.5 18.2761 24.2761 18.5 24 18.5C23.7239 18.5 23.5 18.2761 23.5 18C23.5 17.7239 23.7239 17.5 24 17.5C24.2761 17.5 24.5 17.7239 24.5 18ZM18.5 18C18.5 18.2761 18.2761 18.5 18 18.5C17.7239 18.5 17.5 18.2761 17.5 18C17.5 17.7239 17.7239 17.5 18 17.5C18.2761 17.5 18.5 17.7239 18.5 18Z" stroke="#0083CA" stroke-width="2" stroke-linecap="round" stroke-linejoin="round"/>
</svg>
