<svg width="42" height="42" viewBox="0 0 42 42" fill="none" xmlns="http://www.w3.org/2000/svg">
<rect width="42" height="42" rx="21" fill="#EFEFEF"/>
<g clip-path="url(#clip0_224_21)">
<path d="M14.8167 24.9433L15.0902 26.0579H15.1243L15.4043 24.9433H16.5046L15.6077 27.2487V28.1099H14.6117V27.2487L13.7148 24.9433H14.8167ZM18.8125 26.9141H17.8229V27.3H19.0436V28.1099H16.8268V24.9433H19.0176L18.8939 25.7548H17.8229V26.1804H18.8125V26.9141ZM20.2773 28.1099H19.2324L20.0462 24.9433H21.5794L22.3932 28.1099H21.3337L21.2181 27.613H20.4043L20.2887 28.1099H20.2773ZM20.7754 25.9171L20.5719 26.8032H21.0293L20.8307 25.9171H20.7754ZM25.3571 28.1099H24.2666L23.8581 27.1675H23.6432V28.1099H22.6471V24.9433H24.2161C24.929 24.9433 25.286 25.3131 25.2871 26.0529C25.2871 26.5597 25.1325 26.8942 24.8232 27.0566L25.362 28.1099H25.3571ZM23.6432 25.7548V26.3875H23.8727C23.9617 26.3932 24.0509 26.3802 24.1348 26.3494C24.1885 26.3245 24.2161 26.2666 24.2161 26.1755V25.9668C24.2161 25.8757 24.1885 25.8177 24.1348 25.7929C24.0507 25.763 23.9617 25.75 23.8727 25.7548H23.6432ZM25.6598 28.0585L25.7998 27.2305C26.0687 27.3031 26.3452 27.342 26.6234 27.3464C26.8202 27.349 27.017 27.339 27.2126 27.3166V27.0516L26.765 27.0118C26.3613 26.9737 26.083 26.876 25.9316 26.7154C25.7679 26.5171 25.6867 26.2615 25.7054 26.0032C25.7054 25.5715 25.7971 25.274 25.9805 25.1105C26.1644 24.9449 26.4785 24.8687 26.9196 24.8687C27.3212 24.8642 27.7221 24.9064 28.1143 24.9946L27.9906 25.8045C27.7453 25.7609 27.4972 25.736 27.2484 25.73C27.0901 25.7285 26.932 25.7368 26.7747 25.7548V26.0032L27.1344 26.038C27.569 26.0827 27.8685 26.1871 28.0361 26.3543C28.1215 26.4476 28.1874 26.5574 28.2299 26.6772C28.2724 26.797 28.2907 26.9244 28.2835 27.0516C28.2883 27.2353 28.2596 27.4184 28.1989 27.5915C28.1561 27.7155 28.0872 27.8286 27.9971 27.9227C27.9035 28.0042 27.7917 28.061 27.6715 28.0884C27.5489 28.1258 27.423 28.1507 27.2956 28.1629C27.1882 28.1629 27.0449 28.1745 26.8643 28.1745C26.4608 28.1779 26.0583 28.134 25.6647 28.0436L25.6598 28.0585Z" fill="#0083CA"/>
<path d="M24.457 11.6973C24.457 11.3097 24.8346 11 25.2969 11C25.7591 11 26.1367 11.3163 26.1367 11.6973V14.7612C26.1367 15.1487 25.7624 15.4584 25.2969 15.4584C24.8314 15.4584 24.457 15.1438 24.457 14.7612V11.6973ZM23.0801 18.1977L21.4525 22.8533H19.5579L21.0635 18.6532L19.0452 18.6814L18.9199 17.0252H23.0801V18.1845V18.1977ZM15.8291 11.6973C15.8291 11.3097 16.2083 11 16.6689 11C17.1296 11 17.5104 11.3163 17.5104 11.6973V14.7612C17.5104 15.1487 17.1361 15.4584 16.6706 15.4584C16.2051 15.4584 15.8307 15.1438 15.8307 14.7612V11.6973H15.8291ZM12.1003 29.4333C12.1002 29.5485 12.1446 29.6591 12.224 29.7413C12.2638 29.7819 12.3113 29.8138 12.3636 29.8352C12.4159 29.8565 12.472 29.8668 12.5283 29.8655H29.4554C29.5684 29.8661 29.6771 29.8215 29.7581 29.7413C29.7978 29.701 29.8291 29.6529 29.8501 29.6C29.871 29.547 29.8813 29.4903 29.8802 29.4333V14.362C29.8806 14.3059 29.8701 14.2503 29.8493 14.1984C29.8284 14.1465 29.7977 14.0993 29.7588 14.0595C29.7198 14.0198 29.6736 13.9883 29.6226 13.9669C29.5717 13.9454 29.517 13.9345 29.4619 13.9347H28.1061C27.8473 13.9347 27.6406 13.5455 27.6406 13.2822C27.6404 13.2199 27.6523 13.1583 27.6756 13.1007C27.6989 13.0431 27.7332 12.9908 27.7765 12.9468C27.8198 12.9028 27.8712 12.8679 27.9277 12.8442C27.9843 12.8204 28.0449 12.8083 28.1061 12.8085H29.6377C29.9969 12.8111 30.3407 12.9575 30.5947 13.216C30.8487 13.4745 30.9926 13.8243 30.9951 14.1898V29.6254C30.9934 29.9912 30.8498 30.3415 30.5956 30.6001C30.3415 30.8588 29.9972 31.0049 29.6377 31.0066H12.3574C11.9968 31.0049 11.6516 30.8579 11.3972 30.5978C11.1428 30.3377 11 29.9857 11 29.6187V14.1832C11.0003 14.002 11.0358 13.8227 11.1045 13.6555C11.1733 13.4884 11.2738 13.3368 11.4004 13.2093C11.6539 12.9501 11.998 12.8036 12.3574 12.8019H13.9997C14.0609 12.8017 14.1215 12.8138 14.1781 12.8375C14.2346 12.8613 14.286 12.8961 14.3293 12.9402C14.3726 12.9842 14.4069 13.0365 14.4302 13.0941C14.4535 13.1516 14.4654 13.2133 14.4652 13.2756C14.4652 13.5389 14.2585 13.9281 13.9997 13.9281H12.5348C12.4214 13.9278 12.3123 13.9724 12.2305 14.0523C12.1905 14.0929 12.159 14.1412 12.1377 14.1944C12.1165 14.2476 12.106 14.3046 12.1068 14.362C12.1068 19.1318 12.1068 24.6403 12.1068 29.4333H12.1003ZM19.3887 13.9215C19.1299 13.9215 18.9232 13.5323 18.9232 13.269C18.923 13.2067 18.9349 13.145 18.9582 13.0874C18.9815 13.0299 19.0158 12.9776 19.059 12.9335C19.1023 12.8895 19.1537 12.8546 19.2103 12.8309C19.2669 12.8072 19.3275 12.7951 19.3887 12.7953H22.5169C22.5781 12.7951 22.6387 12.8072 22.6953 12.8309C22.7519 12.8546 22.8033 12.8895 22.8466 12.9335C22.8898 12.9776 22.9241 13.0299 22.9474 13.0874C22.9707 13.145 22.9826 13.2067 22.9824 13.269C22.9824 13.5323 22.7757 13.9215 22.5169 13.9215H19.3887Z" fill="#0083CA"/>
</g>
<defs>
<clipPath id="clip0_224_21">
<rect width="20" height="20" fill="white" transform="translate(11 11)"/>
</clipPath>
</defs>
</svg>
