<svg width="84" height="24" viewBox="0 0 84 24" fill="none" xmlns="http://www.w3.org/2000/svg">
<path d="M8.19268 0C9.86948 0 10.3728 1.18351 10.8084 2.3342C11.0094 2.82741 15.3362 14.4657 15.4703 14.8273C15.5038 14.926 15.4703 15.0904 15.3362 15.1562C15.1679 15.2219 12.9215 16.0767 12.821 16.1095C12.6862 16.1424 12.5522 16.0767 12.5187 15.9781C12.4852 15.8466 11.5463 13.315 11.4458 13.0521C11.1434 13.0521 5.34163 13.0521 5.0401 13.0521C4.93959 13.3479 4.00067 15.8794 3.93284 15.9781C3.89934 16.1095 3.76534 16.1753 3.63132 16.1095C3.49731 16.0438 1.25013 15.189 1.11612 15.1562C0.982107 15.1232 0.915099 14.9589 0.982106 14.8273C1.08262 14.3671 5.34164 2.92603 5.57698 2.3342C5.97902 1.18351 6.54938 0 8.19268 0ZM0.579239 20.8109C0.445226 20.8109 0.344727 20.9095 0.344727 21.0411V23.7698C0.344727 23.9013 0.445226 24 0.579239 24H15.8053C15.9393 24 16.0406 23.9013 16.0406 23.7698V21.0411C16.0406 20.9095 15.9393 20.8109 15.8053 20.8109H0.579239ZM8.19268 3.78076L6.01251 10.1918H10.372L8.19268 3.78076ZM64.8713 13.1835C64.8713 13.9068 64.4684 14.3671 63.6971 14.3671C63.3955 14.3671 63.1602 14.3671 62.7573 14.2685V12.0657C62.9256 12.0328 63.2942 12 63.6971 12C64.4684 12.0328 64.8713 12.3945 64.8713 13.1835ZM66.4133 13.0521C66.4133 11.7041 65.6092 10.7835 63.9316 10.7835C63.5295 10.7835 63.2272 10.8164 62.7916 10.915V8.97526C63.0597 8.94244 63.5295 8.90954 64.0656 8.90954C64.5689 8.90954 65.172 8.94244 65.7432 9.00825L65.7759 7.89038C65.1393 7.75885 64.2339 7.66023 63.5295 7.66023C62.8251 7.66023 61.7522 7.82466 61.2489 7.95619V15.0904C62.0538 15.3863 62.8251 15.5178 63.63 15.5178C65.4744 15.5507 66.4133 14.5973 66.4133 13.0521ZM48.9066 12.6575C48.9066 13.6438 48.5045 14.3013 47.8336 14.3013C47.5656 14.3013 47.3981 14.3013 47.0957 14.2027V11.2109C47.4316 11.0466 47.6326 11.0466 47.9006 11.0466C48.5715 11.0466 48.9066 11.5726 48.9066 12.6575ZM43.8426 12.6904C43.8426 11.6054 44.1785 11.0466 44.8486 11.0466C45.1174 11.0466 45.3184 11.0466 45.6535 11.2109V14.2027C45.3519 14.3013 45.1844 14.3013 44.9156 14.3013C44.145 14.3013 43.8426 13.7095 43.8426 12.6904ZM47.0957 17.1945V15.2547C47.2633 15.3534 47.6326 15.5178 48.27 15.5178C49.5104 15.5178 50.4158 14.5314 50.4158 12.6904C50.4158 10.7178 49.5104 9.86297 48.0346 9.86297C47.6661 9.86297 47.4316 9.89588 47.0957 10.0273V7.69313H45.6535V10.0273C45.3519 9.89588 45.1174 9.86297 44.7146 9.86297C43.2388 9.86297 42.3334 10.7507 42.3334 12.7232C42.3334 14.5644 43.1383 15.5178 44.48 15.5178C45.0839 15.5178 45.4524 15.3534 45.6535 15.2547V17.1945H47.0957ZM36.1295 15.4192V10.1918C35.3246 9.9616 34.7208 9.86297 33.9159 9.86297C33.111 9.86297 32.5071 9.9616 31.7357 10.1918V12.8547C31.7357 13.5781 31.7357 13.8082 31.6352 14.0383C31.5682 14.2356 31.4342 14.4986 31.1653 14.6959L31.5682 15.5178C32.7416 15.189 33.178 14.6959 33.178 13.1178V11.1452C33.5465 11.0794 33.647 11.0794 33.9494 11.0794C34.2509 11.0794 34.3179 11.0794 34.7208 11.1452V15.3863H36.1295V15.4192ZM54.0048 14.2685C53.7024 14.3671 53.4679 14.4 53.2334 14.4C52.73 14.4 52.4285 14.2028 52.4285 13.6767C52.4285 13.1178 52.797 12.9534 53.5349 12.9534C53.7024 12.9534 53.8708 12.9863 53.9713 13.0192V13.4137C53.9043 13.8082 53.9378 14.0712 54.0048 14.2685ZM55.8491 14.8931C55.4806 14.3343 55.3801 13.9726 55.3801 13.2822V11.8356C55.3801 11.0466 55.2787 10.7507 55.0777 10.4547C54.7762 10.0602 54.3063 9.86297 53.4009 9.86297C52.7635 9.86297 52.1261 9.9287 51.5231 10.0931L51.7241 11.1452C52.1261 11.0794 52.5625 11.0466 52.864 11.0466C53.8373 11.0466 53.9378 11.1781 53.9378 11.9013V12.1644C53.7367 12.0986 53.4679 12.0657 53.1999 12.0657C51.7576 12.0657 50.9862 12.7562 50.9862 13.9068C50.9862 14.9918 51.7911 15.5835 52.797 15.5835C53.1664 15.5835 53.5684 15.5178 53.8708 15.3863C54.0383 15.3205 54.1388 15.2547 54.3733 15.0904C54.5073 15.2876 54.8097 15.5178 54.9102 15.5507L55.8491 14.8931ZM70.0014 14.2685C69.6999 14.3671 69.4653 14.4 69.2308 14.4C68.7274 14.4 68.4251 14.2028 68.4251 13.6767C68.4251 13.1178 68.7945 12.9534 69.5323 12.9534C69.6999 12.9534 69.8674 12.9863 69.9687 13.0192V13.4137C69.9009 13.8082 69.9352 14.0712 70.0014 14.2685ZM71.8465 14.8931C71.4772 14.3343 71.3766 13.9726 71.3766 13.2822V11.8356C71.3766 11.0466 71.2762 10.7507 71.0751 10.4547C70.7736 10.0602 70.3037 9.86297 69.3983 9.86297C68.7609 9.86297 68.1244 9.9287 67.5205 10.0931L67.7215 11.1452C68.1236 11.0794 68.5599 11.0466 68.8615 11.0466C69.8347 11.0466 69.9352 11.1781 69.9352 11.9013V12.1644C69.7342 12.0986 69.4988 12.0657 69.1973 12.0657C67.755 12.0657 66.9836 12.7562 66.9836 13.9068C66.9836 14.9918 67.7885 15.5835 68.7944 15.5835C69.1638 15.5835 69.5658 15.5178 69.8674 15.3863C70.0692 15.3205 70.1362 15.2547 70.3707 15.0904C70.5048 15.2876 70.8071 15.5178 70.9076 15.5507L71.8465 14.8931ZM40.2545 13.5452C40.2545 14.0712 40.0527 14.4328 39.3826 14.4328C39.1473 14.4328 39.0468 14.4328 38.7453 14.3343V12.789C39.1138 12.7232 39.1473 12.6904 39.3826 12.6904C40.0192 12.7232 40.2545 13.0192 40.2545 13.5452ZM37.2695 9.9616V15.1232C37.9404 15.4192 38.7118 15.5507 39.3826 15.5507C40.9246 15.5507 41.7303 14.7616 41.7303 13.4794C41.7303 12.3287 40.9924 11.6054 39.6507 11.6054C39.3148 11.6054 39.1138 11.6383 38.7117 11.7369V9.9616H37.2695ZM77.1458 15.4192V9.9945H75.7035V12.0328H74.0602V9.9945H72.6179V15.4192H74.0602V13.2164H75.7035V15.4192H77.1458ZM83.0816 15.4192C83.0816 15.4192 82.2767 13.7753 82.1092 13.3808C81.8738 12.9534 81.6736 12.6575 81.2373 12.5589V12.526C81.5388 12.4602 81.7733 12.2959 82.0421 11.7369C82.2767 11.2109 82.3772 11.0794 82.512 10.9808C82.646 10.8492 82.8471 10.915 82.8471 10.915L82.9132 9.9287C82.713 9.89588 82.4777 9.89588 82.2432 9.9287C81.8403 9.9616 81.6393 10.0602 81.4718 10.2575C81.3378 10.389 81.2038 10.6192 81.1024 10.8822C80.9684 11.1452 80.8679 11.3753 80.7339 11.6383C80.5999 11.9343 80.5329 12.0657 80.1635 12.0657H79.929V10.0273H78.4867V15.4521H79.929V13.2492H80.13C80.5329 13.2492 80.5999 13.3479 80.8352 13.7753C81.1024 14.3013 81.5723 15.4521 81.5723 15.4521H83.0816V15.4192ZM29.053 15.4192H30.7298L28.2146 7.85748C27.9457 7.75885 27.6107 7.72603 27.2757 7.72603C26.9063 7.72603 26.7723 7.79176 26.4708 7.85748L23.7872 15.4192H25.397C25.397 15.4192 25.5981 14.7616 25.8669 13.9397H28.6166C28.852 14.7616 29.053 15.4192 29.053 15.4192ZM26.2354 12.6575C26.2354 12.6575 26.7053 11.1452 26.7723 10.915C26.9733 10.2904 27.2414 9.33695 27.2414 9.33695H27.2757C27.2757 9.33695 27.5437 10.3562 27.7112 10.915C27.7782 11.1452 28.2146 12.6904 28.2146 12.6904H26.2354V12.6575ZM58.2973 11.8027C57.7948 11.8027 57.3584 12.1972 57.3584 12.7232C57.3584 13.2164 57.7604 13.6438 58.2973 13.6438C58.8007 13.6438 59.2362 13.2492 59.2362 12.7232C59.2362 12.1972 58.8007 11.8027 58.2973 11.8027Z" fill="white"/>
</svg>
