<svg width="59" height="16" viewBox="0 0 59 16" fill="none" xmlns="http://www.w3.org/2000/svg">
<path fill-rule="evenodd" clip-rule="evenodd" d="M29.2081 1.80403H30.6873V3.8985H32.4539V1.80403H33.9337V7.57309H32.4539V5.26052H30.6873V7.57309H29.2081V1.80403ZM35.2569 1.81603H36.7243V3.93521H37.5747C37.9866 3.22931 38.3979 2.52292 38.8082 1.81603H40.4733C39.9343 2.75458 39.4012 3.69276 38.8622 4.63712C39.4252 5.61782 39.9824 6.59272 40.5449 7.57309H38.8921C38.4492 6.8105 38.0117 6.04163 37.5683 5.27872H36.7179C36.7126 6.04163 36.7061 6.8105 36.7061 7.57309H35.2569V1.81603ZM25.5548 1.27733C24.5489 3.37179 23.5424 5.47245 22.5365 7.56691H24.1471C24.2545 7.33099 24.3688 7.09473 24.4767 6.85264C25.1835 6.84679 25.8961 6.84061 26.6029 6.84061C26.7166 7.08271 26.8304 7.32481 26.9506 7.56691H28.573C27.5671 5.47245 26.5607 3.37797 25.5548 1.27733ZM26.1477 5.5935H24.9858C25.1717 5.13368 25.3571 4.67347 25.5484 4.21329C25.6563 4.29217 26.0756 5.37577 26.1536 5.58148C26.1477 5.58148 26.1477 5.58765 26.1477 5.5935ZM22.2192 5.04279C21.8298 3.91667 20.7758 3.86215 19.2427 3.88033V3.12353H21.8715V1.80403H17.787V7.57309C19.4222 7.57926 21.2785 7.79119 21.9671 6.83449C22.099 6.65267 22.2069 6.4168 22.2668 6.18093C22.3741 5.82358 22.3207 5.32123 22.2187 5.04279H22.2192ZM19.248 6.24744V5.11548C19.9494 5.10313 20.7694 4.98825 20.8896 5.58148C21.0451 6.41101 19.9371 6.25941 19.248 6.24744ZM7.57579 0C7.83328 0.109049 8.06138 0.460185 8.25262 0.653931L9.76173 2.17916C11.6843 4.11041 13.6069 6.04163 15.5231 7.97875C12.8879 10.6545 10.2532 13.3243 7.61746 16L6.43795 14.8074C5.34177 13.7056 4.2456 12.5977 3.14355 11.4959H5.35994L7.59983 13.7602H7.62975C9.52241 11.8351 11.4151 9.91582 13.3072 7.99072C11.4028 6.07185 9.50425 4.15295 7.59983 2.23987H7.56992C6.82738 2.99667 6.08485 3.7531 5.34178 4.50409H3.14355C4.42563 3.20858 5.70717 1.9189 6.98283 0.623398C7.18049 0.418023 7.37814 0.205741 7.57579 0Z" fill="#7D7D7D"/>
<path fill-rule="evenodd" clip-rule="evenodd" d="M0 7.10717H9.54664V5.44849H0V7.10717ZM49.6184 11.175L49.5346 11.2601C49.5287 10.3215 49.5223 9.38334 49.5223 8.43899H48.0254V14.6257C49.1814 13.5 50.3374 12.38 51.4876 11.2539V14.2444H52.9839C52.9903 12.1797 52.9962 10.1158 52.9962 8.05769C52.9839 8.05152 52.9785 8.04529 52.9662 8.04529C51.8524 9.09255 50.7328 10.134 49.6184 11.175ZM21.9315 9.14129C21.2071 8.19689 19.4341 8.41461 17.7936 8.42658V14.2382H19.3022V12.7432C19.8711 12.749 20.5362 12.7915 20.9854 12.6585C21.9315 12.3677 22.6922 11.2844 22.3209 9.92825C22.2451 9.64183 22.1126 9.3741 21.9315 9.14129ZM20.4822 11.4051C20.081 11.4113 19.6793 11.4175 19.2722 11.4175V9.74649C19.9309 9.73446 20.6558 9.63746 20.8652 10.0976C21.0992 10.588 20.8957 11.2779 20.4817 11.4051H20.4822ZM24.8065 11.914H26.7345V10.5942H24.8242C24.8183 10.3153 24.8124 10.0307 24.8124 9.75266H26.9086V8.44478H23.3145V14.2564H26.9802V12.8642H24.8119V11.9137H24.806L24.8065 11.914ZM34.0054 12.8882H32.6277C32.6218 11.4051 32.616 9.92202 32.616 8.44478H31.1186V12.8762C30.6517 12.8824 30.1902 12.8882 29.7233 12.8882V8.44478H28.2136C28.2201 10.3699 28.2259 12.3012 28.2259 14.2262C28.3039 14.2927 28.5919 14.2564 28.7291 14.2564H35.4964C35.5028 12.3193 35.5087 10.3822 35.5087 8.44478H33.999V12.8882H34.0054ZM38.419 11.914H40.3474V10.5942H38.419V9.74649H40.5034V8.43899H36.9099C36.9163 10.3761 36.9221 12.3131 36.9221 14.2506H40.5755V12.8584H38.419V11.9137V11.914ZM45.1205 10.5334H43.3363V8.43899H41.8266V14.2506H43.3363V11.926H45.1205V14.2506H46.6178V8.43899H45.1205V10.5334ZM55.8835 12.858V11.9137H57.812V10.5942H55.9006C55.8953 10.3153 55.8888 10.0307 55.8888 9.75266H57.985V8.44478H54.392V14.2564H58.0571V12.8642H55.8835V12.858ZM0 10.5454H9.54664V8.87482H0.0117459C0.0117459 9.43165 0.00587618 9.98853 0 10.5454Z" fill="#7D7D7D"/>
</svg>
