<svg width="88" height="24" viewBox="0 0 88 24" fill="none" xmlns="http://www.w3.org/2000/svg">
<path fill-rule="evenodd" clip-rule="evenodd" d="M43.8125 2.70605H46.0313V5.84775H48.6812V2.70605H50.9008V11.3596H48.6812V7.89078H46.0313V11.3596H43.8125V2.70605ZM52.8856 2.72404H55.0868V5.90282H56.3624C56.9802 4.84397 57.5972 3.78437 58.2126 2.72404H60.7103C59.9017 4.13187 59.1021 5.53915 58.2936 6.95568C59.1381 8.42673 59.9739 9.88908 60.8176 11.3596H58.3384C57.6741 10.2157 57.0179 9.06244 56.3528 7.91807H55.0771C55.0691 9.06244 55.0595 10.2157 55.0595 11.3596H52.8856V2.72404ZM38.3324 1.91599C36.8236 5.05769 35.314 8.20868 33.8051 11.3504H36.221C36.3821 10.9965 36.5536 10.6421 36.7154 10.279C37.7755 10.2702 38.8445 10.2609 39.9046 10.2609C40.0753 10.6241 40.2459 10.9872 40.4262 11.3504H42.8598C41.3509 8.20868 39.8413 5.06696 38.3324 1.91599ZM39.2219 8.39025H37.4791C37.7579 7.70051 38.036 7.01021 38.3228 6.31993C38.4847 6.43825 39.1137 8.06366 39.2307 8.37222C39.2219 8.37222 39.2219 8.38148 39.2219 8.39025ZM33.3291 7.56419C32.745 5.87501 31.164 5.79323 28.8643 5.82049V4.68529H32.8075V2.70605H26.6808V11.3596C29.1335 11.3689 31.9181 11.6868 32.9509 10.2517C33.1488 9.97901 33.3107 9.6252 33.4005 9.2714C33.5615 8.73536 33.4814 7.98185 33.3283 7.56419H33.3291ZM28.8723 9.37116V7.67322C29.9244 7.65469 31.1544 7.48238 31.3347 8.37222C31.5679 9.61651 29.906 9.38912 28.8723 9.37116ZM11.364 0C11.7502 0.163573 12.0924 0.690278 12.3792 0.980896L14.6429 3.26874C17.5268 6.16562 20.4106 9.06244 23.2849 11.9681C19.3321 15.9817 15.3801 19.9864 11.4265 24L9.65723 22.2111C8.01297 20.5584 6.36871 18.8966 4.71564 17.2439H8.04022L11.4001 20.6403H11.4449C14.2839 17.7526 17.1229 14.8737 19.9611 11.9861C17.1045 9.10778 14.2567 6.22942 11.4001 3.3598H11.3552C10.2414 4.495 9.12758 5.62965 8.01298 6.75613H4.71564C6.63875 4.81287 8.56106 2.87835 10.4746 0.935096C10.771 0.627034 11.0675 0.308611 11.364 0Z" fill="white"/>
<path fill-rule="evenodd" clip-rule="evenodd" d="M0 10.6606H14.32V8.17261H0V10.6606ZM74.4276 16.7624L74.3018 16.89C74.293 15.4821 74.2834 14.0749 74.2834 12.6584H72.0382V21.9384C73.7722 20.2498 75.5062 18.5699 77.2314 16.8807V21.3665H79.4758C79.4854 18.2695 79.4942 15.1736 79.4942 12.0864C79.4758 12.0772 79.4678 12.0678 79.4494 12.0678C77.7787 13.6387 76.0991 15.2008 74.4276 16.7624ZM32.8972 13.7118C31.8107 12.2952 29.1512 12.6218 26.6904 12.6397V21.3571H28.9532V19.1146C29.8066 19.1233 30.8042 19.1871 31.4781 18.9876C32.8972 18.5514 34.0383 16.9265 33.4814 14.8923C33.3676 14.4626 33.1689 14.061 32.8972 13.7118ZM30.7233 17.1075C30.1215 17.1168 29.519 17.1262 28.9084 17.1262V14.6196C29.8964 14.6016 30.9837 14.4561 31.2979 15.1463C31.6488 15.8819 31.3435 16.9167 30.7225 17.1075H30.7233ZM37.2098 17.8709H40.1017V15.8911H37.2362C37.2274 15.4729 37.2186 15.046 37.2186 14.6289H40.3629V12.667H34.9718V21.3844H40.4703V19.2961H37.2178V17.8704H37.209L37.2098 17.8709ZM51.0081 19.3322H48.9416C48.9328 17.1075 48.924 14.8829 48.924 12.667H46.6779V19.3141C45.9776 19.3234 45.2853 19.3322 44.585 19.3322V12.667H42.3205C42.3301 15.5547 42.3389 18.4516 42.3389 21.3392C42.4559 21.4389 42.8878 21.3844 43.0937 21.3844H53.2445C53.2542 18.4788 53.263 15.5732 53.263 12.667H50.9985V19.3322H51.0081ZM57.6285 17.8709H60.5211V15.8911H57.6285V14.6196H60.7551V12.6584H55.3648C55.3744 15.564 55.3832 18.4696 55.3832 21.3757H60.8633V19.2874H57.6285V17.8704V17.8709ZM67.6807 15.8H65.0044V12.6584H62.7399V21.3757H65.0044V17.8889H67.6807V21.3757H69.9268V12.6584H67.6807V15.8ZM83.8252 19.2869V17.8704H86.7179V15.8911H83.8509C83.8429 15.4729 83.8333 15.046 83.8333 14.6289H86.9776V12.667H81.588V21.3844H87.0857V19.2961H83.8252V19.2869ZM0 15.818H14.32V13.3121H0.0176188C0.0176188 14.1474 0.00881426 14.9827 0 15.818Z" fill="white"/>
</svg>
