<svg width="48" height="30" viewBox="0 0 48 30" fill="none" xmlns="http://www.w3.org/2000/svg">
<path d="M14.3116 14.2288H22.2006L22.1618 12.3779H14.6224C14.3504 12.3779 14.2338 12.2622 14.2338 12.0308V10.0642H21.1125V8.25189H14.2338V6.40102C14.2338 6.16966 14.3504 6.01542 14.6224 6.01542H22.2006V4.16452H14.467C12.757 4.16452 12.0187 4.70437 12.0187 6.43959V12.0694C12.0187 13.4962 12.6794 14.2288 14.3116 14.2288ZM2.96372 14.2288H8.55992C10.3475 14.2288 10.9305 13.6118 10.9305 12.0694V10.1799C10.9305 8.6375 10.3475 8.02054 8.55992 8.02054H2.73054V6.40102C2.73054 6.16966 2.84713 6.05398 3.11916 6.05398H10.4254L10.4642 4.16452H2.80827C1.17604 4.16452 0.515381 4.8586 0.515381 6.3239V11.9537C0.515381 13.689 1.29264 14.2288 2.96372 14.2288ZM2.73054 9.87144H8.28786C8.55992 9.87144 8.67653 9.98711 8.67653 10.257V11.9923C8.67653 12.2622 8.55992 12.3779 8.28786 12.3779H3.11916C2.84713 12.3779 2.73054 12.2622 2.73054 12.0308V9.87144ZM29.4291 6.70951C29.5456 6.5167 29.74 6.40102 29.9731 6.40102H31.139V14.2288H33.3542V4.16452H29.3901C28.8073 4.16452 28.2243 4.51156 27.9522 5.01285L23.0167 14.2288H25.3485L29.4291 6.70951ZM29.74 23.7917H25.6594V21.7866H32.8489V19.8971H23.4054V29.9614H29.6622C32.3438 29.9614 33.4319 28.6118 33.4319 26.838C33.4707 25.1028 32.4215 23.7917 29.74 23.7917ZM29.74 28.1491H25.6594V25.6812H29.7788C30.7892 25.6812 31.1779 26.2596 31.1779 26.9151C31.1779 27.5707 30.7892 28.1491 29.74 28.1491ZM40.0774 0L35.8802 4.16452H43.1475V11.3753L47.3447 7.21078V0H40.0774ZM40.3105 0.539842H45.8678L37.7067 3.12339L40.3105 0.539842ZM46.7617 6.97942L43.6916 10.0257V4.16452V3.62468H43.1475H38.1731L46.7617 0.848332V6.97942ZM33.393 16.1183H0.515381V18.0462H33.393V16.1183ZM17.2651 19.9358H12.213V21.8251H17.0319C18.4698 21.8251 19.4802 22.712 19.83 24.0617H13.3012V25.874H19.7912C19.4802 27.2622 18.431 28.1105 16.9931 28.1105H12.213V30H17.2262C20.1798 30 22.2395 27.9563 22.2395 24.9485C22.2395 21.9794 20.2187 19.9358 17.2651 19.9358ZM9.45377 24.7557C10.3087 24.3316 10.6974 23.6375 10.6974 22.712C10.6974 21.054 9.5703 19.9358 6.92769 19.9358H0.515381V30H7.27746C9.95898 30 11.0472 28.766 11.0472 27.108C11.0472 25.9897 10.5808 25.1799 9.45377 24.7557ZM2.73054 21.7866H6.92769C7.93811 21.7866 8.3267 22.4036 8.3267 23.0206C8.3267 23.6375 7.93811 24.1388 6.92769 24.1388H2.73054V21.7866ZM7.35517 28.1491H2.73054V25.7198H7.31631C8.36562 25.7198 8.75421 26.2596 8.75421 26.9151C8.75421 27.5707 8.36562 28.1491 7.35517 28.1491Z" fill="white"/>
</svg>
