<svg width="154" height="16" viewBox="0 0 154 16" fill="none" xmlns="http://www.w3.org/2000/svg">
<g clip-path="url(#clip0_178_72)">
<path d="M12.9587 4.26997C14.8757 3.84166 17.2771 3.47941 17.5474 1.07735H2.62381C1.05239 1.19633 0.0130884 2.46484 0.0130884 3.83633V7.15695L0 15.3395C0.138655 14.7393 0.580387 12.2347 1.78943 10.3492C2.69048 8.96782 3.95064 7.84494 5.35191 6.99202C7.56303 5.64761 10.2237 4.88043 12.9587 4.26997ZM22.8625 1.07202C22.8621 1.07284 22.5373 2.42997 20.4027 3.91305C18.2681 5.39612 14.4226 5.75182 12.1812 6.57192C10.0016 7.37069 7.68164 8.25356 6.18793 10.1297C5.04925 11.561 4.4934 13.5016 4.09011 15.2952C4.09011 15.2952 7.00473 15.5602 10.0752 14.4977C11.7378 13.9229 13.4757 12.7274 14.133 11.008C14.6483 9.6632 14.1534 8.4792 13.4757 7.48064C13.4757 7.48064 18.4869 6.35284 18.6137 9.94423C18.7016 12.4484 14.9608 14.5325 12.9963 15.3399H20.0841C21.6118 15.3399 22.8625 14.0858 22.8625 12.5535V9.80351V1.07202Z" fill="#7D7D7D"/>
<path d="M33.0308 6.57604C33.0308 6.57604 34.2166 5.84661 36.0363 5.84661C38.9014 5.84661 39.6331 8.11081 39.6331 10.0234C39.6331 12.8 38.5942 15.333 34.7107 15.333H31.2324V1.06958H38.7447L38.5873 2.50384L33.0308 2.08086V6.57604ZM33.0308 14.3045H34.5724C37.024 14.3045 37.6519 12.6885 37.6519 10.5518C37.6519 7.73912 35.8706 6.15102 33.0308 7.60784V14.3045Z" fill="#7D7D7D"/>
<path d="M52.5381 4.31641C52.5381 4.31641 52.5365 5.06553 52.5381 5.39538C52.5892 13.6071 51.1446 13.379 49.9785 13.7252L50.4526 15.5759C52.2718 15.0413 53.1533 13.8672 53.4522 11.1944C53.6441 9.47661 53.7782 7.44871 53.8294 5.30677H56.3227V15.333H57.9636V4.31641H52.5381Z" fill="#7D7D7D"/>
<path d="M86.5693 9.11436V9.08112C87.5967 8.75456 88.2687 7.82779 88.2687 6.7841C88.2687 4.73487 86.7865 4.31641 85.3848 4.31641H81.9434V15.333H85.3042C87.4585 15.333 88.8017 13.9238 88.8017 12.0497C88.8017 10.686 87.9211 9.45692 86.5693 9.11436ZM83.5835 5.33425H84.8694C85.858 5.33425 86.5897 5.9082 86.5897 7.07579C86.5897 8.36359 85.6907 8.96953 85.6907 8.96953H83.5835V5.33425ZM84.9885 14.3144H83.5835V9.94513H84.9484C86.2139 9.94513 87.0037 10.7382 87.0037 12.1507C87.0037 13.406 86.2727 14.3144 84.9885 14.3144Z" fill="#7D7D7D"/>
<path d="M98.289 9.1861C98.289 9.51595 98.289 9.86918 98.2698 10.0895H92.5363C92.5363 14.2052 95.0423 14.9387 97.9226 13.3609L98.3005 14.1875C97.6277 14.7607 96.0542 15.598 94.5523 15.598C92.5158 15.598 90.6602 14.1207 90.6602 10.3098C90.6602 6.78405 92.3199 4.07349 95.0664 4.07349C98.0109 4.07349 98.289 7.1582 98.289 9.1861ZM96.48 9.07164C96.48 7.04251 96.1344 5.04867 94.5343 5.04867C93.0275 5.04867 92.5956 7.35061 92.5363 9.07164H96.48Z" fill="#7D7D7D"/>
<path d="M48.9426 9.1861C48.9426 9.51595 48.9426 9.86918 48.9234 10.0895H43.1899C43.1899 14.2052 45.6959 14.9387 48.5765 13.3609L48.9549 14.1875C48.2816 14.7607 46.7086 15.598 45.2071 15.598C43.1702 15.598 41.3125 14.1207 41.3125 10.3098C41.3125 6.78405 42.9735 4.07349 45.7204 4.07349C48.6657 4.07349 48.9426 7.1582 48.9426 9.1861ZM47.134 9.07164C47.134 7.04251 46.7879 5.04867 45.1883 5.04867C43.6807 5.04867 43.25 7.35061 43.1899 9.07164H47.134Z" fill="#7D7D7D"/>
<path d="M135.425 15.333V4.31641H137.065V8.97405H140.901V4.31641H142.54V15.333H140.901V9.94677H137.065V15.333H135.425Z" fill="#7D7D7D"/>
<path d="M66.8293 4.31641L62.8243 13.2945H62.7621L62.8005 10.54V4.31641H61.1592V15.3343H62.9416L66.7463 6.60728H66.8166L66.7941 9.31989V15.3343H68.4339V4.31641H66.8293Z" fill="#7D7D7D"/>
<path d="M129.662 4.07552C128.853 4.06116 127.821 4.23675 126.507 4.66095H126.508C126.478 4.66957 126.461 4.67531 126.461 4.67531L126.735 6.28229H126.847C127.244 5.97336 128.221 5.20865 129.093 5.17911C130.741 5.17911 130.825 6.86034 130.825 7.66403V8.67901H129.422C126.418 8.67901 125.409 10.3323 125.409 12.2047C125.409 14.32 126.458 15.5766 128.137 15.5766C130.046 15.5766 130.846 14.0201 130.846 14.0201H130.905L131.063 15.333H132.545V7.71039C132.545 5.82813 132.192 4.07552 129.662 4.07552ZM130.825 12.9662C130.825 12.9662 130.173 14.2183 128.947 14.2183C127.741 14.2183 127.208 13.2406 127.208 11.8076C127.208 10.5079 128.018 9.5869 129.422 9.5869C130.035 9.5869 130.825 9.66198 130.825 9.66198V12.9662Z" fill="#7D7D7D"/>
<path d="M152.507 4.40364V4.30518H150.786L147.755 9.05348H147.328V4.31584H145.687V15.3329H147.328V9.9462H147.736L150.991 15.3308H153.021V15.2258L149.094 9.14497L152.507 4.40364Z" fill="#7D7D7D"/>
<path d="M107.727 4.31641H114.766L114.648 5.51805L112.086 5.36297V15.333H110.366V5.36297L107.608 5.51805L107.727 4.31641Z" fill="#7D7D7D"/>
<path d="M101.933 9.31771C102.031 3.95401 105.215 5.13022 106.426 6.13904H106.542L106.825 4.38232C106.825 4.38232 105.92 4.07422 104.878 4.07422C102.247 4.07422 100.104 6.76058 100.104 10.553C100.104 14.0336 102.021 15.5758 104.058 15.5758C105.756 15.5758 106.908 14.7524 107.66 14.1797L107.289 13.3596C107.289 13.3596 101.797 16.7331 101.933 9.31771Z" fill="#7D7D7D"/>
<path d="M120.33 4.9682C118.873 4.9682 117.505 6.17764 117.505 6.17764C117.677 4.72451 118.103 3.07159 119.202 2.73518C120.215 2.42544 121.931 2.40205 123.325 1.82687L123.157 0.0172308L123.116 0C122.422 0.287179 121.851 0.353231 120.552 0.701949C116.522 1.78544 115.533 6.51938 115.592 9.86913C115.65 13.2402 117.135 15.6205 119.664 15.6205C122.55 15.6205 123.878 12.3364 123.827 9.472C123.778 6.65067 122.741 4.9682 120.33 4.9682ZM119.982 14.5354C118.183 14.5354 117.47 12.2047 117.411 8.78892C117.396 7.99713 117.411 7.67426 117.441 7.12246C117.441 7.12246 118.492 6.2441 119.433 6.2441C121.451 6.2441 121.938 7.62092 121.981 10.1551C122.011 11.8527 122.037 14.5354 119.982 14.5354Z" fill="#7D7D7D"/>
<path d="M71.6299 15.333V4.31641H73.2708V8.97405H77.1061V4.31641H78.7467V15.333H77.1061V9.94677H73.2708V15.333H71.6299Z" fill="#7D7D7D"/>
</g>
<defs>
<clipPath id="clip0_178_72">
<rect width="153.379" height="16" fill="white"/>
</clipPath>
</defs>
</svg>
