<svg width="193" height="20" viewBox="0 0 193 20" fill="none" xmlns="http://www.w3.org/2000/svg">
<g clip-path="url(#clip0_44_1245)">
<path d="M16.9896 5.33746C19.3859 4.80208 22.3876 4.34926 22.7255 1.34669H4.07102C2.10674 1.49541 0.80762 3.08105 0.80762 4.79541V8.94618L0.79126 19.1744C0.964578 18.4241 1.51674 15.2934 3.02804 12.9364C4.15436 11.2098 5.72956 9.80618 7.48115 8.74003C10.245 7.05951 13.5708 6.10054 16.9896 5.33746ZM29.3694 1.34003C29.3689 1.34105 28.9629 3.03746 26.2947 4.89131C23.6264 6.74515 18.8195 7.18977 16.0177 8.2149C13.2932 9.21336 10.3933 10.3169 8.52618 12.6621C7.10282 14.4513 6.40801 16.877 5.9039 19.119C5.9039 19.119 9.54717 19.4503 13.3852 18.1221C15.4635 17.4036 17.6359 15.9093 18.4575 13.76C19.1017 12.079 18.483 10.599 17.6359 9.3508C17.6359 9.3508 23.8999 7.94105 24.0584 12.4303C24.1683 15.5605 19.4923 18.1657 17.0367 19.1749H25.8964C27.806 19.1749 29.3694 17.6072 29.3694 15.6918V12.2544V1.34003Z" fill="white"/>
<path d="M42.0799 8.21999C42.0799 8.21999 43.5621 7.3082 45.8367 7.3082C49.4181 7.3082 50.3328 10.1385 50.3328 12.5292C50.3328 16 49.0342 19.1661 44.1797 19.1661H39.8319V1.33691H49.2223L49.0255 3.12973L42.0799 2.60102V8.21999ZM42.0799 17.8805H44.0069C47.0714 17.8805 47.8562 15.8605 47.8562 13.1897C47.8562 9.67384 45.6296 7.68871 42.0799 9.50973V17.8805Z" fill="white"/>
<path d="M66.4637 5.39539C66.4637 5.39539 66.4616 6.3318 66.4637 6.7441C66.5276 17.0087 64.7218 16.7236 63.2642 17.1564L63.8567 19.4697C66.1308 18.8015 67.2326 17.3338 67.6063 13.9928C67.8461 11.8456 68.0138 9.31077 68.0777 6.63333H71.1944V19.1662H73.2456V5.39539H66.4637Z" fill="white"/>
<path d="M109.003 11.3928V11.3513C110.288 10.9431 111.128 9.78462 111.128 8.48C111.128 5.91846 109.275 5.39539 107.523 5.39539H103.221V19.1662H107.422C110.115 19.1662 111.794 17.4046 111.794 15.0621C111.794 13.3574 110.693 11.821 109.003 11.3928ZM105.271 6.66769H106.879C108.114 6.66769 109.029 7.38513 109.029 8.84462C109.029 10.4544 107.905 11.2118 107.905 11.2118H105.271V6.66769ZM107.027 17.8928H105.271V12.4313H106.977C108.559 12.4313 109.546 13.4226 109.546 15.1882C109.546 16.7574 108.633 17.8928 107.027 17.8928Z" fill="white"/>
<path d="M123.653 11.4826C123.653 11.8949 123.653 12.3364 123.629 12.6118H116.462C116.462 17.7564 119.594 18.6733 123.195 16.701L123.667 17.7344C122.826 18.4508 120.859 19.4974 118.982 19.4974C116.436 19.4974 114.117 17.6508 114.117 12.8872C114.117 8.48 116.191 5.0918 119.624 5.0918C123.305 5.0918 123.653 8.94769 123.653 11.4826ZM121.391 11.3395C121.391 8.80308 120.959 6.31077 118.959 6.31077C117.076 6.31077 116.536 9.18821 116.462 11.3395H121.391Z" fill="white"/>
<path d="M61.9696 11.4826C61.9696 11.8949 61.9696 12.3364 61.9456 12.6118H54.7787C54.7787 17.7564 57.9112 18.6733 61.5121 16.701L61.985 17.7344C61.1434 18.4508 59.1771 19.4974 57.3003 19.4974C54.7542 19.4974 52.432 17.6508 52.432 12.8872C52.432 8.48 54.5083 5.0918 57.9419 5.0918C61.6235 5.0918 61.9696 8.94769 61.9696 11.4826ZM59.7088 11.3395C59.7088 8.80308 59.2763 6.31077 57.2768 6.31077C55.3922 6.31077 54.8539 9.18821 54.7787 11.3395H59.7088Z" fill="white"/>
<path d="M170.073 19.1662V5.39539H172.123V11.2174H176.918V5.39539H178.967V19.1662H176.918V12.4333H172.123V19.1662H170.073Z" fill="white"/>
<path d="M84.3283 5.39539L79.322 16.618H79.2442L79.2923 13.1749V5.39539H77.2406V19.1677H79.4687L84.2245 8.25898H84.3124L84.2843 11.6497V19.1677H86.3339V5.39539H84.3283Z" fill="white"/>
<path d="M162.869 5.09434C161.857 5.07639 160.568 5.29588 158.925 5.82613H158.926C158.889 5.8369 158.868 5.84408 158.868 5.84408L159.21 7.8528H159.35C159.846 7.46664 161.068 6.51075 162.157 6.47382C164.218 6.47382 164.323 8.57536 164.323 9.57998V10.8487H162.569C158.813 10.8487 157.553 12.9154 157.553 15.2559C157.553 17.9 158.864 19.4707 160.963 19.4707C163.349 19.4707 164.348 17.5251 164.348 17.5251H164.422L164.619 19.1661H166.473V9.63793C166.473 7.28511 166.031 5.09434 162.869 5.09434ZM164.323 16.2077C164.323 16.2077 163.508 17.7728 161.975 17.7728C160.467 17.7728 159.802 16.5507 159.802 14.7595C159.802 13.1348 160.813 11.9836 162.569 11.9836C163.335 11.9836 164.323 12.0774 164.323 12.0774V16.2077Z" fill="white"/>
<path d="M191.425 5.50461V5.38153H189.274L185.485 11.3169H184.951V5.39486H182.9V19.1661H184.951V12.4328H185.462L189.531 19.1636H192.068V19.0323L187.159 11.4313L191.425 5.50461Z" fill="white"/>
<path d="M135.451 5.39539H144.249L144.101 6.89744L140.899 6.70359V19.1662H138.749V6.70359L135.302 6.89744L135.451 5.39539Z" fill="white"/>
<path d="M128.208 11.6472C128.33 4.94258 132.31 6.41284 133.824 7.67386H133.969L134.323 5.47796C134.323 5.47796 133.191 5.09283 131.889 5.09283C128.6 5.09283 125.922 8.45078 125.922 13.1913C125.922 17.5421 128.317 19.4698 130.863 19.4698C132.987 19.4698 134.427 18.4405 135.367 17.7246L134.902 16.6995C134.902 16.6995 128.037 20.9164 128.208 11.6472Z" fill="white"/>
<path d="M151.205 6.21026C149.384 6.21026 147.673 7.72205 147.673 7.72205C147.888 5.90564 148.421 3.83949 149.795 3.41897C151.061 3.03179 153.206 3.00256 154.949 2.28359L154.739 0.0215385L154.687 0C153.819 0.358974 153.105 0.441538 151.482 0.877436C146.444 2.23179 145.209 8.14923 145.282 12.3364C145.355 16.5503 147.21 19.5256 150.372 19.5256C153.979 19.5256 155.639 15.4205 155.576 11.84C155.514 8.31333 154.218 6.21026 151.205 6.21026ZM150.769 18.1692C148.521 18.1692 147.629 15.2559 147.556 10.9862C147.537 9.99641 147.556 9.59282 147.593 8.90308C147.593 8.90308 148.907 7.80513 150.084 7.80513C152.606 7.80513 153.214 9.52615 153.269 12.6938C153.305 14.8159 153.339 18.1692 150.769 18.1692Z" fill="white"/>
<path d="M90.329 19.1662V5.39539H92.3802V11.2174H97.1743V5.39539H99.225V19.1662H97.1743V12.4333H92.3802V19.1662H90.329Z" fill="white"/>
</g>
<defs>
<clipPath id="clip0_44_1245">
<rect width="191.724" height="20" fill="white" transform="translate(0.79126)"/>
</clipPath>
</defs>
</svg>
