<svg width="96" height="24" viewBox="0 0 96 24" fill="none" xmlns="http://www.w3.org/2000/svg">
<g clip-path="url(#clip0_44_1300)">
<path fill-rule="evenodd" clip-rule="evenodd" d="M0.99054 0V6.86946L6.12108 12H12.9905L0.99054 0ZM10.9175 10.3401L9.55221 11.7054H7.69473L3.45521 7.46586H8.03964L10.9175 10.3401Z" fill="white"/>
<path fill-rule="evenodd" clip-rule="evenodd" d="M12.9905 0H0.99054L12.9905 12V0ZM11.3307 9.92337L12.6959 8.5581V6.70421L8.4564 2.46469V7.04912L11.3307 9.92337Z" fill="white"/>
<path fill-rule="evenodd" clip-rule="evenodd" d="M12.9905 24H0.99054L12.9905 12V24ZM11.3307 14.0766L12.6959 15.4419V17.2994L8.4564 21.5353V16.9509L11.3307 14.0766Z" fill="white"/>
<path fill-rule="evenodd" clip-rule="evenodd" d="M0.99054 24V17.1305L6.12108 12H12.9905L0.99054 24ZM10.9175 13.6599L9.55221 12.2946H7.69473L3.45521 16.5341H8.03964L10.9175 13.6599Z" fill="white"/>
<path fill-rule="evenodd" clip-rule="evenodd" d="M24.0756 16.5897C23.4702 18.0442 22.5833 19.3647 21.466 20.4754L12.9905 12H24.9941C24.9932 13.5755 24.6811 15.1352 24.0756 16.5897ZM15.0672 13.6599L16.4325 12.2946H18.2899L22.5259 16.5341H17.9414L15.0672 13.6599Z" fill="white"/>
<path fill-rule="evenodd" clip-rule="evenodd" d="M17.5797 23.0829C16.1253 23.6877 14.5657 23.9994 12.9905 24V12L21.466 20.4754C20.3548 21.5919 19.0342 22.478 17.5797 23.0829ZM14.6504 14.0766L13.2852 15.4419V17.2994L17.5247 21.5353V16.9509L14.6504 14.0766Z" fill="white"/>
<path fill-rule="evenodd" clip-rule="evenodd" d="M17.5797 0.917128C16.1253 0.312294 14.5657 0.000623368 12.9905 0V12L21.466 3.52455C20.3548 2.40805 19.0342 1.52196 17.5797 0.917128ZM14.6504 9.92337L13.2852 8.5581V6.70421L17.5247 2.46469V7.04912L14.6504 9.92337Z" fill="white"/>
<path fill-rule="evenodd" clip-rule="evenodd" d="M24.0759 7.41022C23.4704 5.95571 22.5835 4.63521 21.466 3.5246L12.9905 12H24.9941C24.9934 10.4245 24.6814 8.86472 24.0759 7.41022ZM15.0672 10.3401L16.4325 11.7054H18.2899L22.5259 7.46589H17.9414L15.0672 10.3401Z" fill="white"/>
<path fill-rule="evenodd" clip-rule="evenodd" d="M34.3319 8.48981C34.6788 8.51135 35.0235 8.42202 35.3163 8.23472C35.4329 8.15083 35.5267 8.03926 35.5894 7.91006C35.6522 7.78085 35.6818 7.63808 35.6756 7.4946C35.6756 6.86226 35.2336 6.5425 34.3498 6.5425H32.6756V8.48981H34.3319ZM30.9905 2.48981H36.836V3.82274H32.6576V5.31376H34.6624C35.3719 5.26556 36.0769 5.45795 36.6636 5.85987C36.8952 6.05104 37.0783 6.29418 37.1982 6.5695C37.3181 6.84482 37.3712 7.14455 37.3534 7.4443C37.3694 7.76583 37.3083 8.08653 37.1752 8.37965C37.0421 8.67277 36.8408 8.92981 36.5881 9.12933C35.9572 9.56536 35.198 9.77668 34.4325 9.72933H30.9977L30.9905 2.48981Z" fill="white"/>
<path fill-rule="evenodd" clip-rule="evenodd" d="M43.4468 6.64669V5.61196C43.4822 5.11835 43.3222 4.6306 43.0013 4.25388C42.6669 3.95763 42.2355 3.79406 41.7887 3.79406C41.3419 3.79406 40.9106 3.95763 40.5762 4.25388C40.2562 4.63096 40.0975 5.11879 40.1342 5.61196V6.64669H43.4468ZM43.551 2.75926C44.0446 3.01925 44.4479 3.42257 44.7079 3.91615C44.9982 4.48865 45.1403 5.12483 45.1211 5.76645V9.71854H43.4468V7.994H40.1342V9.72932H38.4672V5.77723C38.448 5.13561 38.59 4.49943 38.8803 3.92693C39.1403 3.43335 39.5436 3.03003 40.0372 2.77004C40.5838 2.50984 41.1816 2.37482 41.7869 2.37482C42.3923 2.37482 42.99 2.50984 43.5366 2.77004L43.551 2.75926Z" fill="white"/>
<path fill-rule="evenodd" clip-rule="evenodd" d="M53.46 2.48981V9.73292H51.7822V6.76166H48.4947V9.73292H46.8169V2.48981H48.4947V5.34609H51.7822V2.48981H53.46Z" fill="white"/>
<path fill-rule="evenodd" clip-rule="evenodd" d="M57.9798 6.81196H56.8193V9.72933H55.1558V2.48981H56.8193V5.41795H58.0193L59.9235 2.48981H61.6912L59.3235 5.98562L61.763 9.72933H59.8624L57.9798 6.81196Z" fill="white"/>
<path fill-rule="evenodd" clip-rule="evenodd" d="M35.9522 20.1736V17.2994C35.9859 16.8309 35.8321 16.3682 35.5247 16.0131C35.363 15.8635 35.1727 15.7481 34.9652 15.674C34.7577 15.5999 34.5374 15.5686 34.3175 15.582C34.0977 15.5701 33.8778 15.602 33.6705 15.6761C33.4632 15.7501 33.2728 15.8647 33.1103 16.0131C32.9548 16.1872 32.8359 16.3908 32.7606 16.6118C32.6853 16.8327 32.6552 17.0666 32.672 17.2994V20.1736H35.9522ZM38.5175 20.1736V23.0479H36.9654V21.5461H31.666V23.0479H30.1139V20.1736H30.9834V17.4646C30.9625 16.8401 31.1049 16.2209 31.3965 15.6682C31.6629 15.186 32.0686 14.7953 32.5606 14.5473C33.1066 14.2941 33.7013 14.163 34.3031 14.163C34.905 14.163 35.4996 14.2941 36.0456 14.5473C36.5376 14.7953 36.9433 15.186 37.2097 15.6682C37.5013 16.2209 37.6437 16.8401 37.6229 17.4646V20.1736H38.5175Z" fill="white"/>
<path fill-rule="evenodd" clip-rule="evenodd" d="M44.6073 18.4419V17.4072C44.6421 16.9125 44.4822 16.4239 44.1618 16.0455C43.8274 15.7492 43.396 15.5857 42.9492 15.5857C42.5024 15.5857 42.0711 15.7492 41.7367 16.0455C41.4175 16.4244 41.2589 16.913 41.2947 17.4072V18.4419H44.6073ZM44.7079 14.5509C45.2035 14.811 45.6082 15.2158 45.8684 15.7113C46.1587 16.2838 46.3008 16.92 46.2816 17.5616V21.5137H44.6073V19.7748H41.2947V21.5137H39.642V17.5616C39.6228 16.92 39.7649 16.2838 40.0552 15.7113C40.3152 15.2168 40.7184 14.8124 41.2121 14.5509C41.7587 14.2929 42.3556 14.1592 42.96 14.1592C43.5644 14.1592 44.1613 14.2929 44.7079 14.5509Z" fill="white"/>
<path fill-rule="evenodd" clip-rule="evenodd" d="M51.3187 20.2814C51.6652 20.3045 52.0101 20.2164 52.3031 20.0299C52.4161 19.9438 52.5064 19.8314 52.5659 19.7023C52.6254 19.5733 52.6523 19.4317 52.6444 19.2898C52.6444 18.6551 52.2025 18.3377 51.3187 18.3377H49.6444V20.2814H51.3187ZM47.9774 14.2814H53.8229V15.618H49.6444V17.1054H51.6492C52.3604 17.0571 53.0669 17.2509 53.654 17.6551C53.8845 17.847 54.0666 18.0904 54.1858 18.3656C54.305 18.6408 54.3579 18.9401 54.3402 19.2395C54.3562 19.561 54.2951 19.8818 54.162 20.1749C54.0289 20.468 53.8276 20.725 53.575 20.9245C52.9433 21.3591 52.1846 21.5702 51.4193 21.5245H47.9845L47.9774 14.2814Z" fill="white"/>
<path fill-rule="evenodd" clip-rule="evenodd" d="M59.7761 18.1257C59.9137 17.988 60.0204 17.8226 60.0892 17.6405C60.158 17.4584 60.1872 17.2637 60.175 17.0695C60.1862 16.872 60.1566 16.6744 60.088 16.4889C60.0194 16.3035 59.9132 16.1342 59.7761 15.9916C59.4555 15.7363 59.056 15.6007 58.6463 15.6079C58.2365 15.6151 57.8421 15.7647 57.5306 16.0311C57.3879 16.1935 57.2786 16.3825 57.209 16.5871C57.1393 16.7918 57.1106 17.0082 57.1247 17.2239V18.018C57.3436 18.1751 57.5861 18.2964 57.8432 18.3772C58.1059 18.4601 58.3797 18.5025 58.6552 18.503C59.0646 18.533 59.4698 18.4043 59.7869 18.1437L59.7761 18.1257ZM61.0085 14.9497C61.2968 15.2132 61.5227 15.5375 61.67 15.8992C61.8173 16.2609 61.8822 16.6508 61.86 17.0407C61.8806 17.4086 61.8227 17.7767 61.6901 18.1205C61.5576 18.4642 61.3534 18.7759 61.0911 19.0347C60.4936 19.5459 59.7202 19.8038 58.9354 19.7533C58.6384 19.7532 58.3421 19.7219 58.0516 19.6599C57.7345 19.5873 57.4252 19.4839 57.1282 19.3509V21.5066H55.472V17.2347C55.4454 16.8252 55.5038 16.4147 55.6435 16.0289C55.7832 15.643 56.0013 15.2903 56.2839 14.9928C56.8253 14.4683 57.6097 14.206 58.6372 14.206C59.492 14.1558 60.3355 14.4203 61.0085 14.9497Z" fill="white"/>
<path fill-rule="evenodd" clip-rule="evenodd" d="M67.9534 18.4275V17.3928C67.9905 16.8979 67.8304 16.4084 67.5079 16.0311C67.1734 15.7349 66.7421 15.5713 66.2953 15.5713C65.8485 15.5713 65.4172 15.7349 65.0827 16.0311C64.7655 16.411 64.6084 16.8993 64.6444 17.3928V18.4275H67.9534ZM68.0576 14.5365C68.5518 14.7956 68.9554 15.1992 69.2144 15.6934C69.506 16.2669 69.6493 16.9042 69.6312 17.5473V21.4994H67.9534V19.7605H64.6444V21.4994H62.9881V17.5473C62.9689 16.9045 63.1109 16.2672 63.4013 15.6934C63.6617 15.1989 64.0664 14.7954 64.5618 14.5365C65.1084 14.2786 65.7053 14.1448 66.3097 14.1448C66.9141 14.1448 67.511 14.2786 68.0576 14.5365Z" fill="white"/>
<path fill-rule="evenodd" clip-rule="evenodd" d="M74.6684 20.2671C75.0138 20.2902 75.3575 20.2021 75.6492 20.0156C75.763 19.9302 75.8537 19.8178 75.9133 19.6886C75.9729 19.5594 75.9994 19.4175 75.9905 19.2755C75.9905 18.6383 75.5498 18.321 74.6684 18.3234H72.9905V20.2671H74.6684ZM71.3271 14.2671H77.1726V15.6036H72.9905V17.091H74.9989C75.709 17.0427 76.4144 17.2365 77.0001 17.6407C77.2314 17.8312 77.4142 18.0737 77.5335 18.3486C77.6528 18.6234 77.7052 18.9226 77.6864 19.2216C77.6991 19.5417 77.6353 19.8602 77.5004 20.1508C77.3654 20.4413 77.1631 20.6955 76.9103 20.8922C76.2802 21.3303 75.5206 21.543 74.7546 21.4958H71.3199L71.3271 14.2671Z" fill="white"/>
<path fill-rule="evenodd" clip-rule="evenodd" d="M87.775 21.5102H86.1187V14.2671H87.775V21.5102ZM83.1295 20.0084C83.2621 19.8893 83.3662 19.7419 83.434 19.5771C83.5018 19.4122 83.5316 19.2342 83.5211 19.0563C83.531 18.8724 83.4986 18.6886 83.4264 18.5192C83.3541 18.3498 83.2439 18.1992 83.1043 18.0791C82.7873 17.8312 82.3926 17.7039 81.9906 17.7198C81.724 17.7215 81.459 17.7614 81.2037 17.8383C80.9492 17.9141 80.7071 18.0267 80.4852 18.1725V18.8659C80.4744 19.0636 80.5045 19.2614 80.5738 19.4468C80.643 19.6323 80.7499 19.8015 80.8876 19.9437C81.2066 20.2155 81.6191 20.3521 82.0373 20.3246C82.4376 20.3436 82.831 20.2158 83.1438 19.9653L83.1295 20.0084ZM84.448 17.1341C84.6971 17.3903 84.8927 17.6934 85.0234 18.0259C85.1541 18.3584 85.2173 18.7136 85.2093 19.0708C85.2012 19.428 85.1222 19.78 84.9767 20.1063C84.8312 20.4325 84.6221 20.7266 84.3618 20.9713C83.6628 21.4747 82.8107 21.7198 81.951 21.6647C80.9235 21.6647 80.1438 21.4335 79.6121 20.9713C79.3368 20.7118 79.1225 20.3945 78.9845 20.0423C78.8466 19.69 78.7885 19.3116 78.8145 18.9341V14.2635H80.4708V16.8719C81.0731 16.6001 81.725 16.4557 82.3858 16.4479C83.1358 16.406 83.8743 16.6471 84.4552 17.1234L84.448 17.1341Z" fill="white"/>
<path fill-rule="evenodd" clip-rule="evenodd" d="M95.1798 15.6323H92.8624V21.5101H91.2061V15.6323H88.8995V14.2706H95.1798V15.6323Z" fill="white"/>
</g>
<defs>
<clipPath id="clip0_44_1300">
<rect width="94.1892" height="24" fill="white" transform="translate(0.99054)"/>
</clipPath>
</defs>
</svg>
