<svg width="76" height="16" viewBox="0 0 76 16" fill="none" xmlns="http://www.w3.org/2000/svg">
<path d="M5.23438 8.98592C5.46155 12.6856 8.5661 15.6916 12.3521 15.6916C14.548 15.6916 16.5167 14.6896 17.8039 13.148C17.8039 13.148 17.5765 13.3022 17.2739 13.148C17.2739 13.148 7.65741 9.44836 5.68866 8.75471H5.53723C5.31006 8.75471 5.23438 8.90885 5.23438 8.98592ZM8.33887 2.74274L18.334 7.44442C19.2424 7.90685 19.3182 7.29027 19.3182 7.29027C18.7124 3.97596 15.7595 1.50952 12.3521 1.50952C10.8377 1.50952 9.47473 1.97197 8.33887 2.74274Z" fill="#7D7D7D"/>
<path fill-rule="evenodd" clip-rule="evenodd" d="M18.2584 10.4504C18.2584 10.4504 2.88728 3.43645 2.73586 3.35937C2.28151 3.20521 1.6758 3.5906 2.05434 4.13013C2.13008 4.20721 3.34163 5.98 3.34163 5.98C3.34163 5.98 2.96303 5.36336 3.03871 5.13212C3.03871 4.97797 3.26589 4.82382 3.34163 4.90089C3.49306 4.97797 17.9558 11.2982 17.9558 11.2982C18.4858 11.5294 18.9401 11.3753 19.0917 10.9899C19.2427 10.6816 19.3185 10.2962 19.3943 9.98794C19.2427 10.065 18.9401 10.7587 18.2584 10.4504ZM19.3943 7.75272C19.3943 7.90687 19.2427 8.67765 18.41 8.29229C18.2584 8.29229 1.07002 0.199237 0.842851 0.0450807C0.539936 -0.109071 -0.217265 0.122159 0.161336 0.892918L1.52431 3.12814C1.52431 3.12814 1.2972 2.58861 1.22145 2.12614C1.22145 1.97199 1.37288 1.81784 1.60005 1.89491C1.60005 1.89491 18.3342 9.37136 18.4858 9.44837C18.8643 9.60258 19.3943 9.5255 19.4701 9.06301V8.60058C19.3943 8.29229 19.3943 8.06107 19.3943 7.75272ZM17.8042 12.069C17.7284 12.069 4.62886 6.44243 4.47743 6.44243C4.02309 6.28823 3.72023 6.67365 4.02309 7.13608C4.02309 7.21321 5.0832 8.5235 5.0832 8.5235C5.0832 8.5235 4.85603 8.13808 4.85603 7.98394C4.85603 7.82985 4.93177 7.59852 5.31037 7.75272C5.61323 7.90687 17.4258 12.7627 17.4258 12.7627C17.8042 12.9168 18.1068 12.9168 18.2584 12.6856C18.4858 12.3773 18.7127 11.9919 18.8643 11.6065C18.6374 11.7607 18.3342 12.3003 17.8042 12.069Z" fill="#7D7D7D"/>
<path d="M64.297 6.21126V6.75076C64.5244 6.82789 64.6755 6.90491 64.7507 7.13613C64.8265 7.29033 64.9029 7.75276 64.9029 8.52349V10.6817H63.0848V8.52349C63.0848 7.82984 63.0848 7.36734 63.237 7.13613C63.3122 6.98198 63.4638 6.82789 63.6906 6.75076V6.21126H60.6621V6.75076C60.8895 6.75076 61.1163 6.90491 61.1921 7.13613C61.2679 7.29033 61.2679 7.75276 61.2679 8.44641V13.6106C61.2679 14.3813 61.2679 14.7667 61.1921 14.9208C61.0405 15.1521 60.8895 15.2292 60.6621 15.3062V15.8458H63.6154V15.3062C63.388 15.2292 63.237 15.1521 63.1606 14.9208C63.0848 14.7667 63.0096 14.3043 63.0096 13.5335V11.2212H64.8265V13.5335C64.8265 14.2271 64.8265 14.6896 64.6755 14.9208C64.5997 15.075 64.4481 15.2292 64.2212 15.3062V15.8458H67.174V15.3062C66.9472 15.3062 66.7198 15.1521 66.644 14.9208C66.5688 14.7667 66.4924 14.3043 66.4924 13.6106V8.52349C66.4924 7.75276 66.4924 7.36734 66.644 7.2132C66.795 6.98198 66.9472 6.82789 67.174 6.82789V6.28833H64.297V6.21126ZM30.904 1.89495L28.5565 11.067L26.1338 1.97202H22.6504V2.51156H22.953C23.1804 2.51156 23.4078 2.58863 23.5588 2.74278C23.7105 2.89694 23.7863 3.05109 23.8621 3.20524C23.9379 3.3594 23.9378 3.82185 23.9378 4.51555V14.073C23.862 14.3813 23.7863 14.6896 23.7105 14.8438C23.6346 14.9979 23.4836 15.1521 23.332 15.3062C23.1804 15.3833 23.0288 15.4604 22.802 15.4604H22.7262V16H25.8306V15.4604C25.4521 15.4604 25.1495 15.3833 24.9979 15.1521C24.8463 14.9208 24.6947 14.6896 24.6189 14.3043V3.976L27.7239 15.7686H28.1023L31.1309 4.13017V13.2252C31.1309 13.9189 31.1309 14.3813 31.0556 14.5355C30.9798 14.7667 30.904 14.9208 30.8282 14.9979C30.6766 15.1521 30.4498 15.2292 30.2224 15.2292H29.9198V15.7686H34.3868V15.2292H34.0842C33.8568 15.2292 33.63 15.1521 33.4784 15.075C33.3268 14.9208 33.2516 14.7667 33.1758 14.6126C33.1758 14.4584 33.1 13.9959 33.1 13.3023V4.36139C33.1 3.6677 33.1 3.28232 33.1758 3.05109C33.2516 2.81987 33.3268 2.66571 33.4026 2.58863C33.5542 2.43448 33.7816 2.3574 34.0084 2.3574H34.3116V1.81787L30.904 1.89495ZM68.5367 1.89495V2.43448C68.8399 2.51156 68.9915 2.58863 69.0673 2.74278C69.1425 2.89694 69.2189 3.3594 69.2189 4.13017V13.5335C69.2189 14.3043 69.2189 14.6896 69.0673 14.8438C68.9915 15.075 68.7641 15.1521 68.5367 15.2292V15.7686H71.5664V15.2292C71.2632 15.1521 71.1116 15.075 71.0358 14.9208C70.96 14.7667 70.8842 14.6126 70.8842 13.5335V11.992L71.2632 11.3753L72.3991 13.9959C72.5501 14.4584 72.7017 14.6896 72.7017 14.8438C72.7017 14.9208 72.7017 14.9979 72.6259 15.1521C72.5501 15.2292 72.4743 15.3062 72.3233 15.3062V15.8458H75.3519V15.3062C75.1245 15.3062 74.9734 15.1521 74.8218 14.9208C74.746 14.7667 74.3676 14.1501 73.8376 12.8398L72.4743 9.52549C72.4743 9.52549 73.7618 7.44441 74.216 7.05911C74.3676 6.90491 74.6708 6.75076 74.8971 6.75076V6.21126H72.2475V6.75076C73.1559 6.75076 73.0801 7.52154 72.8527 7.90691C72.7775 8.06105 70.96 10.9129 70.96 10.9129V1.89495H68.5367ZM35.6743 1.89495V5.67169H36.2043C36.2801 4.6697 36.2043 3.82185 36.6586 3.28232C36.9618 2.89694 37.3402 2.66571 37.8702 2.66571H38.4761V13.2252C38.4761 13.9189 38.4761 14.3813 38.4003 14.5355C38.3245 14.7667 38.2487 14.9208 38.1729 14.9979C38.0218 15.1521 37.7944 15.2292 37.5676 15.2292H37.2644V15.7686H41.732V15.3062H41.4288C41.202 15.3062 40.9746 15.2292 40.8236 15.1521C40.672 14.9979 40.5962 14.8438 40.5204 14.6896C40.5204 14.5355 40.4446 14.073 40.4446 13.3793V2.74278H41.0504C41.6562 2.74278 42.0347 2.89694 42.2621 3.3594C42.6405 3.89893 42.5647 4.6697 42.7163 5.74876H43.2463V1.97202L35.6743 1.89495ZM47.9408 14.6896C47.7898 14.5355 47.7898 14.2271 47.7898 13.9189V6.82789C48.3956 6.82789 48.9256 6.90491 49.2282 7.13613C49.5314 7.36734 49.8341 7.67563 49.9857 8.2152C50.4399 9.52549 50.4399 12.3003 50.0615 13.6106C49.9099 14.0731 49.6825 14.3813 49.3798 14.6896C49.0766 14.9208 48.774 15.075 48.4714 15.075C48.244 14.9979 48.0924 14.9208 47.9408 14.6896ZM44.6096 1.89495V2.43448C44.988 2.43448 45.2906 2.51156 45.4422 2.58863C45.5938 2.74278 45.6696 2.89694 45.7454 3.05109C45.8207 3.20524 45.8207 3.59062 45.8207 4.28432V13.1481C45.8207 13.9189 45.8207 14.3813 45.7454 14.5355C45.6696 14.6896 45.5938 14.8438 45.4422 14.9979C45.2906 15.1521 45.0638 15.1521 44.6096 15.1521V15.6916H48.9256C50.1367 15.6916 51.0457 15.2292 51.6516 14.4584C52.7116 13.0711 52.7874 8.75476 51.7268 7.36734C50.8183 6.13413 49.1524 5.98004 47.714 5.98004V2.66571H49.3798C49.9857 2.66571 50.3641 2.81987 50.5915 3.28232C50.9699 3.82185 50.8941 4.59262 51.0457 5.67169H51.5758V1.89495H44.6096ZM55.5886 12.3773C55.816 11.8378 56.4218 10.9129 56.9519 10.4505V13.6106C56.7245 13.9189 56.4218 14.1501 56.1944 14.1501C55.5886 14.073 55.1344 13.3793 55.5886 12.3773ZM55.3618 6.28833C54.9075 6.51955 54.6043 6.90491 54.3775 7.36734C54.1501 7.82983 54.0743 8.2152 53.9985 8.83183C53.9985 9.60262 54.4533 9.98792 54.9828 9.98792C55.4376 9.98792 55.8918 9.60262 55.8918 9.06305C55.8918 8.90891 55.816 8.75476 55.7402 8.60062C55.5886 8.3694 54.9833 7.82983 55.5886 7.05911C55.7402 6.90491 55.9676 6.75076 56.2702 6.75076C56.7245 6.75076 56.8761 7.13613 57.0277 7.44442C57.1035 7.59862 57.1035 8.06105 57.1035 8.83183V9.7567C55.816 10.6817 54.9828 11.5295 54.6043 12.0691C54.0743 12.6086 53.8475 13.1481 53.8475 13.8418C53.8475 14.9208 54.4533 15.8458 55.3618 15.8458C56.2702 15.8458 56.8003 15.2292 57.0277 14.3043C57.0277 14.8438 57.1793 15.2292 57.4061 15.4604C57.5577 15.6916 57.8603 15.8458 58.1635 15.8458C58.4661 15.8458 58.8446 15.7686 59.072 15.5374C59.2994 15.3062 59.5262 14.9979 59.6778 14.4584L59.2994 14.1501C59.1478 14.3813 58.9204 14.3813 58.9204 14.3043C58.8446 14.2271 58.8446 14.1501 58.8446 14.073V9.7567C58.8446 8.67763 58.8446 8.06105 58.7693 7.75276C58.6177 6.90491 58.0877 5.90291 56.8003 5.90291C56.1944 5.90291 55.816 6.05705 55.3618 6.28833Z" fill="#7D7D7D"/>
</svg>
