<svg width="114" height="24" viewBox="0 0 114 24" fill="none" xmlns="http://www.w3.org/2000/svg">
<path d="M7.8512 13.4789C8.19195 19.0284 12.8488 23.5374 18.5278 23.5374C21.8216 23.5374 24.7747 22.0344 26.7055 19.7221C26.7055 19.7221 26.3644 19.9534 25.9105 19.7221C25.9105 19.7221 11.4857 14.1726 8.53263 13.1321H8.30548C7.96472 13.1321 7.8512 13.3633 7.8512 13.4789ZM12.5079 4.11417L27.5006 11.1667C28.8633 11.8603 28.977 10.9355 28.977 10.9355C28.0682 5.964 23.6388 2.26434 18.5278 2.26434C16.2562 2.26434 14.2117 2.95802 12.5079 4.11417Z" fill="white"/>
<path fill-rule="evenodd" clip-rule="evenodd" d="M27.3869 15.6756C27.3869 15.6756 4.33019 5.15467 4.10305 5.03906C3.42153 4.80782 2.51296 5.3859 3.08078 6.19519C3.19439 6.31081 5.01171 8.96999 5.01171 8.96999C5.01171 8.96999 4.44381 8.04504 4.55733 7.69819C4.55733 7.46696 4.8981 7.23573 5.01171 7.35134C5.23885 7.46696 26.933 16.9473 26.933 16.9473C27.728 17.2942 28.4094 17.063 28.6368 16.4848C28.8633 16.0225 28.977 15.4443 29.0907 14.9819C28.8633 15.0975 28.4094 16.138 27.3869 15.6756ZM29.0907 11.6291C29.0907 11.8603 28.8633 13.0165 27.6143 12.4384C27.3869 12.4384 1.6043 0.298856 1.26354 0.0676211C0.809171 -0.163607 -0.326629 0.183239 0.241272 1.33938L2.28573 4.6922C2.28573 4.6922 1.94506 3.88291 1.83145 3.18921C1.83145 2.95799 2.05859 2.72676 2.39935 2.84237C2.39935 2.84237 27.5006 14.057 27.728 14.1726C28.2957 14.4039 29.0907 14.2883 29.2044 13.5945V12.9009C29.0907 12.4384 29.0907 12.0916 29.0907 11.6291ZM26.7056 18.1034C26.5919 18.1034 6.94255 9.66365 6.71541 9.66365C6.0339 9.43234 5.57961 10.0105 6.0339 10.7041C6.0339 10.8198 7.62407 12.7853 7.62407 12.7853C7.62407 12.7853 7.28331 12.2071 7.28331 11.9759C7.28331 11.7448 7.39693 11.3978 7.96483 11.6291C8.41912 11.8603 26.1379 19.1441 26.1379 19.1441C26.7056 19.3752 27.1595 19.3752 27.3869 19.0284C27.728 18.566 28.0683 17.9879 28.2957 17.4098C27.9554 17.6411 27.5006 18.4504 26.7056 18.1034Z" fill="white"/>
<path d="M96.4446 9.31694V10.1262C96.7858 10.2419 97.0123 10.3574 97.1251 10.7042C97.2388 10.9356 97.3534 11.6292 97.3534 12.7853V16.0226H94.6263V12.7853C94.6263 11.7448 94.6263 11.0511 94.8546 10.7042C94.9674 10.473 95.1948 10.2419 95.535 10.1262V9.31694H90.9922V10.1262C91.3333 10.1262 91.6735 10.3574 91.7872 10.7042C91.9009 10.9356 91.9009 11.6292 91.9009 12.6697V20.4159C91.9009 21.5721 91.9009 22.1501 91.7872 22.3813C91.5598 22.7282 91.3333 22.8439 90.9922 22.9594V23.7687H95.4222V22.9594C95.0811 22.8439 94.8546 22.7282 94.74 22.3813C94.6263 22.1501 94.5135 21.4565 94.5135 20.3003V16.8319H97.2388V20.3003C97.2388 21.3408 97.2388 22.0345 97.0123 22.3813C96.8986 22.6125 96.6712 22.8439 96.3309 22.9594V23.7687H100.76V22.9594C100.42 22.9594 100.079 22.7282 99.9651 22.3813C99.8522 22.1501 99.7377 21.4565 99.7377 20.4159V12.7853C99.7377 11.6292 99.7377 11.0511 99.9651 10.8199C100.192 10.473 100.42 10.2419 100.76 10.2419V9.43255H96.4446V9.31694ZM46.3551 2.84248L42.8339 16.6006L39.1997 2.95809H33.9747V3.7674H34.4286C34.7697 3.7674 35.1108 3.88301 35.3374 4.11423C35.5648 4.34548 35.6785 4.5767 35.7922 4.80793C35.9059 5.03915 35.9059 5.73284 35.9059 6.77338V21.1095C35.7922 21.5721 35.6785 22.0345 35.5648 22.2657C35.4511 22.4969 35.2245 22.7282 34.9971 22.9594C34.7697 23.0751 34.5423 23.1907 34.2021 23.1907H34.0884V24H38.7449V23.1907C38.1773 23.1907 37.7233 23.0751 37.4959 22.7282C37.2685 22.3813 37.0411 22.0345 36.9274 21.4565V5.96407L41.5849 23.653H42.1525L46.6954 6.19531V19.8379C46.6954 20.8784 46.6954 21.5721 46.5825 21.8033C46.4688 22.1501 46.3551 22.3813 46.2414 22.4969C46.014 22.7282 45.6738 22.8439 45.3327 22.8439H44.8787V23.653H51.5793V22.8439H51.1254C50.7843 22.8439 50.4441 22.7282 50.2167 22.6126C49.9893 22.3813 49.8764 22.1501 49.7627 21.9189C49.7627 21.6876 49.649 20.9939 49.649 19.9535V6.54214C49.649 5.50161 49.649 4.92355 49.7627 4.5767C49.8764 4.22986 49.9893 3.99862 50.103 3.88301C50.3304 3.65178 50.6715 3.53616 51.0117 3.53616H51.4665V2.72687L46.3551 2.84248ZM102.804 2.84248V3.65178C103.259 3.7674 103.486 3.88301 103.6 4.11423C103.713 4.34548 103.827 5.03915 103.827 6.19531V20.3003C103.827 21.4565 103.827 22.0345 103.6 22.2657C103.486 22.6126 103.145 22.7282 102.804 22.8439V23.653H107.349V22.8439C106.894 22.7282 106.667 22.6125 106.553 22.3813C106.439 22.1501 106.325 21.9189 106.325 20.3003V17.988L106.894 17.0631L108.598 20.9939C108.824 21.6876 109.052 22.0345 109.052 22.2657C109.052 22.3813 109.052 22.4969 108.938 22.7282C108.824 22.8439 108.711 22.9594 108.484 22.9594V23.7687H113.027V22.9594C112.686 22.9594 112.459 22.7282 112.232 22.3813C112.118 22.1501 111.55 21.2252 110.755 19.2598L108.711 14.2883C108.711 14.2883 110.642 11.1667 111.323 10.5887C111.55 10.3574 112.005 10.1262 112.345 10.1262V9.31694H108.37V10.1262C109.733 10.1262 109.619 11.2824 109.278 11.8604C109.165 12.0916 106.439 16.3694 106.439 16.3694V2.84248H102.804ZM53.5105 2.84248V8.5076H54.3056C54.4193 7.00461 54.3056 5.73284 54.9869 4.92355C55.4417 4.34548 56.0094 3.99862 56.8044 3.99862H57.7132V19.8379C57.7132 20.8784 57.7132 21.5721 57.5995 21.8033C57.4858 22.1501 57.3721 22.3813 57.2584 22.4969C57.0318 22.7282 56.6907 22.8439 56.3505 22.8439H55.8957V23.653H62.5971V22.9594H62.1423C61.8021 22.9594 61.461 22.8439 61.2344 22.7282C61.007 22.4969 60.8933 22.2657 60.7796 22.0345C60.7796 21.8033 60.6659 21.1096 60.6659 20.0691V4.11423H61.5747C62.4834 4.11423 63.0511 4.34548 63.3922 5.03915C63.9598 5.84846 63.8461 7.00461 64.0735 8.62321H64.8686V2.95809L53.5105 2.84248ZM71.9103 22.0345C71.6837 21.8033 71.6837 21.3408 71.6837 20.8784V10.2419C72.5925 10.2419 73.3875 10.3574 73.8414 10.7042C74.2963 11.0511 74.7502 11.5135 74.9776 12.3229C75.6589 14.2883 75.6589 18.4505 75.0913 20.4159C74.8639 21.1096 74.5228 21.5721 74.0688 22.0345C73.614 22.3813 73.1601 22.6126 72.7062 22.6126C72.3651 22.4969 72.1377 22.3813 71.9103 22.0345ZM66.9135 2.84248V3.65178C67.4811 3.65178 67.935 3.7674 68.1624 3.88301C68.3898 4.11423 68.5035 4.34548 68.6172 4.5767C68.7301 4.80793 68.7301 5.386 68.7301 6.42654V19.7222C68.7301 20.8784 68.7301 21.5721 68.6172 21.8033C68.5035 22.0345 68.3898 22.2657 68.1624 22.4969C67.935 22.7282 67.5948 22.7282 66.9135 22.7282V23.5375H73.3875C75.2041 23.5375 76.5677 22.8439 77.4764 21.6876C79.0665 19.6066 79.1802 13.1322 77.5893 11.0511C76.2266 9.20125 73.7277 8.97012 71.57 8.97012V3.99862H74.0688C74.9776 3.99862 75.5452 4.22986 75.8863 4.92355C76.454 5.73284 76.3403 6.88899 76.5677 8.5076H77.3627V2.84248H66.9135ZM83.382 18.5661C83.7231 17.7567 84.6318 16.3694 85.4269 15.6758V20.4159C85.0858 20.8784 84.6318 21.2252 84.2907 21.2252C83.382 21.1095 82.7006 20.0691 83.382 18.5661ZM83.0417 9.43255C82.3604 9.77938 81.9056 10.3574 81.5653 11.0511C81.2242 11.7448 81.1105 12.3229 80.9968 13.2478C80.9968 14.404 81.6791 14.9819 82.4732 14.9819C83.1554 14.9819 83.8368 14.404 83.8368 13.5946C83.8368 13.3634 83.7231 13.1322 83.6094 12.901C83.382 12.5542 82.4741 11.7448 83.382 10.5887C83.6094 10.3574 83.9505 10.1262 84.4044 10.1262C85.0858 10.1262 85.3132 10.7042 85.5406 11.1667C85.6543 11.398 85.6543 12.0916 85.6543 13.2478V14.6351C83.7231 16.0226 82.4732 17.2944 81.9056 18.1036C81.1105 18.913 80.7703 19.7222 80.7703 20.7627C80.7703 22.3813 81.6791 23.7687 83.0417 23.7687C84.4044 23.7687 85.1995 22.8439 85.5406 21.4565C85.5406 22.2657 85.768 22.8439 86.1082 23.1907C86.3356 23.5375 86.7896 23.7687 87.2444 23.7687C87.6983 23.7687 88.2659 23.653 88.607 23.3062C88.9482 22.9594 89.2884 22.4969 89.5158 21.6876L88.9481 21.2252C88.7207 21.5721 88.3796 21.5721 88.3796 21.4565C88.2659 21.3408 88.2659 21.2252 88.2659 21.1095V14.6351C88.2659 13.0165 88.2659 12.0916 88.1531 11.6292C87.9257 10.3574 87.1307 8.85442 85.1995 8.85442C84.2907 8.85442 83.7231 9.08564 83.0417 9.43255Z" fill="white"/>
</svg>
