<svg width="69" height="16" viewBox="0 0 69 16" fill="none" xmlns="http://www.w3.org/2000/svg">
<g clip-path="url(#clip0_178_44)">
<path fill-rule="evenodd" clip-rule="evenodd" d="M12.3912 0L8.42485 3.96612L6.35821 6.03231L8.28428 7.95826L12.2506 3.99219L12.2506 3.9922L12.2507 3.99216L16.217 7.95828L14.317 9.85788L16.3576 11.8984L20.3239 7.93224L12.3912 0ZM12.3912 7.93229L14.3168 9.85778L12.2506 11.9241L8.28429 15.8902L0.351562 7.9583L4.31792 3.99219L6.35821 6.03234L6.35818 6.03237L6.35816 6.03234L4.45843 7.93227L8.4248 11.8984L8.42482 11.8984L8.42484 11.8984L12.3912 7.93229Z" fill="#7D7D7D"/>
<path fill-rule="evenodd" clip-rule="evenodd" d="M23.8375 8.78296C24.0587 8.78296 24.241 8.75158 24.379 8.68413C24.6469 8.56178 24.7693 8.30139 24.7693 7.95001C24.7693 7.65888 24.6548 7.40099 24.4022 7.24758C24.2566 7.16445 24.0744 7.13307 23.8218 7.13307H23.6009V8.78327H23.8375V8.78296ZM22.5543 6.28476H23.8689C24.3269 6.28476 24.7097 6.34719 25.0062 6.49809C25.5552 6.75849 25.8546 7.25543 25.8546 7.95033C25.8546 8.53856 25.6023 9.1657 24.8524 9.45464C24.5688 9.56131 24.2203 9.62876 23.775 9.62876H23.5981V11.3179H22.5518V6.28476H22.5546H22.5543ZM29.2226 9.24884L28.9255 8.40052C28.8031 8.03347 28.7435 7.82013 28.6965 7.65072H28.6808C28.6419 7.82798 28.5666 8.04131 28.4285 8.40837L28.1242 9.24915H29.2223L29.2226 9.24884ZM28.2465 6.26123H29.0949L31.1509 11.3179H30.0264L29.537 10.0868H27.8274L27.3615 11.3179H26.2841L28.2465 6.26123ZM33.2097 8.56962C33.4387 8.56962 33.5843 8.53072 33.7145 8.46296C33.9121 8.3406 34.0502 8.13511 34.0502 7.85119C34.0502 7.58327 33.9278 7.35425 33.7066 7.23974C33.5921 7.16947 33.4491 7.13307 33.2172 7.13307H32.8191V8.56994H33.2097V8.56962ZM31.773 6.28476H33.2771C33.7273 6.28476 34.0631 6.35252 34.3313 6.47456C34.9117 6.72711 35.1329 7.20868 35.1329 7.74201C35.1329 8.3977 34.7216 8.85856 34.1544 9.03299V9.04868C34.3078 9.13182 34.529 9.40758 34.7972 9.87378L35.6142 11.3179H34.4145L33.7509 10.1103C33.4983 9.6366 33.3214 9.4468 33.2018 9.41543H32.8191V11.3179H31.773V6.28476Z" fill="#7D7D7D"/>
<path d="M37.4484 6.28491H36.4023V11.318H37.4484V6.28491Z" fill="#7D7D7D"/>
<path fill-rule="evenodd" clip-rule="evenodd" d="M39.5956 7.1725H38.1279V6.28497H42.2374L41.9613 7.1725H40.642V11.3181H39.5956V7.1725ZM42.8253 6.28497H45.7353L45.4592 7.1725H43.8717V8.33329H45.4671V9.21015H43.8717V10.4334H45.7275V11.3181H42.8253V6.28497ZM47.721 7.1725H46.2558V6.28497H50.3624L50.0891 7.1725H48.767V11.3181H47.721V7.1725ZM52.3352 10.8443C53.0145 10.8443 53.4647 10.5764 53.4647 9.90505C53.4647 9.34035 53.0459 8.98113 52.403 8.98113H51.5857V10.8447H52.3352V10.8443ZM52.1351 8.50741C52.8065 8.50741 53.1654 8.17956 53.1654 7.61988C53.1654 7.11791 52.8739 6.75588 52.1558 6.75588H51.5832V8.50489H52.1351V8.50741ZM51.021 6.28497H52.1897C53.2592 6.28497 53.733 6.87321 53.733 7.56027C53.733 8.07289 53.4804 8.47635 53.0694 8.65329V8.66897C53.6341 8.79133 54.048 9.2569 54.048 9.89188C54.048 10.7402 53.4519 11.3206 52.3352 11.3206H51.021V6.28497ZM57.4286 9.49376L56.9081 8.04152C56.7468 7.59917 56.6712 7.36231 56.6088 7.1725H56.5931C56.5306 7.36513 56.4475 7.59917 56.2887 8.04152L55.7604 9.49376H57.4286ZM56.4058 6.26929H56.7961L58.7221 11.3181H58.1103L57.6134 9.96748H55.5885L55.0915 11.3181H54.4954L56.4058 6.26929ZM63.1102 11.3181L60.6975 8.12497C60.4537 7.80653 60.2168 7.4829 59.9868 7.15431H59.9715C59.9868 7.40654 59.9947 7.61988 59.9947 8.01548V11.3156H59.43V6.28497H59.9715L62.2929 9.35572C62.5432 9.68989 62.7878 10.0282 63.0267 10.3706H63.0424C63.0267 10.1027 63.0267 9.88152 63.0267 9.48591V6.28497H63.5836V11.3181H63.1102ZM64.8226 6.28497H65.3873V8.59086H65.403L67.3131 6.28497H67.9848L65.8922 8.77533L68.1201 11.3181H67.4122L65.403 9.02003H65.3873V11.3181H64.8226V6.28497Z" fill="#7D7D7D"/>
</g>
<defs>
<clipPath id="clip0_178_44">
<rect width="67.7689" height="16" fill="white" transform="translate(0.351562)"/>
</clipPath>
</defs>
</svg>
