<svg width="102" height="24" viewBox="0 0 102 24" fill="none" xmlns="http://www.w3.org/2000/svg">
<g clip-path="url(#clip0_44_1217)">
<path fill-rule="evenodd" clip-rule="evenodd" d="M18.0863 0L12.1368 5.94918L9.03683 9.04847L11.926 11.9374L17.8754 5.98828L17.8755 5.98824L23.825 11.9374L23.825 11.9375L20.975 14.7868L24.0359 17.8475L29.9854 11.8984L18.0863 0ZM18.0863 11.8984L20.9747 14.7867L17.8755 17.8862L11.9259 23.8353L0.0268555 11.9375L5.9764 5.98828L9.03682 9.04852L9.03679 9.04855L9.03675 9.04852L6.18716 11.8984L12.1367 17.8476L12.1367 17.8475L12.1368 17.8476L18.0863 11.8984Z" fill="white"/>
<path fill-rule="evenodd" clip-rule="evenodd" d="M35.2554 13.1746C35.5872 13.1746 35.8606 13.1276 36.0677 13.0264C36.4696 12.8429 36.6531 12.4523 36.6531 11.9252C36.6531 11.4885 36.4813 11.1017 36.1025 10.8716C35.8841 10.7469 35.6107 10.6998 35.2318 10.6998H34.9005V13.1751H35.2554V13.1746ZM33.3305 9.42732H35.3024C35.9895 9.42732 36.5637 9.52097 37.0084 9.74732C37.832 10.1379 38.281 10.8833 38.281 11.9257C38.281 12.808 37.9026 13.7487 36.7778 14.1821C36.3524 14.3421 35.8295 14.4433 35.1617 14.4433H34.8963V16.977H33.3268V9.42732H33.331H33.3305ZM43.333 13.8734L42.8874 12.601C42.7038 12.0504 42.6144 11.7304 42.5438 11.4763H42.5203C42.4619 11.7421 42.349 12.0621 42.1419 12.6127L41.6854 13.8739H43.3326L43.333 13.8734ZM41.869 9.39203H43.1415L46.2255 16.977H44.5388L43.8046 15.1304H41.2402L40.5413 16.977H38.9252L41.869 9.39203ZM49.3136 12.8546C49.6572 12.8546 49.8756 12.7963 50.0709 12.6946C50.3674 12.5111 50.5744 12.2029 50.5744 11.777C50.5744 11.3751 50.3909 11.0316 50.0591 10.8598C49.8873 10.7544 49.6727 10.6998 49.3249 10.6998H48.7277V12.8551H49.3136V12.8546ZM47.1587 9.42732H49.4148C50.0902 9.42732 50.5937 9.52897 50.9961 9.71203C51.8667 10.0909 52.1985 10.8132 52.1985 11.6132C52.1985 12.5967 51.5816 13.288 50.7307 13.5497V13.5732C50.9608 13.6979 51.2926 14.1116 51.695 14.8109L52.9205 16.977H51.1208L50.1255 15.1657C49.7466 14.4551 49.4812 14.1704 49.3019 14.1233H48.7277V16.977H47.1587V9.42732Z" fill="white"/>
<path d="M55.6727 9.42731H54.1036V16.977H55.6727V9.42731Z" fill="white"/>
<path fill-rule="evenodd" clip-rule="evenodd" d="M58.8936 10.7586H56.692V9.42728H62.8562L62.442 10.7586H60.4631V16.9769H58.8936V10.7586ZM63.7381 9.42728H68.1031L67.6889 10.7586H65.3076V12.4997H67.7007V13.815H65.3076V15.6499H68.0913V16.9769H63.7381V9.42728ZM71.0816 10.7586H68.8838V9.42728H75.0437L74.6338 10.7586H72.6506V16.9769H71.0816V10.7586ZM78.003 16.2663C79.0219 16.2663 79.6972 15.8645 79.6972 14.8574C79.6972 14.0103 79.0689 13.4715 78.1046 13.4715H76.8787V16.2668H78.003V16.2663ZM77.7027 12.7609C78.7098 12.7609 79.2482 12.2692 79.2482 11.4296C79.2482 10.6767 78.811 10.1336 77.7338 10.1336H76.8749V12.7572H77.7027V12.7609ZM76.0316 9.42728H77.7846C79.389 9.42728 80.0996 10.3096 80.0996 11.3402C80.0996 12.1092 79.7207 12.7143 79.1042 12.9797V13.0033C79.9513 13.1868 80.5721 13.8852 80.5721 14.8376C80.5721 16.1101 79.6779 16.9807 78.003 16.9807H76.0316V9.42728ZM85.643 14.2405L84.8622 12.0621C84.6203 11.3986 84.5069 11.0433 84.4133 10.7586H84.3897C84.2961 11.0475 84.1714 11.3986 83.9332 12.0621L83.1407 14.2405H85.643ZM84.1088 9.40375H84.6942L87.5833 16.9769H86.6656L85.9202 14.951H82.8828L82.1374 16.9769H81.2432L84.1088 9.40375ZM94.1654 16.9769L90.5463 12.1873C90.1807 11.7096 89.8253 11.2242 89.4804 10.7313H89.4573C89.4804 11.1096 89.4922 11.4296 89.4922 12.023V16.9732H88.6451V9.42728H89.4573L92.9394 14.0334C93.3149 14.5346 93.6818 15.0422 94.0402 15.5557H94.0637C94.0402 15.1539 94.0402 14.8221 94.0402 14.2287V9.42728H94.8756V16.9769H94.1654ZM96.734 9.42728H97.5811V12.8861H97.6047L100.47 9.42728H101.477L98.3384 13.1628L101.68 16.9769H100.618L97.6047 13.5299H97.5811V16.9769H96.734V9.42728Z" fill="white"/>
</g>
<defs>
<clipPath id="clip0_44_1217">
<rect width="101.653" height="24" fill="white" transform="translate(0.0268555)"/>
</clipPath>
</defs>
</svg>
