<svg width="116" height="24" viewBox="0 0 116 24" fill="none" xmlns="http://www.w3.org/2000/svg">
<g clip-path="url(#clip0_44_1266)">
<path d="M20.7075 2.2655L0.365601 22.5487H4.34169C6.15223 22.5487 7.85626 21.8407 9.13429 20.5664L29.4762 0.283203H25.5001C23.7251 0.283203 21.9856 0.991168 20.7075 2.2655Z" fill="white"/>
<path d="M9.13429 7.57524L16.4475 0.283203H12.4714C10.6608 0.283203 8.95679 0.991168 7.67876 2.2655L0.365601 9.55754H4.34169C6.15223 9.55754 7.89177 8.81418 9.13429 7.57524Z" fill="white"/>
<path d="M20.7076 15.2567L13.3944 22.5487H17.3705C19.181 22.5487 20.8851 21.8407 22.1631 20.5664L29.4763 13.2744H25.5002C23.7251 13.2744 21.9856 13.9823 20.7076 15.2567Z" fill="white"/>
<path d="M81.6979 0.283203V12.708H84.1474V9.84072H86.5615C89.224 9.84072 91.3541 7.68143 91.3541 5.06196C91.3541 2.4071 89.1885 0.283203 86.5615 0.283203H81.6979ZM86.5615 7.53984H84.1474V2.58409H86.5615C87.946 2.58409 89.0465 3.68143 89.0465 5.06196C89.0465 6.44249 87.9105 7.53984 86.5615 7.53984Z" fill="white"/>
<path d="M93.3066 0.283203V12.708H95.7562V9.84072H98.1702C100.833 9.84072 102.963 7.68143 102.963 5.06196C102.963 2.4071 100.797 0.283203 98.1702 0.283203H93.3066ZM98.1702 7.53984H95.7562V2.58409H98.1702C99.5548 2.58409 100.655 3.68143 100.655 5.06196C100.655 6.44249 99.5193 7.53984 98.1702 7.53984Z" fill="white"/>
<path d="M107.365 4.88498V2.61949H113.329L113.968 0.318604H104.915V12.7434H110.631C112.797 12.7434 114.572 10.9735 114.572 8.81418C114.572 6.65489 112.797 4.88498 110.631 4.88498H107.365ZM110.631 10.4071H107.365V7.18586H110.631C111.519 7.18586 112.264 7.89382 112.264 8.81418C112.264 9.69913 111.519 10.4071 110.631 10.4071Z" fill="white"/>
<path d="M37.1444 4.88498V2.61949H43.1085L43.7475 0.318604H34.6948V12.7434H40.4104C42.576 12.7434 44.351 10.9735 44.351 8.81418C44.351 6.65489 42.576 4.88498 40.4104 4.88498H37.1444ZM40.4104 10.4071H37.1444V7.18586H40.4104C41.298 7.18586 42.0435 7.89382 42.0435 8.81418C42.008 9.69913 41.298 10.4071 40.4104 10.4071Z" fill="white"/>
<path d="M62.6339 3.18585V6.79647H58.9419V3.18585H56.4923V12.708H58.9419V9.13275H62.6339V12.708H65.0835V3.18585H62.6339Z" fill="white"/>
<path d="M73.9587 12.708H76.7987L72.8936 7.18585L76.4792 3.18585H73.4262L69.7341 7.29205V3.18585H67.249V12.708H69.7341V10.7257L71.2961 8.95576L73.9587 12.708Z" fill="white"/>
<path d="M53.7942 4.60177C53.1907 3.75222 52.2677 3.07965 50.1022 3.07965C47.9721 3.07965 46.5521 3.92921 46.5521 3.92921L47.1911 5.87611C49.2146 5.02655 50.5637 5.23894 51.1317 5.55753C51.6642 5.87611 51.9837 6.51328 52.0192 7.22124C51.6287 7.07965 50.8477 6.86726 49.5341 6.86726C48.0431 6.86726 45.6646 7.53983 45.7356 9.98231C45.8066 12.3894 47.9721 12.9912 49.1436 12.9558C50.4572 12.9204 51.4157 12.531 52.0192 11.8584V12.7434H54.4687V7.43363C54.4687 6.61947 54.3977 5.41593 53.7942 4.60177ZM51.4867 10.4779C51.2027 10.7611 50.6702 11.0443 50.1377 11.115C48.7886 11.292 48.2561 10.7257 48.1851 10.0177C48.1496 9.48673 48.5401 8.56638 49.9957 8.56638C50.9187 8.56638 51.7707 8.84956 52.0192 8.99116C52.0192 9.73452 51.8062 10.1239 51.4867 10.4779Z" fill="white"/>
<path d="M34.6948 18.1593H35.3338V20.0354H37.8544V18.1593H38.4934V22.5133H37.8544V20.6018H35.3338V22.5133H34.6948V18.1593Z" fill="white"/>
<path d="M39.6294 21.2743C39.6294 20.354 40.4104 19.8584 41.5109 19.8584C42.0789 19.8584 42.4695 19.9292 42.86 20.0354V19.8938C42.86 19.1151 42.3985 18.7257 41.5464 18.7257C41.0139 18.7257 40.6234 18.8673 40.1974 19.0443L40.0199 18.5133C40.5169 18.3009 40.9784 18.1239 41.6174 18.1239C42.221 18.1239 42.718 18.3009 43.0375 18.6195C43.357 18.9381 43.499 19.3628 43.499 19.8938V22.5487H42.86V21.9115C42.5405 22.3009 42.0434 22.6549 41.2979 22.6549C40.4459 22.6195 39.6294 22.1593 39.6294 21.2743ZM42.86 20.9204V20.531C42.5405 20.4248 42.1144 20.354 41.5819 20.354C40.7654 20.354 40.3039 20.708 40.3039 21.2389C40.3039 21.8053 40.8009 22.1239 41.4044 22.1239C42.221 22.1239 42.86 21.6283 42.86 20.9204Z" fill="white"/>
<path d="M48.4691 18.7611H46.9071V18.1947H50.7057V18.7611H49.1437V22.5487H48.4691V18.7611Z" fill="white"/>
<path d="M51.6642 18.1593H53.7942C54.6817 18.1593 55.2142 18.5841 55.2142 19.2566C55.2142 19.823 54.8592 20.1062 54.4687 20.2478C55.0012 20.3894 55.4272 20.708 55.4272 21.3451C55.4272 22.0885 54.7882 22.5487 53.8297 22.5487H51.6287V18.1593H51.6642ZM53.6522 20.0354C54.1847 20.0354 54.5397 19.7876 54.5397 19.3274C54.5397 18.9735 54.2202 18.7257 53.6522 18.7257H52.3032V20.0354H53.6522ZM53.7587 21.9823C54.3977 21.9823 54.7527 21.6991 54.7527 21.2389C54.7527 20.8142 54.3622 20.5664 53.6522 20.5664H52.2677V21.9823H53.7587Z" fill="white"/>
<path d="M56.3503 20.354C56.3503 19.1151 57.3089 18.0885 58.6224 18.0885C59.9359 18.0885 60.8944 19.1151 60.8944 20.354C60.8944 21.5929 59.9359 22.6549 58.5869 22.6549C57.3089 22.6549 56.3503 21.6283 56.3503 20.354ZM60.2554 20.354C60.2554 19.4336 59.5454 18.6549 58.6224 18.6549C57.6639 18.6549 57.0249 19.4336 57.0249 20.354C57.0249 21.3097 57.7349 22.0531 58.6579 22.0531C59.6164 22.0531 60.2554 21.3097 60.2554 20.354Z" fill="white"/>
<path d="M61.8529 20.354C61.8529 19.0797 62.7404 18.0885 63.9474 18.0885C65.261 18.0885 66.0065 19.115 66.0065 20.3894C66.0065 20.4602 66.0065 20.531 66.0065 20.6018H62.5274C62.6339 21.5221 63.3084 22.0531 64.054 22.0531C64.6575 22.0531 65.0835 21.8053 65.4385 21.4513L65.829 21.8053C65.403 22.3009 64.8705 22.6195 64.0185 22.6195C62.8114 22.6549 61.8529 21.7345 61.8529 20.354ZM65.332 20.1062C65.261 19.3274 64.7995 18.6195 63.9474 18.6195C63.2019 18.6195 62.6339 19.2566 62.5274 20.1062H65.332Z" fill="white"/>
<path d="M67.1426 18.1593H67.7816V21.6283L70.3731 18.1593H71.0121V22.5133H70.3731V19.0443L67.7461 22.5133H67.1071V18.1593H67.1426ZM67.8526 16.531L68.3141 16.4248C68.4206 16.7788 68.6336 17.0266 69.0596 17.0266C69.4856 17.0266 69.6986 16.8142 69.8051 16.4248L70.2666 16.531C70.1601 17.1328 69.6986 17.5575 69.0596 17.5575C68.4206 17.5575 67.9591 17.1328 67.8526 16.531Z" fill="white"/>
<path d="M74.7397 20.354C74.7397 19.1151 75.6983 18.0885 76.9763 18.0885C77.7928 18.0885 78.3253 18.4425 78.7158 18.8673L78.2898 19.292C77.9348 18.9381 77.5443 18.6549 76.9408 18.6549C76.0533 18.6549 75.3788 19.3982 75.3788 20.354C75.3788 21.3097 76.0888 22.0531 76.9763 22.0531C77.5443 22.0531 77.9348 21.7699 78.2898 21.3805L78.7158 21.7699C78.2898 22.2655 77.7573 22.6195 76.9408 22.6195C75.7338 22.6549 74.7397 21.5929 74.7397 20.354Z" fill="white"/>
<path d="M79.8518 18.1593H80.4908V20.6726L82.9049 18.1593H83.7214L81.8753 20.0354L83.7569 22.5133H82.9759L81.4138 20.4956L80.4908 21.4513V22.5133H79.8518V18.1593Z" fill="white"/>
<path d="M84.1473 20.354C84.1473 19.1151 85.1059 18.0885 86.4194 18.0885C87.7329 18.0885 88.6914 19.1151 88.6914 20.354C88.6914 21.5929 87.7329 22.6549 86.3839 22.6549C85.1059 22.6549 84.1473 21.6283 84.1473 20.354ZM88.0524 20.354C88.0524 19.4336 87.3424 18.6549 86.4194 18.6549C85.4609 18.6549 84.8219 19.4336 84.8219 20.354C84.8219 21.3097 85.5319 22.0531 86.4549 22.0531C87.3779 22.0531 88.0524 21.3097 88.0524 20.354Z" fill="white"/>
<path d="M89.8986 18.1593H90.5376V19.0443C90.8926 18.5133 91.4251 18.0885 92.2061 18.0885C93.2711 18.0885 94.3007 18.9027 94.3007 20.354C94.3007 21.7699 93.2711 22.6195 92.2061 22.6195C91.3896 22.6195 90.8571 22.1947 90.5376 21.6991V23.8938H89.8986V18.1593ZM93.6616 20.354C93.6616 19.3274 92.9516 18.6549 92.1351 18.6549C91.3186 18.6549 90.5376 19.3274 90.5376 20.354C90.5376 21.3805 91.3186 22.0531 92.1351 22.0531C92.9516 22.0531 93.6616 21.4159 93.6616 20.354Z" fill="white"/>
<path d="M95.2592 20.354C95.2592 19.1151 96.2177 18.0885 97.5312 18.0885C98.8447 18.0885 99.8032 19.1151 99.8032 20.354C99.8032 21.5929 98.8447 22.6549 97.4957 22.6549C96.2177 22.6549 95.2592 21.6283 95.2592 20.354ZM99.1642 20.354C99.1642 19.4336 98.4542 18.6549 97.5312 18.6549C96.5727 18.6549 95.9337 19.4336 95.9337 20.354C95.9337 21.3097 96.6437 22.0531 97.5667 22.0531C98.4897 22.0531 99.1642 21.3097 99.1642 20.354Z" fill="white"/>
<path d="M100.726 20.354C100.726 19.1151 101.685 18.0885 102.963 18.0885C103.779 18.0885 104.312 18.4425 104.702 18.8673L104.276 19.292C103.921 18.9381 103.531 18.6549 102.927 18.6549C102.04 18.6549 101.365 19.3982 101.365 20.354C101.365 21.3097 102.075 22.0531 102.963 22.0531C103.531 22.0531 103.921 21.7699 104.276 21.3805L104.702 21.7699C104.276 22.2655 103.744 22.6195 102.927 22.6195C101.685 22.6549 100.726 21.5929 100.726 20.354Z" fill="white"/>
<path d="M106.903 18.7611H105.341V18.1947H109.14V18.7611H107.578V22.5487H106.903V18.7611Z" fill="white"/>
<path d="M110.063 18.1593H110.702V21.6283L113.294 18.1593H113.933V22.5133H113.329V19.0443L110.702 22.5133H110.063V18.1593Z" fill="white"/>
</g>
<defs>
<clipPath id="clip0_44_1266">
<rect width="115.2" height="24" fill="white" transform="translate(0.081543)"/>
</clipPath>
</defs>
</svg>
