<svg width="152" height="24" viewBox="0 0 152 24" fill="none" xmlns="http://www.w3.org/2000/svg">
<g clip-path="url(#clip0_44_1226)">
<path d="M21.4819 4.6217C22.0335 5.35222 22.5005 6.14586 22.8734 6.9867L12.2955 14.9737L7.87469 12.1352V8.72028L12.2955 11.5588L21.4819 4.6217Z" fill="white"/>
<path d="M3.36295 11.8942C3.36295 11.741 3.3666 11.5887 3.3739 11.4374L0.694767 11.3029C0.685648 11.4991 0.680179 11.6971 0.680179 11.897C0.679039 13.4586 0.978911 15.005 1.5626 16.4475C2.14628 17.8901 3.00229 19.2004 4.08152 20.3034L5.98189 18.3578C5.15114 17.5103 4.4921 16.5029 4.04266 15.3937C3.59321 14.2844 3.36222 13.0951 3.36295 11.8942Z" fill="white"/>
<path d="M12.2931 2.74726C12.4426 2.74726 12.5912 2.75286 12.7389 2.76033L12.873 0.0151786C12.6809 0.00583814 12.4876 0.00116849 12.2931 0.00116849C10.7678 -0.000736732 9.25725 0.305978 7.84807 0.9037C6.43889 1.50142 5.15886 2.37838 4.08148 3.48422L5.98186 5.43077C6.80929 4.57955 7.79284 3.90426 8.87594 3.44373C9.95905 2.9832 11.1203 2.7465 12.2931 2.74726Z" fill="white"/>
<path d="M12.2931 21.0413C12.1435 21.0413 11.9949 21.0413 11.8463 21.0292L11.7122 23.7734C11.9049 23.7833 12.0986 23.7884 12.2931 23.7884C13.8177 23.79 15.3275 23.4831 16.7359 22.8852C18.1444 22.2873 19.4236 21.4102 20.5001 20.3044L18.6034 18.3588C17.7758 19.2095 16.7924 19.8844 15.7095 20.3448C14.6266 20.8052 13.4655 21.0419 12.2931 21.0413Z" fill="white"/>
<path d="M17.3268 4.34332L19.5846 2.63869C17.521 0.927018 14.9449 -0.00475142 12.2895 1.82208e-05V2.74704C14.0876 2.74476 15.8441 3.30137 17.3268 4.34332Z" fill="white"/>
<path d="M23.9051 11.8942C23.9066 11.1796 23.8455 10.4662 23.7227 9.7627L21.2233 11.6495C21.2233 11.7308 21.2233 11.812 21.2233 11.8942C21.2239 13.1722 20.9623 14.4361 20.4556 15.604C19.9488 16.7719 19.2081 17.8176 18.2815 18.6735L20.0843 20.7144C21.289 19.6004 22.2516 18.2396 22.9098 16.7202C23.5681 15.2007 23.9071 13.5565 23.9051 11.8942Z" fill="white"/>
<path d="M12.2932 21.0413C11.0453 21.0417 9.81134 20.7737 8.67103 20.2547C7.53077 19.7356 6.50963 18.977 5.67375 18.0281L3.68219 19.8737C4.76958 21.1079 6.09806 22.094 7.5815 22.7684C9.06493 23.4428 10.6702 23.7903 12.2932 23.7883V21.0413Z" fill="white"/>
<path d="M6.30471 5.11486L4.50282 3.07397C3.29782 4.18771 2.33483 5.54843 1.67629 7.06791C1.01775 8.58737 0.67838 10.2317 0.680183 11.8941H3.36296C3.36241 10.6162 3.62399 9.35224 4.13075 8.18439C4.63752 7.01657 5.37817 5.9708 6.30471 5.11486Z" fill="white"/>
<path d="M67.6942 6.80205L71.0169 4.32306H59.8967V19.2196H71.0169V16.7407H63.0697V12.9249H69.849V10.4459H63.0697V6.80205H67.6942Z" fill="white"/>
<path d="M52.4143 10.1262H48.5536V6.80104H54.7151L58.0358 4.31451H45.3824V19.2111H52.0059C55.7194 19.2111 57.8505 17.5067 57.8505 14.5342C57.8505 11.6904 55.9202 10.1262 52.4143 10.1262ZM51.8631 16.7313H48.5536V12.6037H51.8631C53.8716 12.6037 54.8133 13.2954 54.8133 14.6675C54.8133 16.0396 53.8113 16.7313 51.8631 16.7313Z" fill="white"/>
<path d="M79.191 4.32092H73.1379V19.2174H76.3106V14.9975H79.191C83.053 14.9975 85.442 12.9396 85.442 9.65127C85.442 6.36307 83.053 4.32092 79.191 4.32092ZM79.1241 12.5166H76.3106V6.8018H79.1241C81.1555 6.8018 82.2766 7.81723 82.2766 9.66036C82.2766 11.5035 81.1555 12.5166 79.1241 12.5166Z" fill="white"/>
<path d="M40.6213 15.702C39.8017 16.1514 38.8835 16.3841 37.9515 16.3786C35.1622 16.3786 33.1386 14.362 33.1386 11.585C33.1386 8.80799 35.1622 6.78696 37.9515 6.78696C38.9574 6.76966 39.9425 7.07855 40.7627 7.66857L42.982 6.01337L42.8319 5.90538C41.5373 4.75271 39.8075 4.14221 37.8275 4.14221C35.68 4.14221 33.7326 4.87392 32.3423 6.20511C31.6393 6.89052 31.0833 7.71533 30.7089 8.62806C30.3346 9.54079 30.1499 10.5218 30.1665 11.51C30.1516 12.5083 30.3355 13.4993 30.707 14.4241C31.0786 15.3488 31.6303 16.1881 32.3293 16.8921C33.7261 18.2762 35.6691 19.0388 37.8014 19.0388C40.0294 19.0388 41.9768 18.2519 43.2954 16.8194L41.3089 15.3207L40.6213 15.702Z" fill="white"/>
<path d="M98.0223 10.1262H94.1633V6.80104H102.456V4.31451H90.9899V19.2111H97.605C101.318 19.2111 103.449 17.5067 103.449 14.5342C103.458 11.6904 101.528 10.1262 98.0223 10.1262ZM97.4712 16.7313H94.1633V12.6037H97.4712C99.4795 12.6037 100.421 13.2954 100.421 14.6675C100.421 16.0396 99.4277 16.7313 97.4712 16.7313Z" fill="white"/>
<path d="M139.52 19.1898H136.304V4.29321H139.52V10.5499H141.271L145.999 4.29321H149.644L144.036 11.3797L150.548 19.1898H146.28L141.494 13.3311H139.52V19.1898Z" fill="white"/>
<path d="M115.135 16.3589H108.331L107.178 19.2516H103.755L110.136 4.35504H113.559L119.837 19.2516H116.289L115.135 16.3589ZM114.07 13.6597L111.753 7.8742L109.424 13.6597H114.07Z" fill="white"/>
<path d="M124.167 4.35504V10.5756H130.824V4.35504H134.14V19.2516H130.824V13.3818H124.167V19.2516H120.851V4.35504H124.167Z" fill="white"/>
</g>
<defs>
<clipPath id="clip0_44_1226">
<rect width="151.111" height="24" fill="white" transform="translate(0.680176)"/>
</clipPath>
</defs>
</svg>
