<svg width="101" height="16" viewBox="0 0 101 16" fill="none" xmlns="http://www.w3.org/2000/svg">
<path d="M13.8674 3.08105C14.2351 3.56807 14.5465 4.09716 14.795 4.65772L7.7431 9.98241L4.7959 8.09004V5.81344L7.7431 7.7058L13.8674 3.08105Z" fill="#7D7D7D"/>
<path d="M1.78852 7.92934C1.78852 7.82718 1.79095 7.7257 1.79581 7.6248L0.00972733 7.53516C0.00364808 7.66592 2.1584e-06 7.79794 2.1584e-06 7.93118C-0.000757772 8.97225 0.199157 10.0032 0.588283 10.9649C0.977406 11.9266 1.54808 12.8002 2.26756 13.5354L3.53448 12.2384C2.98065 11.6734 2.54129 11.0018 2.24165 10.2623C1.94202 9.52284 1.78803 8.72997 1.78852 7.92934Z" fill="#7D7D7D"/>
<path d="M7.74197 1.83146C7.84166 1.83146 7.94072 1.8352 8.0392 1.84018L8.12857 0.0100784C8.00054 0.0038514 7.87164 0.000738303 7.74197 0.000738303C6.72511 -0.000531845 5.71809 0.203945 4.77864 0.602426C3.83918 1.00091 2.98583 1.58555 2.26758 2.32278L3.53449 3.62047C4.08612 3.053 4.74181 2.6028 5.46389 2.29578C6.18596 1.98876 6.96013 1.83096 7.74197 1.83146Z" fill="#7D7D7D"/>
<path d="M7.74172 14.0276C7.64204 14.0276 7.54293 14.0276 7.44386 14.0195L7.35449 15.849C7.48296 15.8556 7.61205 15.859 7.74172 15.859C8.75815 15.8601 9.76469 15.6555 10.7036 15.2569C11.6426 14.8583 12.4954 14.2735 13.2131 13.5363L11.9486 12.2393C11.3969 12.8064 10.7413 13.2564 10.0193 13.5633C9.2974 13.8702 8.52337 14.028 7.74172 14.0276Z" fill="#7D7D7D"/>
<path d="M11.0975 2.89555L12.6027 1.75913C11.2269 0.618012 9.50956 -0.00316761 7.73926 1.21472e-05V1.83136C8.93802 1.82984 10.109 2.20091 11.0975 2.89555Z" fill="#7D7D7D"/>
<path d="M15.4835 7.92954C15.4844 7.45313 15.4437 6.97754 15.3619 6.50854L13.6956 7.76639C13.6956 7.82059 13.6956 7.87475 13.6956 7.92954C13.696 8.78156 13.5216 9.62418 13.1838 10.4028C12.8459 11.1813 12.3521 11.8785 11.7344 12.4491L12.9363 13.8097C13.7394 13.067 14.3811 12.1598 14.8199 11.1469C15.2588 10.1339 15.4848 9.03776 15.4835 7.92954Z" fill="#7D7D7D"/>
<path d="M7.74163 14.0276C6.90975 14.0279 6.08708 13.8492 5.32687 13.5032C4.5667 13.1572 3.88594 12.6514 3.32868 12.0188L2.00098 13.2492C2.7259 14.072 3.61156 14.7294 4.60051 15.179C5.58947 15.6286 6.65962 15.8603 7.74163 15.8589V14.0276Z" fill="#7D7D7D"/>
<path d="M3.74969 3.40991L2.54843 2.04932C1.7451 2.7918 1.1031 3.69896 0.664073 4.71194C0.225051 5.72491 -0.00119693 6.82111 4.76197e-06 7.92942H1.78852C1.78815 7.07745 1.96254 6.23483 2.30039 5.45626C2.63823 4.67771 3.132 3.98053 3.74969 3.40991Z" fill="#7D7D7D"/>
<path d="M44.6769 4.53474L46.892 2.88208H39.4785V12.8131H46.892V11.1605H41.5939V8.61662H46.1134V6.96397H41.5939V4.53474H44.6769Z" fill="#7D7D7D"/>
<path d="M34.4897 6.75094H31.9159V4.53415H36.0236L38.2373 2.87646H29.8018V12.8075H34.2174C36.693 12.8075 38.1138 11.6712 38.1138 9.68955C38.1138 7.79375 36.8269 6.75094 34.4897 6.75094ZM34.1222 11.1543H31.9159V8.40257H34.1222C35.4612 8.40257 36.089 8.86371 36.089 9.77848C36.089 10.6932 35.421 11.1543 34.1222 11.1543Z" fill="#7D7D7D"/>
<path d="M52.3411 2.88062H48.3057V12.8116H50.4207V9.99835H52.3411C54.9157 9.99835 56.5084 8.62637 56.5084 6.43418C56.5084 4.24205 54.9157 2.88062 52.3411 2.88062ZM52.2964 8.34443H50.4207V4.53454H52.2964C53.6507 4.53454 54.3981 5.21149 54.3981 6.44024C54.3981 7.66899 53.6507 8.34443 52.2964 8.34443Z" fill="#7D7D7D"/>
<path d="M26.6278 10.468C26.0814 10.7676 25.4692 10.9228 24.8479 10.9191C22.9884 10.9191 21.6393 9.57463 21.6393 7.72334C21.6393 5.87199 22.9884 4.52464 24.8479 4.52464C25.5185 4.51311 26.1752 4.71904 26.722 5.11238L28.2016 4.00891L28.1015 3.93692C27.2385 3.16847 26.0853 2.76147 24.7653 2.76147C23.3336 2.76147 22.0353 3.24928 21.1084 4.13674C20.6398 4.59368 20.2691 5.14355 20.0195 5.75204C19.77 6.36052 19.6468 7.01454 19.6579 7.67335C19.648 8.33885 19.7706 8.99955 20.0183 9.61604C20.266 10.2325 20.6338 10.7921 21.0998 11.2614C22.031 12.1841 23.3263 12.6925 24.7479 12.6925C26.2332 12.6925 27.5315 12.1679 28.4105 11.2129L27.0862 10.2138L26.6278 10.468Z" fill="#7D7D7D"/>
<path d="M64.8953 6.75094H62.3226V4.53415H67.8513V2.87646H60.207V12.8075H64.6171C67.0924 12.8075 68.5133 11.6712 68.5133 9.68955C68.5191 7.79375 67.2325 6.75094 64.8953 6.75094ZM64.5279 11.1543H62.3226V8.40257H64.5279C65.8667 8.40257 66.4942 8.86371 66.4942 9.77848C66.4942 10.6932 65.8322 11.1543 64.5279 11.1543Z" fill="#7D7D7D"/>
<path d="M92.5604 12.7931H90.416V2.86206H92.5604V7.03316H93.7275L96.8793 2.86206H99.3095L95.5711 7.58637L99.912 12.7931H97.0668L93.8762 8.88732H92.5604V12.7931Z" fill="#7D7D7D"/>
<path d="M76.304 10.9059H71.7678L70.9988 12.8343H68.7168L72.9714 2.90332H75.253L79.4385 12.8343H77.073L76.304 10.9059ZM75.5936 9.10644L74.0493 5.24942L72.4965 9.10644H75.5936Z" fill="#7D7D7D"/>
<path d="M82.3253 2.90332V7.05034H86.7627V2.90332H88.9737V12.8343H86.7627V8.92118H82.3253V12.8343H80.1143V2.90332H82.3253Z" fill="#7D7D7D"/>
</svg>
