<svg width="68" height="24" viewBox="0 0 68 24" fill="none" xmlns="http://www.w3.org/2000/svg">
<path fill-rule="evenodd" clip-rule="evenodd" d="M4.76139 0L3.61526 3.13946H19.498L20.6441 0H4.76139ZM3.04184 4.70848L1.89572 7.84722H17.7785L18.9246 4.70848H3.04184ZM1.32587 9.41696L0.179749 12.5557H16.0625L17.2079 9.41696H1.32587Z" fill="white"/>
<mask id="mask0_44_1337" style="mask-type:alpha" maskUnits="userSpaceOnUse" x="24" y="4" width="44" height="20">
<path d="M24.0089 23.9998H67.4861V4.76868H24.0089V23.9998Z" fill="white"/>
</mask>
<g mask="url(#mask0_44_1337)">
<path fill-rule="evenodd" clip-rule="evenodd" d="M33.9454 13.7519V13.8182C34.6713 14.0846 35.3646 14.5504 35.7279 14.8496C36.8503 15.7814 37.3457 17.0123 37.3457 18.6093C37.3457 21.2386 35.959 23.1348 33.6811 23.7339C32.9878 23.9333 32.2619 24.0003 30.9077 24.0003H24.0089V4.76868H30.1161C31.3707 4.76868 32.2287 4.83492 32.9877 5.03437C35.2 5.63344 36.6524 7.16426 36.6524 9.59259C36.6524 10.8905 36.1901 11.9889 35.4311 12.7205C35.101 13.0531 34.6388 13.4527 33.9454 13.7519ZM27.8382 15.7814V20.8389H30.4794C31.271 20.8389 31.9976 20.7727 32.5262 20.2733C33.0542 19.774 33.2853 19.1422 33.2853 18.3101C33.2853 17.6783 33.1199 17.0792 32.7899 16.6468C32.2287 15.948 31.5353 15.7814 30.3473 15.7814H27.8382ZM27.805 12.454H29.9507C30.6109 12.454 30.9409 12.454 31.271 12.3543C32.163 12.0879 32.7241 11.2901 32.7241 10.1917C32.7241 8.89452 32.1297 8.3282 31.271 8.06251C30.9077 7.96278 30.5451 7.9293 29.8186 7.9293H27.805V12.454ZM43.0897 24.0003V7.99554H37.5768V4.76868H52.8947L51.8056 7.99554H46.919V24.0003H43.0897ZM54.0828 24.0003V4.76868H66.4959L65.4068 7.99554H57.8796V12.2546H60.9498C63.4257 12.2546 64.7134 12.8537 65.6047 13.6187C66.298 14.2178 67.4861 15.5484 67.4861 18.1777C67.4861 20.7727 66.2648 22.203 65.2414 22.9353C64.0533 23.7666 62.7988 24.0003 60.2565 24.0003H54.0828ZM57.8796 20.7727H60.7519C61.8411 20.7727 62.5012 20.5063 62.9634 19.9072C63.1946 19.608 63.5246 19.0752 63.5246 18.0772C63.5246 17.0792 63.1946 16.3804 62.5344 15.8811C62.1386 15.5819 61.61 15.4159 60.7187 15.4159H57.8796V20.7727Z" fill="white"/>
</g>
</svg>
